<?xml version="1.0" standalone="no"?>
<!DOCTYPE svg PUBLIC "-//W3C//DTD SVG 1.1//EN" "http://www.w3.org/Graphics/SVG/1.1/DTD/svg11.dtd" >
<svg>
<metadata>
Created by FontForge 20110222 at Sun Oct  9 18:12:58 2011
 By System Administrator
Copyright (C) 1996 Emigre Graphics, Designed by Zuzana Licko
</metadata>
<defs>
<font id="MrsEavesOT-Bold" horiz-adv-x="458" >
  <font-face 
    font-family="Mrs Eaves OT"
    font-weight="700"
    font-stretch="normal"
    units-per-em="1000"
    panose-1="0 0 0 0 0 0 0 0 0 0"
    ascent="800"
    descent="-200"
    x-height="333"
    cap-height="600"
    bbox="-111.058 -301 1403 873"
    underline-thickness="25"
    underline-position="-62"
    stemh="29"
    stemv="113"
    unicode-range="U+0020-FB04"
  />
<missing-glyph horiz-adv-x="500" 
 />
    <glyph glyph-name="fi" unicode="fi" horiz-adv-x="668" 
d="M223 333h345v-187c0 -100 12 -117 79 -117v-29h-271v29c67 0 79 17 79 117v27c0 100 -12 116 -79 116h-153v-143c0 -100 12 -117 79 -117v-29h-271v29c67 0 79 17 79 117v143h-82v44h82v70c0 148 92 214 204 214c94 0 169 -44 169 -118c0 -23 -20 -45 -45 -45
c-74 0 -15 122 -120 122c-53 0 -95 -37 -95 -124v-119z" />
    <glyph glyph-name="fl" unicode="fl" horiz-adv-x="633" 
d="M285 576c-51 0 -62 -38 -62 -119v-124h100v-44h-100v-143c0 -100 12 -117 79 -117v-29h-271v29c67 0 79 17 79 117v143h-82v44h82v81c0 136 59 203 178 203h253v-471c0 -100 12 -117 79 -117v-29h-271v29c67 0 79 17 79 117v288c0 100 -12 142 -79 142h-64z" />
    <glyph glyph-name="ff" unicode="ff" horiz-adv-x="673" 
d="M742 529c0 -21 -14 -41 -39 -41c-60 0 -35 88 -90 88c-41 0 -54 -32 -54 -119v-124h101v-44h-101v-143c0 -100 13 -117 79 -117v-29h-270v29c66 0 79 17 79 117v143h-224v-143c0 -100 12 -117 79 -117v-29h-271v29c67 0 79 17 79 117v143h-82v44h82v48
c0 136 57 194 163 194c72 0 114 -45 114 -78c0 -20 -13 -38 -35 -38c-54 0 -33 79 -81 79c-38 0 -48 -28 -48 -107v-98h224v81c0 136 51 203 169 203c80 0 126 -50 126 -88z" />
    <glyph glyph-name="ffi" unicode="ffi" horiz-adv-x="1004" 
d="M447 333v70c0 148 91 214 204 214c94 0 168 -44 168 -118c0 -23 -20 -45 -44 -45c-74 0 -16 122 -121 122c-52 0 -95 -37 -95 -124v-119h345v-187c0 -100 13 -117 79 -117v-29h-270v29c66 0 79 17 79 117v27c0 100 -13 116 -79 116h-154v-143c0 -100 13 -117 79 -117v-29
h-270v29c66 0 79 17 79 117v143h-224v-143c0 -100 12 -117 79 -117v-29h-271v29c67 0 79 17 79 117v143h-82v44h82v48c0 136 57 194 163 194c72 0 114 -45 114 -78c0 -20 -13 -38 -35 -38c-54 0 -33 79 -81 79c-38 0 -48 -28 -48 -107v-98h224z" />
    <glyph glyph-name="ffl" unicode="ffl" horiz-adv-x="969" 
d="M447 333v81c0 136 59 203 177 203h254v-471c0 -100 12 -117 79 -117v-29h-271v29c67 0 79 17 79 117v288c0 100 -12 142 -79 142h-64c-51 0 -63 -38 -63 -119v-124h101v-44h-101v-143c0 -100 13 -117 79 -117v-29h-270v29c66 0 79 17 79 117v143h-224v-143
c0 -100 12 -117 79 -117v-29h-271v29c67 0 79 17 79 117v143h-82v44h82v48c0 136 57 194 163 194c72 0 114 -45 114 -78c0 -20 -13 -38 -35 -38c-54 0 -33 79 -81 79c-38 0 -48 -28 -48 -107v-98h224z" />
    <glyph glyph-name="f_f_b" unicode="ffb" horiz-adv-x="1192" 
d="M1019 167c0 76 -23 136 -75 136c-34 0 -66 -36 -66 -88v-97c0 -51 32 -88 66 -88c52 0 75 61 75 137zM223 289v-143c0 -100 12 -117 79 -117v-29h-271v29c67 0 79 17 79 117v143h-82v44h82v48c0 136 57 194 163 194c72 0 114 -45 114 -78c0 -20 -13 -38 -35 -38
c-54 0 -33 79 -81 79c-38 0 -48 -28 -48 -107v-98h224v81c0 136 59 203 177 203h254v-296c20 17 50 29 82 29c113 0 182 -82 182 -183s-69 -184 -182 -184c-51 0 -89 27 -113 65l-53 -56h-29v287v155c0 100 -12 142 -79 142h-64c-51 0 -63 -38 -63 -119v-124h101v-44h-101
v-143c0 -100 13 -117 79 -117v-29h-270v29c66 0 79 17 79 117v143h-224z" />
    <glyph glyph-name="f_f_h" unicode="ffh" horiz-adv-x="1223" 
d="M447 333v81c0 136 59 203 177 203h254v-321c26 32 64 54 118 54c90 0 144 -64 144 -149v-55c0 -100 13 -117 79 -117v-29h-231v29c25 0 40 17 40 117v42c0 65 -12 106 -62 106c-40 0 -88 -32 -88 -99v-49c0 -100 12 -117 79 -117v-29h-271v29c67 0 79 17 79 117v288
c0 100 -12 142 -79 142h-64c-51 0 -63 -38 -63 -119v-124h101v-44h-101v-143c0 -100 13 -117 79 -117v-29h-270v29c66 0 79 17 79 117v143h-224v-143c0 -100 12 -117 79 -117v-29h-271v29c67 0 79 17 79 117v143h-82v44h82v48c0 136 57 194 163 194c72 0 114 -45 114 -78
c0 -20 -13 -38 -35 -38c-54 0 -33 79 -81 79c-38 0 -48 -28 -48 -107v-98h224z" />
    <glyph glyph-name="f_f_j" unicode="ffj" horiz-adv-x="983" 
d="M447 333v70c0 148 91 214 204 214c94 0 168 -44 168 -118c0 -23 -20 -45 -44 -45c-74 0 -16 122 -121 122c-52 0 -95 -37 -95 -124v-119h345v-411c0 -133 -56 -189 -163 -189c-94 0 -144 57 -145 94c-1 20 11 35 33 35c55 0 24 -88 96 -88c39 0 67 30 67 156v243
c0 100 -13 116 -79 116h-154v-143c0 -100 13 -117 79 -117v-29h-270v29c66 0 79 17 79 117v143h-224v-143c0 -100 12 -117 79 -117v-29h-271v29c67 0 79 17 79 117v143h-82v44h82v48c0 136 57 194 163 194c72 0 114 -45 114 -78c0 -20 -13 -38 -35 -38c-54 0 -33 79 -81 79
c-38 0 -48 -28 -48 -107v-98h224z" />
    <glyph glyph-name="f_f_r" unicode="ffr" horiz-adv-x="1105" 
d="M223 289v-143c0 -100 12 -117 79 -117v-29h-271v29c67 0 79 17 79 117v143h-82v44h82v48c0 136 57 194 163 194c72 0 114 -45 114 -78c0 -20 -13 -38 -35 -38c-54 0 -33 79 -81 79c-38 0 -48 -28 -48 -107v-98h224v81c0 136 51 203 169 203c80 0 126 -50 126 -88
c0 -21 -14 -41 -39 -41c-60 0 -35 88 -90 88c-41 0 -54 -32 -54 -119v-124h331c7 -16 13 -40 14 -55c21 40 66 72 106 72c68 0 89 -46 89 -82c0 -25 -16 -60 -53 -60c-52 0 -25 66 -80 66c-28 0 -62 -26 -62 -107v-21c0 -100 13 -117 79 -117v-29h-270v29c66 0 79 17 79 117
v27c0 100 -13 116 -79 116h-154v-143c0 -100 13 -117 79 -117v-29h-270v29c66 0 79 17 79 117v143h-224z" />
    <glyph glyph-name="f_f_t" unicode="fft" horiz-adv-x="976" 
d="M223 289v-143c0 -100 12 -117 79 -117v-29h-271v29c67 0 79 17 79 117v143h-82v44h82v48c0 136 57 194 163 194c72 0 114 -45 114 -78c0 -20 -13 -38 -35 -38c-54 0 -33 79 -81 79c-38 0 -48 -28 -48 -107v-98h224v81c0 136 51 203 169 203c80 0 126 -50 126 -88
c0 -21 -14 -41 -39 -41c-60 0 -35 88 -90 88c-41 0 -54 -32 -54 -119v-124h127c88 0 136 72 142 137h35v-137h86v-44h-86v-174c0 -47 13 -72 45 -72c18 0 40 9 67 29l14 -29c-32 -30 -88 -57 -122 -57c-73 0 -117 45 -117 122v181h-191v-143c0 -100 13 -117 79 -117v-29
h-270v29c66 0 79 17 79 117v143h-224z" />
    <glyph glyph-name="f_b" unicode="fb" horiz-adv-x="855" 
d="M805 167c0 -101 -69 -184 -182 -184c-50 0 -89 27 -113 65l-52 -56h-30v287v155c0 100 -12 142 -79 142h-64c-51 0 -62 -38 -62 -119v-124h100v-44h-100v-143c0 -100 12 -117 79 -117v-29h-271v29c67 0 79 17 79 117v143h-82v44h82v81c0 136 59 203 178 203h253v-296
c21 17 50 29 82 29c113 0 182 -82 182 -183zM683 167c0 76 -24 136 -75 136c-35 0 -67 -36 -67 -88v-97c0 -51 32 -88 67 -88c51 0 75 61 75 137z" />
    <glyph glyph-name="f_h" unicode="fh" horiz-adv-x="883" 
d="M541 296c27 32 64 54 118 54c90 0 144 -64 144 -149v-55c0 -100 13 -117 80 -117v-29h-231v29c25 0 39 17 39 117v42c0 65 -12 106 -62 106c-40 0 -88 -32 -88 -99v-49c0 -100 12 -117 79 -117v-29h-271v29c67 0 79 17 79 117v288c0 100 -12 142 -79 142h-64
c-51 0 -62 -38 -62 -119v-124h100v-44h-100v-143c0 -100 12 -117 79 -117v-29h-271v29c67 0 79 17 79 117v143h-82v44h82v81c0 136 59 203 178 203h253v-321z" />
    <glyph glyph-name="f_j" unicode="fj" horiz-adv-x="622" 
d="M543 -78c0 -133 -56 -189 -164 -189c-94 0 -144 57 -145 94c-1 20 11 35 34 35c55 0 24 -88 95 -88c40 0 67 30 67 156v243c0 100 -12 116 -79 116h-128v-143c0 -100 12 -117 79 -117v-29h-271v29c67 0 79 17 79 117v143h-82v44h82v70c0 148 92 214 204 214
c94 0 169 -44 169 -118c0 -23 -20 -45 -45 -45c-74 0 -15 122 -120 122c-53 0 -95 -37 -95 -124v-119h320v-411z" />
    <glyph glyph-name="f_r" unicode="fr" horiz-adv-x="768" 
d="M553 333c7 -16 13 -40 15 -55c20 40 65 72 105 72c69 0 90 -46 90 -82c0 -25 -17 -60 -54 -60c-51 0 -25 66 -80 66c-28 0 -61 -26 -61 -107v-21c0 -100 12 -117 79 -117v-29h-271v29c67 0 79 17 79 117v27c0 100 -12 116 -79 116h-153v-143c0 -100 12 -117 79 -117v-29
h-271v29c67 0 79 17 79 117v143h-82v44h82v81c0 136 51 203 169 203c80 0 126 -50 126 -88c0 -21 -13 -41 -38 -41c-60 0 -36 88 -90 88c-42 0 -54 -32 -54 -119v-124h330z" />
    <glyph glyph-name="f_t" unicode="ft" horiz-adv-x="639" 
d="M349 333c89 0 136 72 143 137h34v-137h87v-44h-87v-174c0 -47 13 -72 45 -72c18 0 40 9 67 29l15 -29c-33 -30 -89 -57 -123 -57c-72 0 -117 45 -117 122v181h-190v-143c0 -100 12 -117 79 -117v-29h-271v29c67 0 79 17 79 117v143h-82v44h82v81c0 136 51 203 169 203
c80 0 126 -50 126 -88c0 -21 -13 -41 -38 -41c-60 0 -36 88 -90 88c-42 0 -54 -32 -54 -119v-124h126z" />
    <glyph glyph-name=".notdef" horiz-adv-x="500" 
 />
    <glyph glyph-name="space" unicode=" " horiz-adv-x="233" 
 />
    <glyph glyph-name="space" unicode="&#xa0;" horiz-adv-x="233" 
 />
    <glyph glyph-name="exclam" unicode="!" horiz-adv-x="329" 
d="M90 540c0 41 33 77 75 77s78 -36 78 -77c0 -97 -53 -98 -61 -347h-34c-8 249 -58 250 -58 347zM223 49c0 -31 -26 -57 -58 -57s-56 26 -56 57c0 32 24 58 56 58s58 -26 58 -58z" />
    <glyph glyph-name="quotedbl" unicode="&#x22;" horiz-adv-x="413" 
d="M57 556c0 33 26 61 58 61c33 0 61 -28 61 -61s-39 -86 -50 -221h-21c-11 135 -48 188 -48 221zM237 556c0 33 26 61 58 61c33 0 61 -28 61 -61s-39 -86 -50 -221h-21c-11 135 -48 188 -48 221z" />
    <glyph glyph-name="numbersign" unicode="#" horiz-adv-x="435" 
d="M311 323h70l-13 -70h-70l-18 -114h-57l20 114h-90l-19 -114h-56l19 114h-70l12 70h69l16 94h-69l13 69h69l19 114h57l-20 -114h90l19 114h56l-19 -114h70l-12 -69h-70zM165 323h89l16 94h-89z" />
    <glyph glyph-name="dollar" unicode="$" horiz-adv-x="498" 
d="M260 589c128 -17 169 -119 110 -136c-47 -15 -46 70 -110 92v-185l70 -36c68 -36 103 -92 103 -145c0 -102 -78 -165 -173 -171v-91h-52v93c-134 18 -200 126 -151 148c58 25 47 -85 151 -106v216l-48 25c-57 29 -108 82 -108 155c0 79 66 138 156 143v92h52v-94zM260 49
c45 6 78 36 78 84c0 47 -31 81 -78 108v-192zM208 548c-34 -8 -61 -35 -61 -72c0 -39 19 -63 61 -88v160z" />
    <glyph glyph-name="percent" unicode="%" horiz-adv-x="763" 
d="M372 473c0 -78 -74 -143 -164 -143s-165 65 -165 143c0 79 75 144 165 144s164 -65 164 -144zM273 473c0 49 -20 105 -65 105s-66 -56 -66 -105c0 -48 21 -105 66 -105s65 57 65 105zM587 598l-369 -616l-40 21l370 617zM719 128c0 -79 -74 -144 -164 -144
s-164 65 -164 144c0 78 74 143 164 143s164 -65 164 -143zM621 128c0 48 -21 105 -66 105s-66 -57 -66 -105c0 -49 21 -105 66 -105s66 56 66 105z" />
    <glyph glyph-name="ampersand" unicode="&#x26;" horiz-adv-x="657" 
d="M249 368c56 35 102 73 102 134c0 44 -27 68 -62 68c-44 0 -70 -42 -70 -81c0 -45 9 -82 30 -121zM374 67c-66 70 -126 134 -171 194c-21 -29 -35 -64 -35 -111c0 -69 53 -120 117 -120c33 0 63 14 89 37zM405 38c-41 -38 -92 -55 -153 -55c-109 0 -206 59 -206 175
c0 76 54 120 117 160c-37 55 -58 107 -58 155c0 88 83 144 184 144c85 0 159 -39 159 -115c0 -88 -94 -120 -173 -174c33 -48 84 -103 155 -181c7 14 13 30 18 46c18 60 1 79 -82 79v29h234v-29c-72 0 -87 -19 -117 -104c-6 -20 -14 -38 -22 -55c33 -35 67 -55 97 -55
c18 0 40 10 65 35l20 -19c-37 -54 -77 -91 -126 -91c-36 0 -76 24 -112 55z" />
    <glyph glyph-name="quotesingle" unicode="'" horiz-adv-x="233" 
d="M57 556c0 33 26 61 58 61c33 0 61 -28 61 -61s-39 -86 -50 -221h-21c-11 135 -48 188 -48 221z" />
    <glyph glyph-name="parenleft" unicode="(" horiz-adv-x="358" 
d="M334 -86l-26 -25c-127 104 -241 236 -241 406s114 302 240 406l27 -25c-56 -63 -156 -191 -156 -381s100 -318 156 -381z" />
    <glyph glyph-name="parenright" unicode=")" horiz-adv-x="358" 
d="M292 295c0 -170 -114 -302 -241 -406l-27 25c56 63 157 191 157 381s-101 318 -157 381l28 25c126 -104 240 -236 240 -406z" />
    <glyph glyph-name="asterisk" unicode="*" horiz-adv-x="425" 
d="M181 429c-52 19 -86 7 -110 21c-25 14 -35 48 -21 73s50 35 74 20c25 -15 32 -51 74 -88c-10 54 -38 78 -38 107s23 55 53 55c29 0 54 -26 54 -55s-29 -53 -39 -105c41 35 49 71 74 84c24 15 59 7 73 -18s5 -60 -20 -75c-24 -13 -60 0 -112 -19c52 -18 85 -6 111 -21
c25 -14 35 -48 21 -72c-14 -25 -50 -35 -74 -20c-24 14 -32 51 -73 86c10 -53 37 -77 37 -105c0 -29 -23 -55 -52 -55c-30 0 -55 26 -55 55c0 27 29 52 40 105c-42 -34 -50 -71 -75 -84c-24 -15 -59 -7 -73 18c-14 24 -5 60 20 74c24 13 59 1 111 19z" />
    <glyph glyph-name="plus" unicode="+" 
d="M268 260h140v-77h-140v-141h-78v141h-140v77h140v140h78v-140z" />
    <glyph glyph-name="comma" unicode="," horiz-adv-x="313" 
d="M108 -139l-20 20c36 37 60 74 65 111h-5c-35 0 -62 29 -62 64s27 64 62 64s73 -27 73 -78c0 -59 -38 -134 -113 -181z" />
    <glyph glyph-name="hyphen" unicode="-" 
d="M375 166h-292v77h292v-77z" />
    <glyph glyph-name="hyphen" unicode="&#xad;" 
d="M375 166h-292v77h292v-77z" />
    <glyph glyph-name="period" unicode="." horiz-adv-x="313" 
d="M149 120c36 0 64 -28 64 -64s-28 -64 -64 -64s-63 28 -63 64s27 64 63 64z" />
    <glyph glyph-name="slash" unicode="/" horiz-adv-x="348" 
d="M334 601l-271 -619l-49 17l271 621z" />
    <glyph glyph-name="zero" unicode="0" horiz-adv-x="592" 
d="M296 450c128 0 233 -105 233 -233c0 -129 -105 -234 -233 -234s-233 105 -233 234c0 128 105 233 233 233zM296 366c-78 0 -144 -67 -144 -149c0 -83 66 -149 144 -149s144 66 144 149c0 82 -66 149 -144 149z" />
    <glyph glyph-name="one" unicode="1" horiz-adv-x="404" 
d="M354 0h-304v29c83 0 96 17 96 117v142c0 100 -13 116 -96 116v29h304v-29c-83 0 -96 -16 -96 -116v-142c0 -100 13 -117 96 -117v-29z" />
    <glyph glyph-name="two" unicode="2" horiz-adv-x="553" 
d="M348 163l-117 -71h237l-25 -171h-21c0 66 -17 79 -117 79h-231v24l188 154c43 36 68 71 68 125c0 53 -31 96 -92 96c-67 0 -114 -57 -68 -141l-47 -31c-120 72 -50 223 125 223c134 0 215 -61 215 -134c0 -75 -63 -121 -115 -153z" />
    <glyph glyph-name="three" unicode="3" horiz-adv-x="525" 
d="M258 115c-25 -19 -43 -61 -69 -40c-20 16 1 36 19 54l55 58c36 36 52 83 52 112c0 62 -32 100 -82 100c-60 0 -108 -61 -63 -141l-47 -31c-120 72 -58 223 116 223c114 0 208 -49 208 -134c0 -72 -64 -122 -106 -147l-49 -28c100 -14 172 -84 172 -161
c0 -106 -102 -167 -215 -167c-161 0 -226 132 -159 144c53 10 51 -98 151 -98c57 0 85 54 85 121c0 62 -18 106 -68 135z" />
    <glyph glyph-name="four" unicode="4" horiz-adv-x="565" 
d="M358 492v-405h3c92 0 102 23 116 76l5 20h29l-8 -141h-145v-66c0 -100 13 -117 96 -117v-29h-304v29c83 0 96 17 96 117v66h-210v27l296 423h26zM246 87v203l-143 -203h143z" />
    <glyph glyph-name="five" unicode="5" horiz-adv-x="501" 
d="M133 186c17 24 63 44 104 44c116 0 201 -93 201 -208s-87 -209 -210 -209c-103 0 -163 73 -163 115c0 18 8 29 28 29c57 0 24 -98 127 -98c53 0 93 68 93 163s-40 158 -93 158c-43 0 -71 -14 -96 -90h-45l31 343h178c91 0 102 22 115 76h23l-24 -188h-254z" />
    <glyph glyph-name="six" unicode="6" horiz-adv-x="533" 
d="M179 278c0 -212 56 -246 94 -246c60 0 78 61 78 140c0 96 -33 138 -86 138c-32 0 -71 -9 -86 -32zM179 332c24 20 58 26 86 26c111 0 210 -84 210 -187s-91 -188 -202 -188c-75 0 -210 50 -210 283c0 170 84 354 238 354c104 0 179 -77 134 -106c-42 -26 -47 57 -133 57
c-92 0 -119 -116 -123 -239z" />
    <glyph glyph-name="seven" unicode="7" horiz-adv-x="479" 
d="M435 442v-28l-223 -562c-13 -30 -29 -40 -48 -40c-28 0 -52 33 -30 78l219 439h-150c-92 0 -103 -21 -116 -76l-5 -20h-21l42 288h20c0 -67 17 -79 117 -79h195z" />
    <glyph glyph-name="eight" unicode="8" horiz-adv-x="545" 
d="M299 378c30 30 48 70 48 118c0 47 -37 74 -74 74c-40 0 -66 -33 -66 -64c0 -46 43 -88 92 -128zM239 293c-41 -34 -71 -79 -71 -147c0 -57 36 -116 105 -116c60 0 95 47 95 99c0 60 -64 114 -129 164zM336 349c72 -56 147 -111 147 -191c0 -100 -100 -175 -210 -175
c-111 0 -210 74 -210 171c0 89 70 127 141 166c-60 48 -111 94 -111 153c0 83 84 144 175 144c92 0 176 -60 176 -128c0 -67 -51 -106 -108 -140z" />
    <glyph glyph-name="nine" unicode="9" horiz-adv-x="533" 
d="M471 168c0 -171 -84 -355 -238 -355c-105 0 -180 78 -135 106c43 27 48 -57 134 -57c91 0 118 116 122 240c-24 -20 -57 -27 -86 -27c-110 0 -210 84 -210 188c0 103 91 187 202 187c76 0 211 -50 211 -282zM354 156c0 212 -56 246 -94 246c-59 0 -77 -62 -77 -140
c0 -96 33 -139 85 -139c33 0 71 10 86 33z" />
    <glyph glyph-name="colon" unicode=":" horiz-adv-x="285" 
d="M199 49c0 -31 -26 -57 -57 -57c-32 0 -56 26 -56 57c0 32 24 58 56 58c31 0 57 -26 57 -58zM199 238c0 -31 -26 -57 -57 -57c-32 0 -56 26 -56 57c0 32 24 58 56 58c31 0 57 -26 57 -58z" />
    <glyph glyph-name="semicolon" unicode=";" horiz-adv-x="278" 
d="M98 -128l-17 18c32 34 53 67 58 100h-5c-31 0 -56 27 -56 58s25 58 56 58c32 0 66 -24 66 -71c0 -53 -34 -120 -102 -163zM193 238c0 -31 -26 -57 -58 -57s-56 26 -56 57c0 32 24 58 56 58s58 -26 58 -58z" />
    <glyph glyph-name="less" unicode="&#x3c;" horiz-adv-x="483" 
d="M67 223l337 218l23 -31l-199 -187l199 -185l-23 -32z" />
    <glyph glyph-name="equal" unicode="=" 
d="M375 253h-292v78h292v-78zM375 112h-292v77h292v-77z" />
    <glyph glyph-name="greater" unicode="&#x3e;" horiz-adv-x="483" 
d="M417 223l-338 -217l-22 32l198 185l-198 187l22 31z" />
    <glyph glyph-name="question" unicode="?" horiz-adv-x="513" 
d="M392 468c0 55 -60 109 -149 109c-60 0 -91 -29 -91 -45c0 -12 9 -23 34 -23c24 0 44 -19 44 -42c0 -38 -42 -52 -64 -52c-34 0 -86 21 -86 86c0 75 93 116 163 116c145 0 224 -99 224 -178c0 -125 -99 -195 -224 -210v-54h-45v174c111 0 194 44 194 119zM278 49
c0 -31 -25 -57 -57 -57s-56 26 -56 57c0 32 24 58 56 58s57 -26 57 -58z" />
    <glyph glyph-name="at" unicode="@" horiz-adv-x="708" 
d="M674 239c0 -140 -106 -251 -192 -251c-33 0 -57 19 -69 40c-25 -25 -64 -43 -91 -43c-89 0 -132 86 -113 193c19 103 105 187 191 187c27 0 44 -5 65 -16h67l-48 -267c-6 -30 -1 -44 19 -44c46 0 120 73 120 200c0 132 -105 210 -217 210c-158 0 -279 -140 -279 -290
c0 -156 101 -264 244 -264c81 0 142 25 210 68l19 -28c-77 -58 -164 -87 -237 -87c-181 0 -325 132 -325 307c0 194 160 352 354 352c160 0 282 -106 282 -267zM444 304c-10 9 -24 17 -46 17c-53 0 -90 -75 -103 -148c-11 -68 -7 -135 43 -135c31 0 65 34 74 80z" />
    <glyph glyph-name="A" unicode="A" horiz-adv-x="625" 
d="M170 200l-41 -95c-23 -54 -8 -76 75 -76v-29h-242v29c69 0 92 17 123 88l217 500h21l218 -500c28 -64 42 -88 122 -88v-29h-328v29c88 0 98 23 75 76l-42 95h-198zM349 245l-80 183l-79 -183h159z" />
    <glyph glyph-name="B" unicode="B" horiz-adv-x="657" 
d="M347 45c86 0 127 56 127 125c0 68 -41 125 -127 125h-89v-139c0 -95 13 -111 96 -111h-7zM258 555v-215h56c75 0 110 48 110 107c0 58 -35 108 -110 108h-56zM484 326c78 -24 124 -86 124 -158c0 -93 -78 -168 -202 -168h-368v29c83 0 95 17 95 117v308
c0 100 -12 117 -95 117v29h340c110 0 180 -67 180 -150c0 -52 -27 -97 -74 -124z" />
    <glyph glyph-name="C" unicode="C" horiz-adv-x="692" 
d="M618 11h-28c-6 24 -13 48 -26 57c-51 -53 -116 -85 -186 -85c-169 0 -307 143 -307 317s138 317 307 317c70 0 135 -31 186 -85c13 10 20 32 26 57h28v-220h-29c-27 130 -108 200 -207 200c-137 0 -176 -145 -176 -269s39 -269 176 -269c99 0 180 72 207 200h29v-220z
" />
    <glyph glyph-name="D" unicode="D" horiz-adv-x="772" 
d="M38 0v29c83 0 95 17 95 117v308c0 100 -12 117 -95 117v29h330c232 0 333 -135 333 -300s-101 -300 -333 -300h-330zM258 555v-397c0 -97 13 -113 96 -113h10c162 0 195 142 195 255s-33 255 -195 255h-106z" />
    <glyph glyph-name="E" unicode="E" horiz-adv-x="641" 
d="M38 0v29c83 0 95 17 95 117v308c0 100 -12 117 -95 117v29h515l8 -141h-29l-5 20c-14 53 -24 76 -116 76h-153v-215h55c100 0 116 13 116 96h29v-237h-29c0 84 -16 96 -116 96h-55v-133c0 -100 13 -117 96 -117h90c92 0 103 23 116 76l5 20h29l-8 -141h-548z" />
    <glyph glyph-name="F" unicode="F" horiz-adv-x="594" 
d="M258 555v-215h55c100 0 116 13 116 96h29v-237h-29c0 84 -16 96 -116 96h-55v-149c0 -100 13 -117 96 -117v-29h-316v29c83 0 95 17 95 117v308c0 100 -12 117 -95 117v29h531l9 -141h-30l-5 20c-13 53 -24 76 -115 76h-170z" />
    <glyph glyph-name="G" unicode="G" horiz-adv-x="725" 
d="M532 155c0 43 -25 64 -94 64v29h295v-29c-83 0 -95 -16 -95 -116v-68c-118 0 -160 -52 -260 -52c-169 0 -307 143 -307 317s138 317 307 317c70 0 135 -31 186 -85c13 10 20 32 26 57h28v-220h-29c-27 130 -108 200 -207 200c-137 0 -176 -145 -176 -269
s39 -269 176 -269c78 0 150 32 150 124z" />
    <glyph glyph-name="H" unicode="H" horiz-adv-x="823" 
d="M258 296v-150c0 -100 13 -117 96 -117v-29h-316v29c83 0 95 17 95 117v308c0 100 -12 117 -95 117v29h316v-29c-83 0 -96 -17 -96 -117v-113h307v113c0 100 -12 117 -96 117v29h317v-29c-83 0 -96 -17 -96 -117v-308c0 -100 13 -117 96 -117v-29h-317v29
c84 0 96 17 96 117v150h-307z" />
    <glyph glyph-name="I" unicode="I" horiz-adv-x="392" 
d="M354 0h-316v29c83 0 95 17 95 117v308c0 100 -12 117 -95 117v29h316v-29c-83 0 -96 -17 -96 -117v-308c0 -100 13 -117 96 -117v-29z" />
    <glyph glyph-name="J" unicode="J" horiz-adv-x="383" 
d="M51 -178c52 0 82 37 82 125v507c0 100 -12 117 -95 117v29h316v-29c-83 0 -96 -17 -96 -117v-458c0 -149 -91 -219 -204 -219c-86 0 -162 50 -162 123c0 23 17 42 41 42s41 -19 41 -42c0 -35 22 -78 77 -78z" />
    <glyph glyph-name="K" unicode="K" horiz-adv-x="788" 
d="M387 375l277 -287c34 -35 102 -59 129 -59v-29h-332v29c52 0 76 18 37 59l-197 214l-43 -35v-121c0 -100 13 -117 96 -117v-29h-316v29c83 0 95 17 95 117v308c0 100 -12 117 -95 117v29h316v-29c-83 0 -96 -17 -96 -117v-134l210 169c25 21 87 82 4 82v29h241v-29
c-84 0 -119 -30 -184 -82z" />
    <glyph glyph-name="L" unicode="L" horiz-adv-x="633" 
d="M133 454c0 100 -12 117 -95 117v29h316v-29c-83 0 -96 -17 -96 -117v-292c0 -100 13 -117 96 -117h115c92 0 103 23 116 76l5 20h29l-8 -141h-573v29c83 0 95 17 95 117v308z" />
    <glyph glyph-name="M" unicode="M" horiz-adv-x="850" 
d="M178 434v-288c0 -100 13 -117 96 -117v-29h-236v29c83 0 95 17 95 117v308c0 100 -12 117 -95 117v29h200l193 -433l187 433h195v-29c-84 0 -96 -17 -96 -117v-308c0 -100 12 -117 96 -117v-29h-312v29c83 0 96 17 96 117v289l-196 -452h-22z" />
    <glyph glyph-name="N" unicode="N" horiz-adv-x="749" 
d="M572 202v252c0 100 -13 117 -96 117v29h237v-29c-84 0 -96 -17 -96 -117v-471h-25l-414 494v-331c0 -100 13 -117 96 -117v-29h-236v29c83 0 95 17 95 117v308c0 100 -12 117 -95 117v29h200z" />
    <glyph glyph-name="O" unicode="O" horiz-adv-x="783" 
d="M725 300c0 -174 -150 -317 -333 -317c-184 0 -334 143 -334 317s150 317 334 317c183 0 333 -143 333 -317zM591 300c0 121 -58 269 -199 269c-142 0 -199 -148 -199 -269s57 -269 199 -269c141 0 199 148 199 269z" />
    <glyph glyph-name="P" unicode="P" horiz-adv-x="598" 
d="M373 600c124 0 202 -76 202 -169s-78 -168 -202 -168h-115v-117c0 -100 13 -117 96 -117v-29h-316v29c83 0 95 17 95 117v308c0 100 -12 117 -95 117v29h335zM313 308c87 0 128 55 128 123s-41 124 -128 124h-55v-247h55z" />
    <glyph glyph-name="Q" unicode="Q" horiz-adv-x="808" 
d="M350 -13c-163 28 -279 159 -279 313c0 174 150 317 333 317c184 0 334 -143 334 -317c0 -168 -135 -297 -300 -315c-39 -4 -100 -28 -136 -58c185 45 272 -89 391 -89c81 0 132 31 165 85l24 -10c-24 -70 -72 -188 -208 -188c-165 0 -229 179 -326 179
c-96 0 -85 -62 -120 -67c-19 -3 -34 11 -34 32c0 30 66 91 156 118zM404 569c-141 0 -199 -148 -199 -269s58 -269 199 -269c142 0 199 148 199 269s-57 269 -199 269z" />
    <glyph glyph-name="R" unicode="R" horiz-adv-x="678" 
d="M398 263l97 -106c88 -97 126 -120 187 -128v-29h-217l-178 263h-29v-117c0 -100 13 -117 96 -117v-29h-316v29c83 0 95 17 95 117v308c0 100 -12 117 -95 117v29h335c124 0 202 -76 202 -169c0 -87 -68 -158 -177 -168zM313 308c87 0 128 55 128 123s-41 124 -128 124
h-55v-247h55z" />
    <glyph glyph-name="S" unicode="S" horiz-adv-x="507" 
d="M111 30c-12 -10 -24 -25 -29 -47h-29v220h30c19 -107 102 -175 184 -175c58 0 100 33 100 99c0 36 -27 77 -74 101l-95 50c-85 43 -136 90 -136 189c0 82 77 150 174 150c59 0 92 -19 122 -41c12 10 24 25 29 46h28v-220h-29c-7 80 -39 171 -144 171
c-41 0 -81 -30 -81 -80c0 -30 27 -75 80 -102l96 -49c71 -37 129 -98 129 -177c0 -109 -96 -182 -199 -182c-76 0 -124 40 -156 47z" />
    <glyph glyph-name="T" unicode="T" horiz-adv-x="642" 
d="M625 600l8 -141h-29l-5 20c-13 53 -24 76 -116 76h-100v-409c0 -100 13 -117 96 -117v-29h-316v29c83 0 95 17 95 117v409h-100c-91 0 -102 -23 -115 -76l-5 -20h-30l9 141h608z" />
    <glyph glyph-name="U" unicode="U" horiz-adv-x="733" 
d="M554 454c0 100 -12 117 -96 117v29h245v-29c-83 0 -95 -17 -95 -117v-231c0 -157 -109 -240 -241 -240c-133 0 -240 83 -240 240v231c0 100 -13 117 -96 117v29h317v-29c-84 0 -96 -17 -96 -117v-220c0 -129 69 -189 155 -189s147 60 147 189v220z" />
    <glyph glyph-name="V" unicode="V" horiz-adv-x="625" 
d="M663 571c-69 0 -92 -17 -123 -88l-217 -500h-21l-218 500c-28 65 -42 88 -122 88v29h328v-29c-88 0 -98 -23 -75 -76l140 -325l141 325c23 54 8 76 -75 76v29h242v-29z" />
    <glyph glyph-name="W" unicode="W" horiz-adv-x="778" 
d="M820 571c-83 0 -97 -20 -119 -88l-162 -500h-21l-126 387l-124 -387h-21l-162 500c-22 69 -36 88 -119 88v29h316v-29c-84 0 -98 -18 -79 -76l91 -281l123 386h22l126 -387l92 282c17 54 1 76 -70 76v29h233v-29z" />
    <glyph glyph-name="X" unicode="X" horiz-adv-x="614" 
d="M359 348l145 -231c43 -66 74 -88 141 -88v-29h-335v29c77 0 88 21 54 76l-87 139l-114 -139c-39 -48 -30 -76 54 -76v-29h-246v29c62 0 99 32 144 88l136 167l-124 199c-41 63 -74 88 -140 88v29h334v-29c-72 0 -88 -21 -54 -76l67 -107l88 107c39 48 30 76 -54 76v29
h246v-29c-70 0 -95 -27 -144 -88z" />
    <glyph glyph-name="Y" unicode="Y" horiz-adv-x="633" 
d="M665 571c-83 0 -102 -23 -144 -88l-143 -216v-121c0 -100 12 -117 95 -117v-29h-312v29c83 0 96 17 96 117v118l-145 219c-47 71 -74 88 -145 88v29h339v-29c-70 0 -89 -23 -53 -76l112 -169l112 169c36 54 25 76 -54 76v29h242v-29z" />
    <glyph glyph-name="Z" unicode="Z" horiz-adv-x="592" 
d="M353 563h-157c-92 0 -103 -23 -116 -75l-5 -20h-21l9 132h443v-22l-313 -541h193c92 0 102 23 116 76l5 20h21l-9 -133h-476v24z" />
    <glyph glyph-name="bracketleft" unicode="[" horiz-adv-x="375" 
d="M336 -88h-219v766h219v-40h-104v-686h104v-40z" />
    <glyph glyph-name="backslash" unicode="\" horiz-adv-x="348" 
d="M14 601l49 19l271 -621l-49 -17z" />
    <glyph glyph-name="bracketright" unicode="]" horiz-adv-x="375" 
d="M258 -88h-219v40h104v686h-104v40h219v-766z" />
    <glyph glyph-name="asciicircum" unicode="^" horiz-adv-x="485" 
d="M460 296l-23 -16l-194 158l-195 -158l-23 16l218 321z" />
    <glyph glyph-name="underscore" unicode="_" horiz-adv-x="358" 
d="M359 -44h-360v44h360v-44z" />
    <glyph glyph-name="grave" unicode="`" horiz-adv-x="404" 
d="M270 490l-7 -9l-179 76c-11 6 -30 19 -30 39c0 16 12 37 37 37c22 0 36 -10 57 -30z" />
    <glyph glyph-name="a" unicode="a" horiz-adv-x="441" 
d="M427 26c-29 -22 -70 -37 -94 -37c-45 0 -70 22 -76 58c-56 -44 -81 -60 -126 -60c-48 0 -96 31 -96 84c0 85 91 122 222 142v1c0 74 -24 95 -65 95c-23 0 -54 -13 -54 -39c0 -27 -18 -43 -40 -43s-40 16 -40 43c0 50 73 80 146 80c111 0 158 -41 158 -136v-135
c0 -25 8 -38 21 -38c12 0 22 7 30 12zM257 88v85c-77 -20 -123 -40 -123 -90c0 -30 19 -40 39 -40c17 0 50 15 84 45z" />
    <glyph glyph-name="b" unicode="b" horiz-adv-x="502" 
d="M333 167c0 76 -23 136 -75 136c-34 0 -66 -36 -66 -88v-97c0 -51 32 -88 66 -88c52 0 75 61 75 137zM79 -8v454c0 100 -12 117 -79 117v29l192 25v-296c21 17 50 29 82 29c113 0 182 -82 182 -183s-69 -184 -182 -184c-51 0 -89 27 -113 65l-53 -56h-29z" />
    <glyph glyph-name="c" unicode="c" horiz-adv-x="405" 
d="M239 310c-53 0 -71 -60 -71 -152c0 -80 38 -126 102 -126c28 0 65 15 101 46l17 -29c-38 -41 -90 -66 -149 -66c-111 0 -193 75 -193 175c0 118 86 192 185 192c83 0 127 -43 127 -81c0 -16 -10 -42 -44 -42c-21 0 -39 18 -39 40c0 32 -18 43 -36 43z" />
    <glyph glyph-name="d" unicode="d" horiz-adv-x="510" 
d="M310 321v125c0 100 -12 117 -79 117v29l192 25v-463c0 -100 12 -116 79 -116v-30l-175 -25c-3 5 -6 21 -9 36c-23 -22 -54 -36 -90 -36c-113 0 -182 83 -182 184s69 183 182 183c32 0 61 -12 82 -29zM310 118v97c0 52 -32 88 -67 88c-51 0 -75 -60 -75 -136
s24 -137 75 -137c35 0 67 37 67 88z" />
    <glyph glyph-name="e" unicode="e" horiz-adv-x="433" 
d="M173 229h133c3 41 -18 73 -62 73c-36 0 -61 -25 -71 -73zM166 185c-8 -102 45 -149 98 -149c45 0 88 15 119 42l17 -29c-35 -37 -96 -66 -152 -66c-120 0 -202 83 -202 184c0 106 88 183 193 183c109 0 166 -96 144 -165h-217z" />
    <glyph glyph-name="f" unicode="f" horiz-adv-x="328" 
d="M401 529c0 -21 -13 -41 -38 -41c-60 0 -36 88 -90 88c-42 0 -55 -32 -55 -119v-124h101v-44h-101v-143c0 -100 13 -117 80 -117v-29h-271v29c66 0 79 17 79 117v143h-82v44h82v81c0 136 51 203 169 203c80 0 126 -50 126 -88z" />
    <glyph glyph-name="g" unicode="g" horiz-adv-x="425" 
d="M250 214c0 54 -17 95 -56 95c-38 0 -56 -41 -56 -95c0 -53 18 -95 56 -95c39 0 56 42 56 95zM113 45c0 -20 36 -21 106 -28c126 -14 170 -84 170 -141c0 -88 -86 -143 -191 -143c-182 0 -241 120 -116 182l19 -11c-85 -91 21 -128 87 -128c70 0 119 27 119 68
c0 34 -24 54 -149 68c-85 9 -125 40 -125 100c0 36 35 71 87 87c-43 19 -75 64 -75 115c0 75 68 136 149 136c40 0 76 -14 104 -38c17 22 53 38 74 38c96 0 87 -115 29 -101c-38 9 -18 54 -51 54c-7 0 -20 -5 -31 -16c19 -23 24 -43 24 -73c0 -68 -56 -129 -138 -136
c-49 -4 -92 -5 -92 -33z" />
    <glyph glyph-name="h" unicode="h" horiz-adv-x="542" 
d="M88 446c0 100 -13 117 -80 117v29l192 25v-321c27 32 64 54 118 54c90 0 145 -64 145 -149v-55c0 -100 12 -117 79 -117v-29h-231v29c25 0 39 17 39 117v42c0 65 -12 106 -62 106c-40 0 -88 -32 -88 -99v-49c0 -100 13 -117 79 -117v-29h-271v29c67 0 80 17 80 117v300z
" />
    <glyph glyph-name="i" unicode="i" horiz-adv-x="323" 
d="M306 0h-271v29c67 0 79 17 79 117v33c0 100 -12 117 -79 117v29l192 25v-204c0 -100 12 -117 79 -117v-29zM234 518c0 -35 -29 -65 -64 -65s-62 30 -62 65s27 64 62 64s64 -29 64 -64z" />
    <glyph glyph-name="j" unicode="j" horiz-adv-x="281" 
d="M206 -78c0 -133 -56 -189 -163 -189c-95 0 -145 57 -146 94c0 20 11 35 34 35c55 0 24 -88 96 -88c39 0 66 30 66 156v249c0 100 -12 117 -79 117v29l192 25v-428zM213 518c0 -35 -29 -65 -64 -65s-62 30 -62 65s27 64 62 64s64 -29 64 -64z" />
    <glyph glyph-name="k" unicode="k" horiz-adv-x="465" 
d="M200 198l76 54c34 24 18 52 -31 52v29h209v-29c-33 0 -60 -7 -96 -36l-76 -58l117 -141c28 -33 52 -40 76 -40v-29h-142l-133 159v-21c0 -88 13 -109 63 -109v-29h-255v29c67 0 80 17 80 117v300c0 100 -13 117 -80 117v29l192 25v-419z" />
    <glyph glyph-name="l" unicode="l" horiz-adv-x="304" 
d="M288 0h-271v29c66 0 79 17 79 117v300c0 100 -13 117 -79 117v29l191 25v-471c0 -100 13 -117 80 -117v-29z" />
    <glyph glyph-name="m" unicode="m" horiz-adv-x="828" 
d="M488 195v-49c0 -100 12 -117 79 -117v-29h-231v29c25 0 39 17 39 117v42c0 65 -11 106 -56 106c-40 0 -92 -32 -92 -99v-49c0 -100 13 -117 66 -117v-29h-258v29c67 0 79 17 79 117v33c0 100 -12 117 -79 117v29l175 25c5 -10 12 -36 14 -57c27 33 69 57 125 57
c60 0 102 -29 123 -74c36 49 79 74 138 74c90 0 138 -64 138 -149v-55c0 -100 13 -117 80 -117v-29h-231v29c25 0 39 17 39 117v42c0 65 -11 106 -56 106c-40 0 -92 -32 -92 -99z" />
    <glyph glyph-name="n" unicode="n" horiz-adv-x="583" 
d="M224 293c27 33 69 57 125 57c90 0 155 -64 155 -149v-55c0 -100 13 -117 79 -117v-29h-230v29c25 0 39 17 39 117v42c0 65 -17 106 -73 106c-40 0 -92 -32 -92 -99v-49c0 -100 12 -117 79 -117v-29h-271v29c67 0 79 17 79 117v33c0 100 -12 117 -79 117v29l175 25
c5 -10 12 -36 14 -57z" />
    <glyph glyph-name="o" unicode="o" horiz-adv-x="495" 
d="M449 167c0 -101 -91 -184 -201 -184c-111 0 -202 83 -202 184s91 183 202 183c110 0 201 -82 201 -183zM327 167c0 75 -25 136 -79 136c-55 0 -80 -61 -80 -136s25 -137 80 -137c54 0 79 62 79 137z" />
    <glyph glyph-name="p" unicode="p" horiz-adv-x="502" 
d="M333 167c0 76 -23 136 -75 136c-34 0 -66 -36 -66 -88v-97c0 -51 32 -88 66 -88c52 0 75 61 75 137zM192 -104c0 -100 12 -117 79 -117v-29h-271v29c67 0 79 17 79 117v283c0 100 -12 117 -79 117v29l175 25c3 -5 6 -21 9 -36c23 22 54 36 90 36c113 0 182 -82 182 -183
s-69 -184 -182 -184c-32 0 -61 12 -82 30v-117z" />
    <glyph glyph-name="q" unicode="q" horiz-adv-x="502" 
d="M310 118v97c0 52 -32 88 -67 88c-51 0 -75 -60 -75 -136s24 -137 75 -137c35 0 67 37 67 88zM423 -104c0 -100 12 -117 79 -117v-29h-271v29c67 0 79 17 79 117v117c-21 -18 -50 -30 -82 -30c-113 0 -182 83 -182 184s69 183 182 183c50 0 89 -27 113 -64l52 56h30v-446z
" />
    <glyph glyph-name="r" unicode="r" horiz-adv-x="423" 
d="M422 268c0 -25 -17 -60 -54 -60c-51 0 -25 66 -80 66c-28 0 -61 -26 -61 -107v-21c0 -100 12 -117 79 -117v-29h-271v29c67 0 79 17 79 117v33c0 100 -12 117 -79 117v29l175 25c5 -10 14 -51 17 -72c21 40 66 72 106 72c68 0 89 -46 89 -82z" />
    <glyph glyph-name="s" unicode="s" horiz-adv-x="383" 
d="M341 96c0 -80 -71 -113 -136 -113c-83 0 -123 71 -123 0h-29v146h29c0 -45 56 -104 121 -104c33 0 53 16 53 39c0 24 -23 39 -64 59l-56 25c-52 24 -75 65 -75 102c0 75 67 100 118 100c75 0 108 -41 108 0h29v-116h-29c0 42 -50 76 -92 76c-27 0 -49 -13 -49 -34
c0 -23 20 -33 69 -55l48 -23c51 -23 78 -63 78 -102z" />
    <glyph glyph-name="t" unicode="t" horiz-adv-x="319" 
d="M81 289h-53v33c60 13 125 72 131 137h34v-126h87v-44h-87v-174c0 -47 14 -72 45 -72c19 0 40 9 68 29l14 -29c-32 -30 -88 -57 -122 -57c-73 0 -117 45 -117 122v181z" />
    <glyph glyph-name="u" unicode="u" horiz-adv-x="548" 
d="M548 8l-175 -25c-5 10 -11 36 -14 58c-26 -33 -69 -58 -125 -58c-90 0 -155 65 -155 150v55c0 100 -12 116 -79 116v29h192v-187c0 -65 16 -107 72 -107c40 0 93 33 93 99v50c0 100 -13 116 -79 116v29h191v-179c0 -100 13 -116 79 -116v-30z" />
    <glyph glyph-name="v" unicode="v" horiz-adv-x="384" 
d="M226 125l60 129c17 36 8 50 -29 50v29h148v-29c-35 0 -54 -13 -71 -50l-126 -272h-28l-134 272c-18 38 -35 50 -67 50v29h219v-29c-42 0 -49 -16 -33 -50z" />
    <glyph glyph-name="w" unicode="w" horiz-adv-x="543" 
d="M274 175l-82 -193h-20l-118 272c-17 41 -33 50 -68 50v29h211v-29c-43 0 -49 -12 -32 -50l48 -105l79 184h24l86 -184l42 105c15 37 10 50 -27 50v29h148v-29c-35 0 -56 -9 -72 -50l-110 -272h-20z" />
    <glyph glyph-name="x" unicode="x" horiz-adv-x="415" 
d="M182 118l-37 -39c-34 -35 -26 -50 17 -50v-29h-159v29c24 0 50 9 88 50l67 70l-81 105c-32 41 -55 50 -88 50v29h235v-29c-42 0 -49 -11 -21 -50l24 -31l30 31c34 36 26 50 -13 50v29h163v-29c-28 0 -59 -10 -96 -50l-59 -62l86 -113c33 -41 55 -50 96 -50v-29h-247v29
c49 0 50 19 25 50z" />
    <glyph glyph-name="y" unicode="y" horiz-adv-x="379" 
d="M128 -233c-8 -20 -21 -37 -37 -37c-14 0 -40 7 -40 37c0 38 44 35 76 113l43 106l-120 268c-16 36 -36 50 -67 50v29h220v-29c-43 0 -50 -13 -34 -50l59 -130l54 130c15 36 8 50 -29 50v29h148v-29c-35 0 -56 -14 -71 -50z" />
    <glyph glyph-name="z" unicode="z" horiz-adv-x="375" 
d="M326 333v-16l-149 -277h19c92 0 105 20 115 59l5 20h21l-8 -119h-290v17l149 276h-5c-92 0 -105 -20 -115 -59l-5 -20h-21l7 119h277z" />
    <glyph glyph-name="braceleft" unicode="{" horiz-adv-x="375" 
d="M42 304c58 20 96 31 96 174c0 140 98 175 185 225l23 -30c-76 -51 -94 -78 -94 -193c0 -145 -52 -167 -123 -184c71 -17 123 -39 123 -184c0 -115 18 -142 94 -194l-23 -29c-87 50 -185 84 -185 225c0 143 -38 154 -96 174v16z" />
    <glyph glyph-name="bar" unicode="|" horiz-adv-x="274" 
d="M111 686h52v-782h-52v782z" />
    <glyph glyph-name="braceright" unicode="}" horiz-adv-x="375" 
d="M333 288c-58 -20 -95 -31 -95 -174c0 -141 -99 -175 -186 -225l-23 29c76 52 94 79 94 194c0 145 52 167 123 184c-71 17 -123 39 -123 184c0 115 -18 142 -94 193l23 30c87 -50 186 -85 186 -225c0 -143 37 -154 95 -174v-16z" />
    <glyph glyph-name="asciitilde" unicode="~" horiz-adv-x="423" 
d="M298 222c30 0 48 15 58 54h21c0 -100 -33 -153 -92 -153c-47 0 -125 65 -164 65c-24 0 -48 -21 -56 -54h-21c0 94 35 151 86 151c53 0 120 -63 168 -63z" />
    <glyph glyph-name="Euro" unicode="&#x20ac;" horiz-adv-x="642" 
d="M223 336c-1 -12 -1 -24 -1 -36v-36h201v-58h-196c12 -93 53 -175 139 -175c98 0 147 72 174 200h29v-220h-28c-6 24 -10 48 -23 57c-36 -52 -86 -85 -156 -85c-122 0 -226 94 -259 223h-70v58h59c0 12 -1 24 -1 36s1 24 2 36h-60v58h70c33 129 136 223 259 223
c64 0 121 -30 156 -85c13 10 17 32 23 57h28v-220h-29c-27 130 -76 200 -174 200c-89 0 -127 -82 -139 -175h196v-58h-200z" />
    <glyph glyph-name="quotesinglbase" unicode="&#x201a;" horiz-adv-x="251" 
d="M82 -139l-20 20c36 37 59 74 65 111h-5c-35 0 -63 29 -63 64s28 64 63 64s72 -27 72 -78c0 -59 -37 -134 -112 -181z" />
    <glyph glyph-name="florin" unicode="&#x192;" horiz-adv-x="337" 
d="M223 -78c0 -133 -56 -189 -164 -189c-94 0 -144 57 -145 94c-1 20 11 35 33 35c56 0 25 -88 96 -88c40 0 67 30 67 156v359h-82v44h82v81c0 136 51 203 169 203c80 0 126 -50 126 -88c0 -21 -13 -41 -38 -41c-60 0 -36 88 -90 88c-42 0 -54 -32 -54 -119v-124h100v-44
h-100v-367z" />
    <glyph glyph-name="quotedblbase" unicode="&#x201e;" horiz-adv-x="434" 
d="M82 -139l-20 20c36 37 59 74 65 111h-5c-35 0 -63 29 -63 64s28 64 63 64s72 -27 72 -78c0 -59 -37 -134 -112 -181zM265 -139l-20 20c36 37 59 74 65 111h-5c-35 0 -62 29 -62 64s27 64 62 64s73 -27 73 -78c0 -59 -38 -134 -113 -181z" />
    <glyph glyph-name="ellipsis" unicode="&#x2026;" horiz-adv-x="896" 
d="M149 120c36 0 64 -28 64 -64s-28 -64 -64 -64s-64 28 -64 64s28 64 64 64zM441 120c36 0 64 -28 64 -64s-28 -64 -64 -64s-64 28 -64 64s28 64 64 64zM733 120c35 0 64 -28 64 -64s-29 -64 -64 -64c-36 0 -65 28 -65 64s29 64 65 64z" />
    <glyph glyph-name="dagger" unicode="&#x2020;" horiz-adv-x="448" 
d="M240 388l54 -181l-62 -394h-16l-62 394l54 182l-110 -36c-33 -10 -69 20 -69 55s36 65 69 55l112 -37l-41 122c-10 34 20 69 55 69s65 -35 55 -69l-41 -122l111 37c34 10 69 -20 69 -55s-35 -65 -69 -55z" />
    <glyph glyph-name="daggerdbl" unicode="&#x2021;" horiz-adv-x="448" 
d="M418 23c0 -34 -35 -66 -69 -56l-111 38l41 -123c10 -32 -20 -68 -55 -68s-65 36 -55 68l41 123l-112 -38c-33 -10 -69 22 -69 56c0 35 36 65 69 55l110 -36l-56 173l56 174l-110 -37c-33 -9 -69 21 -69 56c0 34 36 65 69 55l112 -38l-41 123c-10 33 20 69 55 69
s65 -36 55 -69l-41 -123l111 38c34 10 69 -21 69 -55c0 -35 -35 -65 -69 -56l-109 36l56 -172l-56 -173l109 35c34 10 69 -20 69 -55z" />
    <glyph glyph-name="circumflex" unicode="&#x2c6;" horiz-adv-x="342" 
d="M323 536l-15 -14l-128 83l-128 -83l-15 14l143 155z" />
    <glyph glyph-name="perthousand" unicode="&#x2030;" horiz-adv-x="1133" 
d="M372 473c0 -78 -74 -143 -164 -143s-165 65 -165 143c0 79 75 144 165 144s164 -65 164 -144zM273 473c0 49 -20 105 -65 105s-66 -56 -66 -105c0 -48 21 -105 66 -105s65 57 65 105zM587 598l-369 -616l-40 21l370 617zM719 128c0 -79 -74 -144 -164 -144
s-164 65 -164 144c0 78 74 143 164 143s164 -65 164 -143zM621 128c0 48 -21 105 -66 105s-66 -57 -66 -105c0 -49 21 -105 66 -105s66 56 66 105zM1090 128c0 -79 -74 -144 -164 -144s-164 65 -164 144c0 78 74 143 164 143s164 -65 164 -143zM992 128
c0 48 -21 105 -66 105s-66 -57 -66 -105c0 -49 21 -105 66 -105s66 56 66 105z" />
    <glyph glyph-name="Scaron" unicode="&#x160;" horiz-adv-x="507" 
d="M111 30c-12 -10 -24 -25 -29 -47h-29v220h30c19 -107 102 -175 184 -175c58 0 100 33 100 99c0 36 -27 77 -74 101l-95 50c-85 43 -136 90 -136 189c0 82 77 150 174 150c59 0 92 -19 122 -41c12 10 24 25 29 46h28v-220h-29c-7 80 -39 171 -144 171
c-41 0 -81 -30 -81 -80c0 -30 27 -75 80 -102l96 -49c71 -37 129 -98 129 -177c0 -109 -96 -182 -199 -182c-76 0 -124 40 -156 47zM393 829l-143 -155l-143 155l15 14l128 -83l128 83z" />
    <glyph glyph-name="guilsinglleft" unicode="&#x2039;" horiz-adv-x="367" 
d="M333 28l-16 -21l-270 196l270 195l16 -20l-144 -175z" />
    <glyph glyph-name="OE" unicode="&#x152;" horiz-adv-x="998" 
d="M491 62v476c-27 20 -60 31 -99 31c-142 0 -199 -148 -199 -269s57 -269 199 -269c39 0 72 12 99 31zM498 600h411l9 -141h-30l-5 20c-12 51 -24 76 -115 76h-153v-215h54c100 0 117 13 117 96h29v-237h-29c0 84 -17 96 -117 96h-54v-133c0 -100 13 -117 96 -117h90
c92 0 103 25 116 76l5 20h29l-8 -141h-445c-33 -11 -69 -17 -106 -17c-184 0 -334 143 -334 317s150 317 334 317c37 0 73 -6 106 -17z" />
    <glyph glyph-name="quoteleft" unicode="&#x2018;" horiz-adv-x="251" 
d="M192 424c0 -35 -28 -64 -63 -64s-72 27 -72 78c0 59 37 134 112 181l20 -20c-36 -37 -59 -74 -65 -111h5c35 0 63 -29 63 -64z" />
    <glyph glyph-name="quoteright" unicode="&#x2019;" horiz-adv-x="251" 
d="M82 358l-20 20c36 37 59 74 65 110h-5c-35 0 -63 30 -63 65s28 64 63 64s72 -27 72 -79c0 -58 -37 -133 -112 -180z" />
    <glyph glyph-name="quotedblleft" unicode="&#x201c;" horiz-adv-x="434" 
d="M375 424c0 -35 -27 -64 -62 -64s-73 27 -73 78c0 59 38 134 113 181l20 -20c-36 -37 -60 -74 -65 -111h5c35 0 62 -29 62 -64zM192 424c0 -35 -28 -64 -63 -64s-72 27 -72 78c0 59 37 134 112 181l20 -20c-36 -37 -59 -74 -65 -111h5c35 0 63 -29 63 -64z" />
    <glyph glyph-name="quotedblright" unicode="&#x201d;" horiz-adv-x="434" 
d="M82 358l-20 20c36 37 59 74 65 110h-5c-35 0 -63 30 -63 65s28 64 63 64s72 -27 72 -79c0 -58 -37 -133 -112 -180zM265 358l-20 20c36 37 59 74 65 110h-5c-35 0 -62 30 -62 65s27 64 62 64s73 -27 73 -79c0 -58 -38 -133 -113 -180z" />
    <glyph glyph-name="bullet" unicode="&#x2022;" horiz-adv-x="303" 
d="M152 366c55 0 100 -45 100 -100s-45 -100 -100 -100s-100 45 -100 100s45 100 100 100z" />
    <glyph glyph-name="endash" unicode="&#x2013;" horiz-adv-x="525" 
d="M525 166h-526v77h526v-77z" />
    <glyph glyph-name="emdash" unicode="&#x2014;" horiz-adv-x="667" 
d="M667 166h-668v77h668v-77z" />
    <glyph glyph-name="tilde" unicode="&#x2dc;" horiz-adv-x="300" 
d="M232 603c26 0 43 21 51 57h20c0 -75 -33 -119 -83 -119c-42 0 -112 66 -147 66c-22 0 -43 -25 -51 -55h-19c0 69 35 117 78 117c47 0 107 -66 151 -66z" />
    <glyph glyph-name="trademark" unicode="&#x2122;" horiz-adv-x="973" 
d="M168 559h-17c-79 0 -91 -16 -100 -55l-4 -17h-26l6 113h384l7 -113h-27l-3 17c-9 42 -21 55 -100 55h-16v-206c0 -87 11 -101 69 -101v-26h-243v26c58 0 70 14 70 101v206zM568 498v-145c0 -87 10 -101 67 -101v-26h-177v26c58 0 69 14 69 101v121c0 86 -11 100 -69 100
v26h163l104 -243l105 243h140v-26c-57 0 -67 -14 -67 -100v-121c0 -87 10 -101 67 -101v-26h-217v26c57 0 68 14 68 101v133l-118 -274h-12z" />
    <glyph glyph-name="scaron" unicode="&#x161;" horiz-adv-x="383" 
d="M341 96c0 -80 -71 -113 -136 -113c-83 0 -123 71 -123 0h-29v146h29c0 -45 56 -104 121 -104c33 0 53 16 53 39c0 24 -23 39 -64 59l-56 25c-52 24 -75 65 -75 102c0 75 67 100 118 100c75 0 108 -41 108 0h29v-116h-29c0 42 -50 76 -92 76c-27 0 -49 -13 -49 -34
c0 -23 20 -33 69 -55l48 -23c51 -23 78 -63 78 -102zM344 563l-143 -155l-143 155l15 14l128 -84l128 84z" />
    <glyph glyph-name="guilsinglright" unicode="&#x203a;" horiz-adv-x="367" 
d="M35 28l143 175l-143 175l16 20l270 -195l-270 -196z" />
    <glyph glyph-name="oe" unicode="&#x153;" horiz-adv-x="720" 
d="M459 229h134c3 41 -19 73 -62 73c-37 0 -61 -25 -72 -73zM331 167c0 75 -25 136 -79 136s-79 -61 -79 -136s25 -137 79 -137s79 62 79 137zM391 35c-36 -32 -85 -52 -139 -52c-111 0 -202 83 -202 184s91 183 202 183c54 0 102 -19 139 -51c35 32 83 51 135 51
c109 0 166 -96 144 -165h-217c-8 -102 45 -149 98 -149c45 0 87 15 118 42l18 -29c-35 -37 -96 -66 -153 -66c-58 0 -107 20 -143 52z" />
    <glyph glyph-name="Ydieresis" unicode="&#x178;" horiz-adv-x="633" 
d="M665 571c-83 0 -102 -23 -144 -88l-143 -216v-121c0 -100 12 -117 95 -117v-29h-312v29c83 0 96 17 96 117v118l-145 219c-47 71 -74 88 -145 88v29h339v-29c-70 0 -89 -23 -53 -76l112 -169l112 169c36 54 25 76 -54 76v29h242v-29zM433 776c29 0 51 -23 51 -51
s-22 -51 -51 -51c-28 0 -50 23 -50 51s22 51 50 51zM234 776c29 0 51 -23 51 -51s-22 -51 -51 -51c-27 0 -51 23 -51 51s24 51 51 51z" />
    <glyph glyph-name="exclamdown" unicode="&#xa1;" horiz-adv-x="329" 
d="M243 -109c0 -41 -36 -77 -78 -77s-75 36 -75 77c0 96 50 98 58 347h34c8 -249 61 -251 61 -347zM223 382c0 -32 -26 -58 -58 -58s-56 26 -56 58c0 31 24 57 56 57s58 -26 58 -57z" />
    <glyph glyph-name="cent" unicode="&#xa2;" horiz-adv-x="463" 
d="M281 448c66 -9 107 -46 107 -79c0 -16 -10 -42 -45 -42c-21 0 -39 18 -39 40c0 25 -11 36 -23 41v-275c6 -1 12 -1 18 -1c28 0 65 15 101 46l18 -29c-35 -36 -85 -60 -137 -65c0 1 0 -167 0 -167h-46v168c-99 10 -177 80 -177 173c0 111 85 184 177 191v168h46v-169z
M235 401c-34 -20 -54 -72 -54 -143c0 -50 22 -88 54 -108v251z" />
    <glyph glyph-name="sterling" unicode="&#xa3;" horiz-adv-x="513" 
d="M357 45c91 0 102 23 116 76l5 20h29l-9 -141h-467v29c67 0 79 17 79 117v143h-82v44h82v81c0 136 51 203 169 203c80 0 126 -50 126 -88c0 -21 -13 -41 -38 -41c-60 0 -36 88 -90 88c-42 0 -54 -32 -54 -119v-124h142v-44h-142v-127c0 -100 12 -117 79 -117h55z" />
    <glyph glyph-name="currency" unicode="&#xa4;" horiz-adv-x="642" 
d="M223 336c-1 -12 -1 -24 -1 -36v-36h201v-58h-196c12 -93 53 -175 139 -175c98 0 147 72 174 200h29v-220h-28c-6 24 -10 48 -23 57c-36 -52 -86 -85 -156 -85c-122 0 -226 94 -259 223h-70v58h59c0 12 -1 24 -1 36s1 24 2 36h-60v58h70c33 129 136 223 259 223
c64 0 121 -30 156 -85c13 10 17 32 23 57h28v-220h-29c-27 130 -76 200 -174 200c-89 0 -127 -82 -139 -175h196v-58h-200z" />
    <glyph glyph-name="yen" unicode="&#xa5;" horiz-adv-x="633" 
d="M378 255v-67h130v-56h-130c1 -88 16 -103 95 -103v-29h-312v29c79 0 94 15 96 103h-134v56h134v67h-134v57h102l-113 171c-47 71 -74 88 -145 88v29h339v-29c-70 0 -89 -23 -53 -76l112 -169l112 169c36 54 25 76 -54 76v29h242v-29c-83 0 -102 -23 -144 -88l-114 -171
h101v-57h-130z" />
    <glyph glyph-name="brokenbar" unicode="&#xa6;" horiz-adv-x="274" 
d="M111 686h52v-337h-52v337zM111 241h52v-337h-52v337z" />
    <glyph glyph-name="section" unicode="&#xa7;" horiz-adv-x="498" 
d="M171 327c-18 -14 -30 -38 -30 -70c0 -33 24 -70 66 -92l94 -48c8 -4 17 -9 25 -14c18 15 30 38 30 70c0 33 -24 70 -66 92l-94 48c-8 5 -17 10 -25 14zM368 74c35 -29 55 -65 55 -119c0 -74 -61 -142 -158 -142c-59 0 -92 19 -122 41c-12 -10 -24 -25 -29 -46h-28v220h29
c7 -80 39 -171 144 -171c41 0 75 29 75 74c0 26 -24 68 -71 92l-87 45c-63 32 -116 87 -116 159c0 55 28 101 68 129c-35 29 -55 65 -55 119c0 74 62 142 159 142c59 0 88 -22 106 -41c11 10 23 25 28 46h28v-195h-29c-8 86 -41 146 -127 146c-41 0 -75 -29 -75 -74
c0 -26 24 -68 71 -92l87 -44c63 -33 116 -88 116 -160c0 -55 -28 -100 -69 -129z" />
    <glyph glyph-name="dieresis" unicode="&#xa8;" horiz-adv-x="370" 
d="M270 685c28 0 51 -22 51 -51c0 -28 -23 -51 -51 -51s-51 23 -51 51c0 29 23 51 51 51zM71 685c28 0 51 -22 51 -51c0 -28 -23 -51 -51 -51s-51 23 -51 51c0 29 23 51 51 51z" />
    <glyph glyph-name="copyright" unicode="&#xa9;" horiz-adv-x="683" 
d="M342 617c175 0 316 -142 316 -317s-141 -317 -316 -317s-317 142 -317 317s142 317 317 317zM342 571c-150 0 -271 -121 -271 -271s121 -271 271 -271s271 121 271 271s-121 271 -271 271zM497 124h-23c-2 15 -9 34 -14 40c-25 -30 -76 -53 -115 -53
c-100 0 -182 85 -182 189c0 103 82 189 182 189c39 0 90 -23 115 -53c5 6 12 26 14 40h23v-141h-24c-15 76 -51 116 -105 116c-69 0 -100 -68 -100 -151c0 -85 31 -151 100 -151c54 0 90 41 105 117h24v-142z" />
    <glyph glyph-name="ordfeminine" unicode="&#xaa;" horiz-adv-x="449" 
d="M422 309c-29 -21 -67 -35 -89 -35c-43 0 -67 21 -73 54c-53 -40 -77 -55 -120 -55c-46 0 -91 29 -91 79c0 81 87 116 211 135v1c0 70 -22 90 -62 90c-21 0 -51 -13 -51 -37c0 -25 -17 -41 -39 -41c-20 0 -36 16 -36 41c0 47 68 76 138 76c105 0 149 -39 149 -129v-129
c0 -23 9 -36 21 -36c11 0 21 6 28 12zM260 368v81c-73 -20 -117 -38 -117 -86c0 -28 19 -37 38 -37c16 0 47 13 79 42z" />
    <glyph glyph-name="guillemotleft" unicode="&#xab;" horiz-adv-x="533" 
d="M332 28l-16 -21l-270 196l270 195l16 -20l-144 -175zM493 68l-15 -22l-220 157l220 156l15 -21l-111 -135z" />
    <glyph glyph-name="logicalnot" unicode="&#xac;" horiz-adv-x="570" 
d="M459 295v-180h-77v103h-299v77h376z" />
    <glyph glyph-name="registered" unicode="&#xae;" horiz-adv-x="512" 
d="M256 617c128 0 232 -103 232 -231s-104 -231 -232 -231s-231 103 -231 231s103 231 231 231zM299 444c0 28 -19 46 -40 46h-20v-92h20c21 0 40 18 40 46zM426 279c19 32 31 68 31 107c0 111 -90 201 -201 201s-201 -90 -201 -201s90 -201 201 -201c62 0 118 28 155 73
h-81l-79 112h-12v-24c0 -60 8 -69 48 -69v-19h-160v19c40 0 47 9 47 69v85c0 59 -7 69 -47 69v18h151c55 0 90 -32 90 -74c0 -37 -26 -61 -58 -70l42 -41c28 -29 51 -47 74 -54z" />
    <glyph glyph-name="macron" unicode="&#xaf;" horiz-adv-x="310" 
d="M259 603h-210v35h210v-35z" />
    <glyph glyph-name="macron" unicode="&#x2c9;" horiz-adv-x="310" 
d="M259 603h-210v35h210v-35z" />
    <glyph glyph-name="degree" unicode="&#xb0;" horiz-adv-x="400" 
d="M199 601c83 0 150 -68 150 -150c0 -83 -67 -150 -150 -150c-82 0 -150 67 -150 150c0 82 68 150 150 150zM199 530c-43 0 -79 -36 -79 -79s36 -79 79 -79c44 0 79 36 79 79s-35 79 -79 79z" />
    <glyph glyph-name="plusminus" unicode="&#xb1;" 
d="M190 61v122h-140v77h140v140h78v-140h140v-77h-140v-122h140v-61h-358v61h140z" />
    <glyph glyph-name="twosuperior" unicode="&#xb2;" horiz-adv-x="336" 
d="M300 352l-9 -65h-250v22l132 127c26 25 35 46 35 73c0 39 -20 62 -63 62c-39 0 -77 -37 -42 -97l-27 -25c-80 55 -34 168 80 168c68 0 134 -38 134 -99c0 -47 -27 -80 -60 -104l-89 -62h159z" />
    <glyph glyph-name="threesuperior" unicode="&#xb3;" horiz-adv-x="336" 
d="M306 378c0 -58 -53 -108 -144 -108c-100 0 -145 87 -89 87c30 0 20 -52 89 -52c45 0 61 36 61 73c0 35 -25 57 -57 65c-4 -5 -8 -10 -16 -23c-21 -36 -58 -7 -33 19l77 79h-56c-30 0 -56 -7 -63 -37l-5 -18h-22l18 137h232v-23l-90 -87c50 -13 98 -67 98 -112z" />
    <glyph glyph-name="acute" unicode="&#xb4;" horiz-adv-x="227" 
d="M196 668c0 -20 -19 -34 -30 -40l-179 -75l-6 9l121 113c21 19 36 30 57 30c25 0 37 -22 37 -37z" />
    <glyph glyph-name="mu" unicode="&#xb5;" horiz-adv-x="557" 
d="M83 188c0 100 -12 116 -79 116v29h192v-187c0 -65 17 -107 72 -107c40 0 93 33 93 99v50c0 100 -13 116 -79 116v29h191v-179c0 -100 13 -116 80 -116v-30l-175 -25c-5 10 -12 36 -15 58c-26 -33 -69 -58 -125 -58c-15 0 -29 2 -42 5v-12c0 -100 12 -117 79 -117v-29
h-271v29c67 0 79 17 79 117v212z" />
    <glyph glyph-name="mu" unicode="&#x3bc;" horiz-adv-x="557" 
d="M83 188c0 100 -12 116 -79 116v29h192v-187c0 -65 17 -107 72 -107c40 0 93 33 93 99v50c0 100 -13 116 -79 116v29h191v-179c0 -100 13 -116 80 -116v-30l-175 -25c-5 10 -12 36 -15 58c-26 -33 -69 -58 -125 -58c-15 0 -29 2 -42 5v-12c0 -100 12 -117 79 -117v-29
h-271v29c67 0 79 17 79 117v212z" />
    <glyph glyph-name="paragraph" unicode="&#xb6;" horiz-adv-x="563" 
d="M504 600v-29c-83 0 -96 -17 -96 -117v-478c0 -100 13 -117 96 -117v-29h-157v718h-84v-718h-157v29c83 0 96 17 96 117v286c-85 9 -152 81 -152 168c0 93 77 170 170 170h284z" />
    <glyph glyph-name="periodcentered" unicode="&#xb7;" horiz-adv-x="283" 
d="M142 270c36 0 63 -28 63 -64s-27 -64 -63 -64s-64 28 -64 64s28 64 64 64z" />
    <glyph glyph-name="periodcentered" unicode="&#x2219;" horiz-adv-x="283" 
d="M142 270c36 0 63 -28 63 -64s-27 -64 -63 -64s-64 28 -64 64s28 64 64 64z" />
    <glyph glyph-name="cedilla" unicode="&#xb8;" horiz-adv-x="218" 
d="M227 -136c0 -95 -149 -127 -190 -133v36c32 10 111 35 111 97c0 43 -68 63 -132 43v18l141 140h58l-97 -99c45 -2 109 -31 109 -102z" />
    <glyph glyph-name="onesuperior" unicode="&#xb9;" horiz-adv-x="336" 
d="M272 291h-205v27c45 0 54 13 54 80v93c0 67 -17 77 -67 75v27l163 23v-218c0 -67 9 -80 55 -80v-27z" />
    <glyph glyph-name="ordmasculine" unicode="&#xba;" horiz-adv-x="503" 
d="M443 443c0 -96 -86 -175 -191 -175s-192 79 -192 175c0 95 87 174 192 174s191 -79 191 -174zM327 443c0 70 -24 130 -75 130c-52 0 -75 -60 -75 -130c0 -71 23 -130 75 -130c51 0 75 59 75 130z" />
    <glyph glyph-name="guillemotright" unicode="&#xbb;" horiz-adv-x="533" 
d="M202 28l143 175l-143 175l16 20l270 -195l-270 -196zM41 68l111 135l-111 135l14 21l220 -156l-220 -157z" />
    <glyph glyph-name="onequarter" unicode="&#xbc;" horiz-adv-x="755" 
d="M715 203l-6 -110h-80c0 -52 9 -63 57 -63v-30h-207v30c49 0 58 11 58 63h-138v25l195 221h35v-205c28 1 42 10 53 52l4 17h29zM537 134v86l-76 -86h76zM573 598l-370 -616l-39 21l369 617zM272 291h-205v27c45 0 54 13 54 80v93c0 67 -17 77 -67 75v27l163 23v-218
c0 -67 9 -80 55 -80v-27z" />
    <glyph glyph-name="onehalf" unicode="&#xbd;" horiz-adv-x="755" 
d="M573 598l-370 -616l-39 21l369 617zM272 291h-205v27c45 0 54 13 54 80v93c0 67 -17 77 -67 75v27l163 23v-218c0 -67 9 -80 55 -80v-27zM708 65l-9 -65h-250v23l133 126c26 25 35 46 35 74c0 38 -20 61 -64 61c-39 0 -76 -36 -42 -96l-27 -25c-80 55 -34 167 80 167
c69 0 134 -37 134 -99c0 -47 -26 -80 -60 -103l-89 -63h159z" />
    <glyph glyph-name="threequarters" unicode="&#xbe;" horiz-adv-x="755" 
d="M306 378c0 -58 -53 -108 -144 -108c-100 0 -145 87 -89 87c30 0 20 -52 89 -52c45 0 61 36 61 73c0 35 -25 57 -57 65c-4 -5 -8 -10 -16 -23c-21 -36 -58 -7 -33 19l77 79h-56c-30 0 -56 -7 -63 -37l-5 -18h-22l18 137h232v-23l-90 -87c50 -13 98 -67 98 -112zM715 203
l-6 -110h-80c0 -52 9 -63 57 -63v-30h-207v30c49 0 58 11 58 63h-138v25l195 221h35v-205c28 1 42 10 53 52l4 17h29zM537 134v86l-76 -86h76zM585 598l-369 -616l-39 21l369 617z" />
    <glyph glyph-name="questiondown" unicode="&#xbf;" horiz-adv-x="513" 
d="M463 -71c0 -75 -93 -116 -163 -116c-145 0 -224 99 -224 178c0 125 98 195 224 210v54h44v-174c-111 0 -193 -44 -193 -119c0 -55 60 -109 148 -109c61 0 92 29 92 45c0 12 -9 23 -34 23c-24 0 -44 19 -44 42c0 38 42 52 64 52c34 0 86 -21 86 -86zM379 382
c0 -32 -26 -58 -57 -58c-32 0 -56 26 -56 58c0 31 24 57 56 57c31 0 57 -26 57 -57z" />
    <glyph glyph-name="Agrave" unicode="&#xc0;" horiz-adv-x="625" 
d="M170 200l-41 -95c-23 -54 -8 -76 75 -76v-29h-242v29c69 0 92 17 123 88l217 500h21l218 -500c28 -64 42 -88 122 -88v-29h-328v29c88 0 98 23 75 76l-42 95h-198zM349 245l-80 183l-79 -183h159zM381 682l-7 -9l-179 75c-11 6 -30 20 -30 40c0 15 12 37 37 37
c21 0 36 -11 57 -30z" />
    <glyph glyph-name="Aacute" unicode="&#xc1;" horiz-adv-x="625" 
d="M170 200l-41 -95c-23 -54 -8 -76 75 -76v-29h-242v29c69 0 92 17 123 88l217 500h21l218 -500c28 -64 42 -88 122 -88v-29h-328v29c88 0 98 23 75 76l-42 95h-198zM349 245l-80 183l-79 -183h159zM447 788c0 -20 -19 -34 -30 -40l-179 -75l-6 9l121 113
c21 19 35 30 57 30c25 0 37 -22 37 -37z" />
    <glyph glyph-name="Acircumflex" unicode="&#xc2;" horiz-adv-x="625" 
d="M170 200l-41 -95c-23 -54 -8 -76 75 -76v-29h-242v29c69 0 92 17 123 88l217 500h21l218 -500c28 -64 42 -88 122 -88v-29h-328v29c88 0 98 23 75 76l-42 95h-198zM349 245l-80 183l-79 -183h159zM454 689l-15 -14l-128 83l-128 -83l-15 14l143 155z" />
    <glyph glyph-name="Atilde" unicode="&#xc3;" horiz-adv-x="625" 
d="M170 200l-41 -95c-23 -54 -8 -76 75 -76v-29h-242v29c69 0 92 17 123 88l217 500h21l218 -500c28 -64 42 -88 122 -88v-29h-328v29c88 0 98 23 75 76l-42 95h-198zM349 245l-80 183l-79 -183h159zM389 731c27 0 44 21 52 57h19c0 -75 -32 -120 -82 -120
c-43 0 -113 66 -148 66c-22 0 -42 -25 -51 -55h-18c0 69 35 118 77 118c48 0 108 -66 151 -66z" />
    <glyph glyph-name="Adieresis" unicode="&#xc4;" horiz-adv-x="625" 
d="M170 200l-41 -95c-23 -54 -8 -76 75 -76v-29h-242v29c69 0 92 17 123 88l217 500h21l218 -500c28 -64 42 -88 122 -88v-29h-328v29c88 0 98 23 75 76l-42 95h-198zM349 245l-80 183l-79 -183h159zM409 776c29 0 51 -23 51 -51s-22 -51 -51 -51c-28 0 -51 23 -51 51
s23 51 51 51zM210 776c28 0 51 -23 51 -51s-23 -51 -51 -51c-27 0 -51 23 -51 51s24 51 51 51z" />
    <glyph glyph-name="Aring" unicode="&#xc5;" horiz-adv-x="625" 
d="M308 873c55 0 100 -44 100 -99s-45 -99 -100 -99s-99 44 -99 99s44 99 99 99zM308 820c-25 0 -45 -21 -45 -46s20 -46 45 -46s46 21 46 46s-21 46 -46 46zM170 200l-41 -95c-23 -54 -8 -76 75 -76v-29h-242v29c69 0 92 17 123 88l217 500h21l218 -500
c28 -64 42 -88 122 -88v-29h-328v29c88 0 98 23 75 76l-42 95h-198zM349 245l-80 183l-79 -183h159z" />
    <glyph glyph-name="AE" unicode="&#xc6;" horiz-adv-x="818" 
d="M358 547l-135 -261h135v261zM728 600l8 -141h-29l-5 20c-14 53 -24 76 -116 76h-103v-269h5c100 0 116 12 116 96h29v-237h-29c0 83 -16 96 -116 96h-5v-79c0 -100 13 -117 96 -117h40c92 0 103 23 116 76l5 20h29l-8 -141h-498v29c83 0 95 17 95 117v95h-158l-74 -144
c-28 -54 -13 -68 62 -68v-29h-242v29c73 0 101 11 136 79l254 492h392z" />
    <glyph glyph-name="Ccedilla" unicode="&#xc7;" horiz-adv-x="692" 
d="M324 -12c-143 26 -253 156 -253 312c0 174 138 317 307 317c70 0 135 -31 186 -85c13 10 20 32 26 57h28v-220h-29c-27 130 -108 200 -207 200c-137 0 -176 -145 -176 -269s39 -269 176 -269c99 0 180 72 207 200h29v-220h-28c-6 24 -13 48 -26 57
c-51 -52 -116 -84 -185 -85l-48 -49c46 -2 109 -31 109 -102c0 -95 -149 -127 -190 -133v36c33 10 111 35 111 97c0 44 -68 64 -132 43v18z" />
    <glyph glyph-name="Egrave" unicode="&#xc8;" horiz-adv-x="641" 
d="M38 0v29c83 0 95 17 95 117v308c0 100 -12 117 -95 117v29h515l8 -141h-29l-5 20c-14 53 -24 76 -116 76h-153v-215h55c100 0 116 13 116 96h29v-237h-29c0 84 -16 96 -116 96h-55v-133c0 -100 13 -117 96 -117h90c92 0 103 23 116 76l5 20h29l-8 -141h-548zM413 682
l-7 -9l-179 75c-11 6 -30 20 -30 40c0 15 11 37 36 37c22 0 36 -11 58 -30z" />
    <glyph glyph-name="Eacute" unicode="&#xc9;" horiz-adv-x="641" 
d="M38 0v29c83 0 95 17 95 117v308c0 100 -12 117 -95 117v29h515l8 -141h-29l-5 20c-14 53 -24 76 -116 76h-153v-215h55c100 0 116 13 116 96h29v-237h-29c0 84 -16 96 -116 96h-55v-133c0 -100 13 -117 96 -117h90c92 0 103 23 116 76l5 20h29l-8 -141h-548zM498 788
c0 -20 -20 -33 -30 -39l-180 -76l-5 10l120 113c22 19 36 30 58 30c25 0 37 -22 37 -38z" />
    <glyph glyph-name="Ecircumflex" unicode="&#xca;" horiz-adv-x="641" 
d="M38 0v29c83 0 95 17 95 117v308c0 100 -12 117 -95 117v29h515l8 -141h-29l-5 20c-14 53 -24 76 -116 76h-153v-215h55c100 0 116 13 116 96h29v-237h-29c0 84 -16 96 -116 96h-55v-133c0 -100 13 -117 96 -117h90c92 0 103 23 116 76l5 20h29l-8 -141h-548zM474 689
l-15 -14l-128 83l-128 -83l-15 14l143 155z" />
    <glyph glyph-name="Edieresis" unicode="&#xcb;" horiz-adv-x="641" 
d="M38 0v29c83 0 95 17 95 117v308c0 100 -12 117 -95 117v29h515l8 -141h-29l-5 20c-14 53 -24 76 -116 76h-153v-215h55c100 0 116 13 116 96h29v-237h-29c0 84 -16 96 -116 96h-55v-133c0 -100 13 -117 96 -117h90c92 0 103 23 116 76l5 20h29l-8 -141h-548zM442 776
c28 0 51 -23 51 -51s-23 -51 -51 -51c-29 0 -51 23 -51 51s22 51 51 51zM243 776c28 0 50 -23 50 -51s-22 -51 -50 -51s-51 23 -51 51s23 51 51 51z" />
    <glyph glyph-name="Igrave" unicode="&#xcc;" horiz-adv-x="392" 
d="M354 0h-316v29c83 0 95 17 95 117v308c0 100 -12 117 -95 117v29h316v-29c-83 0 -96 -17 -96 -117v-308c0 -100 13 -117 96 -117v-29zM253 682l-6 -9l-179 75c-11 6 -30 20 -30 40c0 15 11 37 36 37c22 0 36 -11 58 -30z" />
    <glyph glyph-name="Iacute" unicode="&#xcd;" horiz-adv-x="392" 
d="M354 0h-316v29c83 0 95 17 95 117v308c0 100 -12 117 -95 117v29h316v-29c-83 0 -96 -17 -96 -117v-308c0 -100 13 -117 96 -117v-29zM350 788c0 -20 -19 -34 -30 -40l-179 -75l-6 9l121 113c22 19 36 30 57 30c25 0 37 -22 37 -37z" />
    <glyph glyph-name="Icircumflex" unicode="&#xce;" horiz-adv-x="392" 
d="M354 0h-316v29c83 0 95 17 95 117v308c0 100 -12 117 -95 117v29h316v-29c-83 0 -96 -17 -96 -117v-308c0 -100 13 -117 96 -117v-29zM343 689l-15 -14l-129 83l-128 -83l-15 14l143 155z" />
    <glyph glyph-name="Idieresis" unicode="&#xcf;" horiz-adv-x="392" 
d="M354 0h-316v29c83 0 95 17 95 117v308c0 100 -12 117 -95 117v29h316v-29c-83 0 -96 -17 -96 -117v-308c0 -100 13 -117 96 -117v-29zM298 776c28 0 50 -23 50 -51s-22 -51 -50 -51c-29 0 -51 23 -51 51s22 51 51 51zM98 776c29 0 51 -23 51 -51s-22 -51 -51 -51
c-27 0 -50 23 -50 51s23 51 50 51z" />
    <glyph glyph-name="Eth" unicode="&#xd0;" horiz-adv-x="772" 
d="M258 330h92v-61h-92v-111c0 -97 13 -113 96 -113h10c162 0 195 142 195 255s-33 255 -195 255h-106v-225zM133 269h-91v61h91v124c0 100 -12 117 -95 117v29h330c232 0 333 -135 333 -300s-101 -300 -333 -300h-330v29c83 0 95 17 95 117v123z" />
    <glyph glyph-name="Ntilde" unicode="&#xd1;" horiz-adv-x="749" 
d="M572 202v252c0 100 -13 117 -96 117v29h237v-29c-84 0 -96 -17 -96 -117v-471h-25l-414 494v-331c0 -100 13 -117 96 -117v-29h-236v29c83 0 95 17 95 117v308c0 100 -12 117 -95 117v29h200zM458 726c27 0 44 21 52 57h19c0 -75 -32 -120 -82 -120
c-43 0 -113 66 -148 66c-21 0 -42 -25 -51 -55h-18c0 69 35 118 78 118c47 0 107 -66 150 -66z" />
    <glyph glyph-name="Ograve" unicode="&#xd2;" horiz-adv-x="783" 
d="M725 300c0 -174 -150 -317 -333 -317c-184 0 -334 143 -334 317s150 317 334 317c183 0 333 -143 333 -317zM591 300c0 121 -58 269 -199 269c-142 0 -199 -148 -199 -269s57 -269 199 -269c141 0 199 148 199 269zM463 682l-6 -9l-179 75c-12 5 -30 20 -30 40
c0 15 11 37 36 37c22 0 36 -10 58 -30z" />
    <glyph glyph-name="Oacute" unicode="&#xd3;" horiz-adv-x="783" 
d="M725 300c0 -174 -150 -317 -333 -317c-184 0 -334 143 -334 317s150 317 334 317c183 0 333 -143 333 -317zM591 300c0 121 -58 269 -199 269c-142 0 -199 -148 -199 -269s57 -269 199 -269c141 0 199 148 199 269zM529 788c0 -20 -18 -35 -30 -40l-179 -75l-6 9l121 113
c22 20 36 30 58 30c25 0 36 -22 36 -37z" />
    <glyph glyph-name="Ocircumflex" unicode="&#xd4;" horiz-adv-x="783" 
d="M725 300c0 -174 -150 -317 -333 -317c-184 0 -334 143 -334 317s150 317 334 317c183 0 333 -143 333 -317zM591 300c0 121 -58 269 -199 269c-142 0 -199 -148 -199 -269s57 -269 199 -269c141 0 199 148 199 269zM536 687l-15 -14l-128 83l-129 -83l-15 14l144 155z
" />
    <glyph glyph-name="Otilde" unicode="&#xd5;" horiz-adv-x="783" 
d="M725 300c0 -174 -150 -317 -333 -317c-184 0 -334 143 -334 317s150 317 334 317c183 0 333 -143 333 -317zM591 300c0 121 -58 269 -199 269c-142 0 -199 -148 -199 -269s57 -269 199 -269c141 0 199 148 199 269zM472 731c26 0 43 21 51 57h20c0 -75 -33 -120 -83 -120
c-42 0 -112 66 -147 66c-22 0 -43 -25 -51 -55h-19c0 69 35 118 78 118c47 0 107 -66 151 -66z" />
    <glyph glyph-name="Odieresis" unicode="&#xd6;" horiz-adv-x="783" 
d="M725 300c0 -174 -150 -317 -333 -317c-184 0 -334 143 -334 317s150 317 334 317c183 0 333 -143 333 -317zM591 300c0 121 -58 269 -199 269c-142 0 -199 -148 -199 -269s57 -269 199 -269c141 0 199 148 199 269zM493 776c29 0 51 -23 51 -51s-22 -51 -51 -51
c-28 0 -50 23 -50 51s22 51 50 51zM294 776c29 0 51 -23 51 -51s-22 -51 -51 -51c-27 0 -51 23 -51 51s24 51 51 51z" />
    <glyph glyph-name="multiply" unicode="&#xd7;" 
d="M283 221l109 -108l-55 -55l-108 108l-108 -108l-55 55l108 108l-107 107l55 55l107 -107l108 107l54 -55z" />
    <glyph glyph-name="Oslash" unicode="&#xd8;" horiz-adv-x="808" 
d="M551 488c0 1 -251 -423 -251 -423c28 -21 63 -34 104 -34c142 0 199 148 199 269c0 64 -15 136 -52 188zM258 109c0 0 251 425 251 424c-27 23 -62 36 -105 36c-141 0 -199 -148 -199 -269c0 -65 17 -137 53 -191zM217 38c-88 58 -146 154 -146 262
c0 174 150 317 333 317c49 0 96 -10 138 -29c18 31 37 64 37 64l53 -27s-19 -32 -39 -65c87 -57 145 -152 145 -260c0 -174 -150 -317 -334 -317c-48 0 -94 10 -136 28l-36 -62l-53 26z" />
    <glyph glyph-name="Ugrave" unicode="&#xd9;" horiz-adv-x="733" 
d="M554 454c0 100 -12 117 -96 117v29h245v-29c-83 0 -95 -17 -95 -117v-231c0 -157 -109 -240 -241 -240c-133 0 -240 83 -240 240v231c0 100 -13 117 -96 117v29h317v-29c-84 0 -96 -17 -96 -117v-220c0 -129 69 -189 155 -189s147 60 147 189v220zM429 682l-6 -9l-180 75
c-10 6 -30 20 -30 40c0 15 12 37 37 37c22 0 36 -11 58 -30z" />
    <glyph glyph-name="Uacute" unicode="&#xda;" horiz-adv-x="733" 
d="M554 454c0 100 -12 117 -96 117v29h245v-29c-83 0 -95 -17 -95 -117v-231c0 -157 -109 -240 -241 -240c-133 0 -240 83 -240 240v231c0 100 -13 117 -96 117v29h317v-29c-84 0 -96 -17 -96 -117v-220c0 -129 69 -189 155 -189s147 60 147 189v220zM555 788
c0 -20 -19 -34 -30 -40l-179 -75l-6 9l121 113c22 19 36 30 57 30c25 0 37 -22 37 -37z" />
    <glyph glyph-name="Ucircumflex" unicode="&#xdb;" horiz-adv-x="733" 
d="M554 454c0 100 -12 117 -96 117v29h245v-29c-83 0 -95 -17 -95 -117v-231c0 -157 -109 -240 -241 -240c-133 0 -240 83 -240 240v231c0 100 -13 117 -96 117v29h317v-29c-84 0 -96 -17 -96 -117v-220c0 -129 69 -189 155 -189s147 60 147 189v220zM534 689l-15 -14
l-128 83l-128 -83l-15 14l143 155z" />
    <glyph glyph-name="Udieresis" unicode="&#xdc;" horiz-adv-x="733" 
d="M554 454c0 100 -12 117 -96 117v29h245v-29c-83 0 -95 -17 -95 -117v-231c0 -157 -109 -240 -241 -240c-133 0 -240 83 -240 240v231c0 100 -13 117 -96 117v29h317v-29c-84 0 -96 -17 -96 -117v-220c0 -129 69 -189 155 -189s147 60 147 189v220zM489 777
c29 0 51 -23 51 -51s-22 -51 -51 -51c-28 0 -51 23 -51 51s23 51 51 51zM290 777c28 0 51 -23 51 -51s-23 -51 -51 -51c-27 0 -51 23 -51 51s24 51 51 51z" />
    <glyph glyph-name="Yacute" unicode="&#xdd;" horiz-adv-x="633" 
d="M665 571c-83 0 -102 -23 -144 -88l-143 -216v-121c0 -100 12 -117 95 -117v-29h-312v29c83 0 96 17 96 117v118l-145 219c-47 71 -74 88 -145 88v29h339v-29c-70 0 -89 -23 -53 -76l112 -169l112 169c36 54 25 76 -54 76v29h242v-29zM499 788c0 -20 -19 -33 -30 -39
l-179 -76l-6 10l121 113c22 19 36 30 58 30c25 0 36 -22 36 -38z" />
    <glyph glyph-name="Thorn" unicode="&#xde;" horiz-adv-x="598" 
d="M258 477h115c124 0 202 -76 202 -169c0 -94 -78 -169 -202 -169h-115c1 -94 15 -110 96 -110v-29h-316v29c83 0 95 17 95 117v308c0 100 -12 117 -95 117v29h316v-29c-76 0 -93 -14 -96 -94zM313 184c87 0 128 55 128 124c0 68 -41 124 -128 124h-55v-248h55z" />
    <glyph glyph-name="germandbls" unicode="&#xdf;" horiz-adv-x="593" 
d="M110 414c0 136 59 203 178 203c91 0 132 -56 132 -114c0 -72 -45 -97 -45 -173c0 -43 31 -70 69 -91l49 -26c57 -32 77 -73 77 -113c0 -80 -71 -117 -136 -117c-83 0 -123 71 -123 0h-29v146h29c0 -45 56 -104 122 -104c32 0 52 20 52 43c0 26 -31 52 -64 70l-56 30
c-40 21 -75 55 -75 120c0 78 72 146 72 215c0 48 -25 73 -68 73c-44 0 -71 -38 -71 -119v-457h-192v29c67 0 79 17 79 117v158h-79v29c67 0 79 26 79 81z" />
    <glyph glyph-name="agrave" unicode="&#xe0;" horiz-adv-x="441" 
d="M427 26c-29 -22 -70 -37 -94 -37c-45 0 -70 22 -76 58c-56 -44 -81 -60 -126 -60c-48 0 -96 31 -96 84c0 85 91 122 222 142v1c0 74 -24 95 -65 95c-23 0 -54 -13 -54 -39c0 -27 -18 -43 -40 -43s-40 16 -40 43c0 50 73 80 146 80c111 0 158 -41 158 -136v-135
c0 -25 8 -38 21 -38c12 0 22 7 30 12zM257 88v85c-77 -20 -123 -40 -123 -90c0 -30 19 -40 39 -40c17 0 50 15 84 45zM293 416l-6 -9l-179 76c-11 5 -30 19 -30 39c0 16 11 37 36 37c22 0 36 -11 58 -30z" />
    <glyph glyph-name="aacute" unicode="&#xe1;" horiz-adv-x="441" 
d="M427 26c-29 -22 -70 -37 -94 -37c-45 0 -70 22 -76 58c-56 -44 -81 -60 -126 -60c-48 0 -96 31 -96 84c0 85 91 122 222 142v1c0 74 -24 95 -65 95c-23 0 -54 -13 -54 -39c0 -27 -18 -43 -40 -43s-40 16 -40 43c0 50 73 80 146 80c111 0 158 -41 158 -136v-135
c0 -25 8 -38 21 -38c12 0 22 7 30 12zM257 88v85c-77 -20 -123 -40 -123 -90c0 -30 19 -40 39 -40c17 0 50 15 84 45zM359 522c0 -20 -19 -34 -30 -39l-179 -76l-6 9l121 113c22 19 36 30 58 30c25 0 36 -21 36 -37z" />
    <glyph glyph-name="acircumflex" unicode="&#xe2;" horiz-adv-x="441" 
d="M427 26c-29 -22 -70 -37 -94 -37c-45 0 -70 22 -76 58c-56 -44 -81 -60 -126 -60c-48 0 -96 31 -96 84c0 85 91 122 222 142v1c0 74 -24 95 -65 95c-23 0 -54 -13 -54 -39c0 -27 -18 -43 -40 -43s-40 16 -40 43c0 50 73 80 146 80c111 0 158 -41 158 -136v-135
c0 -25 8 -38 21 -38c12 0 22 7 30 12zM257 88v85c-77 -20 -123 -40 -123 -90c0 -30 19 -40 39 -40c17 0 50 15 84 45zM365 423l-15 -15l-128 84l-129 -84l-15 15l144 155z" />
    <glyph glyph-name="atilde" unicode="&#xe3;" horiz-adv-x="441" 
d="M427 26c-29 -22 -70 -37 -94 -37c-45 0 -70 22 -76 58c-56 -44 -81 -60 -126 -60c-48 0 -96 31 -96 84c0 85 91 122 222 142v1c0 74 -24 95 -65 95c-23 0 -54 -13 -54 -39c0 -27 -18 -43 -40 -43s-40 16 -40 43c0 50 73 80 146 80c111 0 158 -41 158 -136v-135
c0 -25 8 -38 21 -38c12 0 22 7 30 12zM257 88v85c-77 -20 -123 -40 -123 -90c0 -30 19 -40 39 -40c17 0 50 15 84 45zM300 460c27 0 43 21 52 57h19c0 -75 -33 -119 -83 -119c-42 0 -112 65 -147 65c-22 0 -43 -25 -51 -55h-18c0 70 35 118 77 118c48 0 108 -66 151 -66z
" />
    <glyph glyph-name="adieresis" unicode="&#xe4;" horiz-adv-x="441" 
d="M427 26c-29 -22 -70 -37 -94 -37c-45 0 -70 22 -76 58c-56 -44 -81 -60 -126 -60c-48 0 -96 31 -96 84c0 85 91 122 222 142v1c0 74 -24 95 -65 95c-23 0 -54 -13 -54 -39c0 -27 -18 -43 -40 -43s-40 16 -40 43c0 50 73 80 146 80c111 0 158 -41 158 -136v-135
c0 -25 8 -38 21 -38c12 0 22 7 30 12zM257 88v85c-77 -20 -123 -40 -123 -90c0 -30 19 -40 39 -40c17 0 50 15 84 45zM320 510c28 0 51 -22 51 -51c0 -28 -23 -51 -51 -51s-51 23 -51 51c0 29 23 51 51 51zM121 510c28 0 51 -22 51 -51c0 -28 -23 -51 -51 -51s-51 23 -51 51
c0 29 23 51 51 51z" />
    <glyph glyph-name="aring" unicode="&#xe5;" horiz-adv-x="441" 
d="M427 26c-29 -22 -70 -37 -94 -37c-45 0 -70 22 -76 58c-56 -44 -81 -60 -126 -60c-48 0 -96 31 -96 84c0 85 91 122 222 142v1c0 74 -24 95 -65 95c-23 0 -54 -13 -54 -39c0 -27 -18 -43 -40 -43s-40 16 -40 43c0 50 73 80 146 80c111 0 158 -41 158 -136v-135
c0 -25 8 -38 21 -38c12 0 22 7 30 12zM257 88v85c-77 -20 -123 -40 -123 -90c0 -30 19 -40 39 -40c17 0 50 15 84 45zM222 606c55 0 99 -44 99 -99s-44 -99 -99 -99s-99 44 -99 99s44 99 99 99zM222 553c-25 0 -46 -21 -46 -46s21 -46 46 -46s46 21 46 46s-21 46 -46 46z
" />
    <glyph glyph-name="ae" unicode="&#xe6;" horiz-adv-x="634" 
d="M373 229h134c3 41 -19 73 -62 73c-37 0 -61 -25 -72 -73zM261 88v85c-77 -20 -123 -40 -123 -90c0 -30 20 -40 40 -40c16 0 49 15 83 45zM279 63c-59 -54 -100 -76 -144 -76c-48 0 -96 31 -96 84c0 85 91 122 222 142v1c0 74 -23 95 -65 95c-23 0 -54 -13 -54 -39
c0 -27 -18 -43 -40 -43s-39 16 -39 43c0 50 72 80 145 80c55 0 95 -10 120 -32c32 20 70 32 112 32c109 0 166 -96 144 -165h-217c-8 -102 45 -149 98 -149c45 0 88 15 118 42l18 -29c-35 -37 -96 -66 -153 -66c-75 0 -135 32 -169 80z" />
    <glyph glyph-name="ccedilla" unicode="&#xe7;" horiz-adv-x="405" 
d="M179 -9c-79 22 -133 86 -133 167c0 118 86 192 185 192c83 0 127 -43 127 -81c0 -16 -10 -42 -44 -42c-21 0 -39 18 -39 40c0 32 -18 43 -36 43c-53 0 -71 -60 -71 -152c0 -80 38 -126 102 -126c28 0 65 15 101 46l17 -29c-38 -41 -90 -66 -149 -66h-8l-48 -49
c45 -2 109 -31 109 -102c0 -95 -149 -127 -190 -133v36c32 10 111 35 111 97c0 44 -68 64 -132 43v18z" />
    <glyph glyph-name="egrave" unicode="&#xe8;" horiz-adv-x="433" 
d="M173 229h133c3 41 -18 73 -62 73c-36 0 -61 -25 -71 -73zM166 185c-8 -102 45 -149 98 -149c45 0 88 15 119 42l17 -29c-35 -37 -96 -66 -152 -66c-120 0 -202 83 -202 184c0 106 88 183 193 183c109 0 166 -96 144 -165h-217zM309 416l-6 -9l-180 76
c-10 5 -30 19 -30 39c0 16 12 37 37 37c22 0 36 -11 58 -30z" />
    <glyph glyph-name="eacute" unicode="&#xe9;" horiz-adv-x="433" 
d="M173 229h133c3 41 -18 73 -62 73c-36 0 -61 -25 -71 -73zM166 185c-8 -102 45 -149 98 -149c45 0 88 15 119 42l17 -29c-35 -37 -96 -66 -152 -66c-120 0 -202 83 -202 184c0 106 88 183 193 183c109 0 166 -96 144 -165h-217zM376 522c0 -20 -19 -34 -30 -39l-179 -76
l-6 9l121 113c21 19 36 30 57 30c25 0 37 -21 37 -37z" />
    <glyph glyph-name="ecircumflex" unicode="&#xea;" horiz-adv-x="433" 
d="M173 229h133c3 41 -18 73 -62 73c-36 0 -61 -25 -71 -73zM166 185c-8 -102 45 -149 98 -149c45 0 88 15 119 42l17 -29c-35 -37 -96 -66 -152 -66c-120 0 -202 83 -202 184c0 106 88 183 193 183c109 0 166 -96 144 -165h-217zM382 423l-15 -15l-129 84l-128 -84l-15 15
l143 155z" />
    <glyph glyph-name="edieresis" unicode="&#xeb;" horiz-adv-x="433" 
d="M173 229h133c3 41 -18 73 -62 73c-36 0 -61 -25 -71 -73zM166 185c-8 -102 45 -149 98 -149c45 0 88 15 119 42l17 -29c-35 -37 -96 -66 -152 -66c-120 0 -202 83 -202 184c0 106 88 183 193 183c109 0 166 -96 144 -165h-217zM337 510c28 0 51 -22 51 -51
c0 -28 -23 -51 -51 -51c-29 0 -51 23 -51 51c0 29 22 51 51 51zM138 510c28 0 50 -22 50 -51c0 -28 -22 -51 -50 -51s-51 23 -51 51c0 29 23 51 51 51z" />
    <glyph glyph-name="igrave" unicode="&#xec;" horiz-adv-x="323" 
d="M306 0h-271v29c67 0 79 17 79 117v33c0 100 -12 117 -79 117v29l192 25v-204c0 -100 12 -117 79 -117v-29zM238 416l-7 -9l-179 76c-11 5 -30 19 -30 39c0 16 11 37 36 37c22 0 36 -11 58 -30z" />
    <glyph glyph-name="iacute" unicode="&#xed;" horiz-adv-x="323" 
d="M306 0h-271v29c67 0 79 17 79 117v33c0 100 -12 117 -79 117v29l192 25v-204c0 -100 12 -117 79 -117v-29zM303 522c0 -20 -19 -34 -30 -39l-179 -76l-6 9l121 113c22 19 36 30 58 30c25 0 36 -21 36 -37z" />
    <glyph glyph-name="icircumflex" unicode="&#xee;" horiz-adv-x="323" 
d="M306 0h-271v29c67 0 79 17 79 117v33c0 100 -12 117 -79 117v29l192 25v-204c0 -100 12 -117 79 -117v-29zM310 422l-15 -14l-128 83l-129 -83l-15 14l144 155z" />
    <glyph glyph-name="idieresis" unicode="&#xef;" horiz-adv-x="323" 
d="M306 0h-271v29c67 0 79 17 79 117v33c0 100 -12 117 -79 117v29l192 25v-204c0 -100 12 -117 79 -117v-29zM265 510c28 0 51 -22 51 -51c0 -28 -23 -51 -51 -51s-51 23 -51 51c0 29 23 51 51 51zM66 510c28 0 51 -22 51 -51c0 -28 -23 -51 -51 -51s-51 23 -51 51
c0 29 23 51 51 51z" />
    <glyph glyph-name="eth" unicode="&#xf0;" horiz-adv-x="533" 
d="M351 278c-15 23 -53 32 -86 32c-52 0 -86 -42 -86 -138c0 -79 19 -140 78 -140c38 0 94 34 94 246zM348 577l79 59l28 -37l-75 -56c58 -69 88 -175 88 -277c0 -233 -135 -283 -211 -283c-111 0 -202 85 -202 188s99 187 210 187c28 0 62 -6 86 -26c-2 61 -10 122 -28 169
l-118 -88l-27 37l122 92c-17 23 -41 37 -72 37c-85 0 -90 -91 -133 -65c-45 29 30 106 134 106c46 0 85 -16 119 -43z" />
    <glyph glyph-name="ntilde" unicode="&#xf1;" horiz-adv-x="583" 
d="M224 293c27 33 69 57 125 57c90 0 155 -64 155 -149v-55c0 -100 13 -117 79 -117v-29h-230v29c25 0 39 17 39 117v42c0 65 -17 106 -73 106c-40 0 -92 -32 -92 -99v-49c0 -100 12 -117 79 -117v-29h-271v29c67 0 79 17 79 117v33c0 100 -12 117 -79 117v29l175 25
c5 -10 12 -36 14 -57zM381 470c27 0 43 21 52 57h19c0 -75 -33 -119 -83 -119c-42 0 -112 65 -147 65c-22 0 -43 -25 -51 -55h-18c0 70 35 118 77 118c48 0 108 -66 151 -66z" />
    <glyph glyph-name="ograve" unicode="&#xf2;" horiz-adv-x="495" 
d="M449 167c0 -101 -91 -184 -201 -184c-111 0 -202 83 -202 184s91 183 202 183c110 0 201 -82 201 -183zM327 167c0 75 -25 136 -79 136c-55 0 -80 -61 -80 -136s25 -137 80 -137c54 0 79 62 79 137zM320 416l-7 -9l-179 76c-11 5 -30 19 -30 39c0 16 12 37 37 37
c22 0 36 -11 57 -30z" />
    <glyph glyph-name="oacute" unicode="&#xf3;" horiz-adv-x="495" 
d="M449 167c0 -101 -91 -184 -201 -184c-111 0 -202 83 -202 184s91 183 202 183c110 0 201 -82 201 -183zM327 167c0 75 -25 136 -79 136c-55 0 -80 -61 -80 -136s25 -137 80 -137c54 0 79 62 79 137zM386 522c0 -20 -19 -34 -30 -39l-179 -76l-6 9l121 113
c21 19 36 30 57 30c25 0 37 -21 37 -37z" />
    <glyph glyph-name="ocircumflex" unicode="&#xf4;" horiz-adv-x="495" 
d="M449 167c0 -101 -91 -184 -201 -184c-111 0 -202 83 -202 184s91 183 202 183c110 0 201 -82 201 -183zM327 167c0 75 -25 136 -79 136c-55 0 -80 -61 -80 -136s25 -137 80 -137c54 0 79 62 79 137zM393 423l-15 -15l-129 84l-128 -84l-15 15l143 155z" />
    <glyph glyph-name="otilde" unicode="&#xf5;" horiz-adv-x="495" 
d="M449 167c0 -101 -91 -184 -201 -184c-111 0 -202 83 -202 184s91 183 202 183c110 0 201 -82 201 -183zM327 167c0 75 -25 136 -79 136c-55 0 -80 -61 -80 -136s25 -137 80 -137c54 0 79 62 79 137zM328 460c26 0 43 21 51 57h19c0 -75 -32 -119 -82 -119
c-43 0 -113 65 -148 65c-21 0 -42 -25 -50 -55h-19c0 70 35 118 78 118c47 0 107 -66 151 -66z" />
    <glyph glyph-name="odieresis" unicode="&#xf6;" horiz-adv-x="495" 
d="M449 167c0 -101 -91 -184 -201 -184c-111 0 -202 83 -202 184s91 183 202 183c110 0 201 -82 201 -183zM327 167c0 75 -25 136 -79 136c-55 0 -80 -61 -80 -136s25 -137 80 -137c54 0 79 62 79 137zM348 510c28 0 50 -22 50 -51c0 -28 -22 -51 -50 -51
c-29 0 -51 23 -51 51c0 29 22 51 51 51zM148 510c29 0 51 -22 51 -51c0 -28 -22 -51 -51 -51c-27 0 -50 23 -50 51c0 29 23 51 50 51z" />
    <glyph glyph-name="divide" unicode="&#xf7;" 
d="M408 183h-358v77h358v-77zM287 83c0 -31 -28 -59 -59 -59c-30 0 -55 28 -55 59c0 30 25 58 55 58c31 0 59 -28 59 -58zM287 360c0 -31 -28 -58 -59 -58c-30 0 -55 27 -55 58s25 58 55 58c31 0 59 -27 59 -58z" />
    <glyph glyph-name="oslash" unicode="&#xf8;" horiz-adv-x="503" 
d="M322 238l-115 -189c11 -12 26 -19 45 -19c54 0 79 62 79 137c0 26 -3 51 -9 71zM182 96l114 188c-12 13 -27 19 -44 19c-54 0 -79 -61 -79 -136c0 -26 3 -50 9 -71zM134 18c-51 34 -84 88 -84 149c0 101 91 183 202 183c26 0 52 -5 76 -13l26 43l40 -22l-26 -42
c52 -33 85 -88 85 -149c0 -101 -90 -184 -201 -184c-28 0 -54 5 -77 14l-27 -44l-40 22z" />
    <glyph glyph-name="ugrave" unicode="&#xf9;" horiz-adv-x="548" 
d="M548 8l-175 -25c-5 10 -11 36 -14 58c-26 -33 -69 -58 -125 -58c-90 0 -155 65 -155 150v55c0 100 -12 116 -79 116v29h192v-187c0 -65 16 -107 72 -107c40 0 93 33 93 99v50c0 100 -13 116 -79 116v29h191v-179c0 -100 13 -116 79 -116v-30zM338 415l-6 -9l-179 76
c-11 6 -30 19 -30 39c0 16 11 37 36 37c22 0 36 -10 58 -30z" />
    <glyph glyph-name="uacute" unicode="&#xfa;" horiz-adv-x="548" 
d="M548 8l-175 -25c-5 10 -11 36 -14 58c-26 -33 -69 -58 -125 -58c-90 0 -155 65 -155 150v55c0 100 -12 116 -79 116v29h192v-187c0 -65 16 -107 72 -107c40 0 93 33 93 99v50c0 100 -13 116 -79 116v29h191v-179c0 -100 13 -116 79 -116v-30zM405 521
c0 -20 -19 -33 -30 -39l-179 -76l-6 9l121 113c22 20 36 30 57 30c25 0 37 -21 37 -37z" />
    <glyph glyph-name="ucircumflex" unicode="&#xfb;" horiz-adv-x="548" 
d="M548 8l-175 -25c-5 10 -11 36 -14 58c-26 -33 -69 -58 -125 -58c-90 0 -155 65 -155 150v55c0 100 -12 116 -79 116v29h192v-187c0 -65 16 -107 72 -107c40 0 93 33 93 99v50c0 100 -13 116 -79 116v29h191v-179c0 -100 13 -116 79 -116v-30zM401 423l-15 -15l-128 84
l-129 -84l-15 15l144 155z" />
    <glyph glyph-name="udieresis" unicode="&#xfc;" horiz-adv-x="548" 
d="M548 8l-175 -25c-5 10 -11 36 -14 58c-26 -33 -69 -58 -125 -58c-90 0 -155 65 -155 150v55c0 100 -12 116 -79 116v29h192v-187c0 -65 16 -107 72 -107c40 0 93 33 93 99v50c0 100 -13 116 -79 116v29h191v-179c0 -100 13 -116 79 -116v-30zM363 510c29 0 51 -22 51 -51
c0 -28 -22 -51 -51 -51c-28 0 -50 23 -50 51c0 29 22 51 50 51zM164 510c29 0 51 -22 51 -51c0 -28 -22 -51 -51 -51c-27 0 -51 23 -51 51c0 29 24 51 51 51z" />
    <glyph glyph-name="yacute" unicode="&#xfd;" horiz-adv-x="379" 
d="M377 522c0 -20 -19 -34 -30 -39l-179 -76l-6 9l121 113c21 19 35 30 57 30c25 0 37 -21 37 -37zM128 -233c-8 -20 -21 -37 -37 -37c-14 0 -40 7 -40 37c0 38 44 35 76 113l43 106l-120 268c-16 36 -36 50 -67 50v29h220v-29c-43 0 -50 -13 -34 -50l59 -130l54 130
c15 36 8 50 -29 50v29h148v-29c-35 0 -56 -14 -71 -50z" />
    <glyph glyph-name="thorn" unicode="&#xfe;" horiz-adv-x="510" 
d="M338 167c0 76 -24 136 -75 136c-35 0 -67 -36 -67 -88v-97c0 -51 32 -88 67 -88c51 0 75 61 75 137zM83 446c0 100 -12 117 -79 117v29l192 25v-296c22 17 50 29 82 29c113 0 182 -82 182 -183s-69 -184 -182 -184c-32 0 -61 12 -82 30v-117c0 -100 12 -117 79 -117v-29
h-271v29c67 0 79 17 79 117v550z" />
    <glyph glyph-name="ydieresis" unicode="&#xff;" horiz-adv-x="379" 
d="M128 -233c-8 -20 -21 -37 -37 -37c-14 0 -40 7 -40 37c0 38 44 35 76 113l43 106l-120 268c-16 36 -36 50 -67 50v29h220v-29c-43 0 -50 -13 -34 -50l59 -130l54 130c15 36 8 50 -29 50v29h148v-29c-35 0 -56 -14 -71 -50zM303 510c28 0 50 -22 50 -51
c0 -28 -22 -51 -50 -51c-29 0 -51 23 -51 51c0 29 22 51 51 51zM103 510c29 0 51 -22 51 -51c0 -28 -22 -51 -51 -51c-27 0 -50 23 -50 51c0 29 23 51 50 51z" />
    <glyph glyph-name="fraction" unicode="&#x2044;" horiz-adv-x="348" 
d="M383 594l-370 -612l-47 25l369 613z" />
    <glyph glyph-name="fraction" unicode="&#x2215;" horiz-adv-x="348" 
d="M383 594l-370 -612l-47 25l369 613z" />
    <glyph glyph-name="breve" unicode="&#x2d8;" horiz-adv-x="308" 
d="M224 662c0 -55 -37 -90 -86 -90s-87 35 -87 90h16c10 -28 37 -48 71 -48c33 0 61 20 70 48h16z" />
    <glyph glyph-name="dotaccent" unicode="&#x2d9;" horiz-adv-x="310" 
d="M121 662c22 0 39 -18 39 -39c0 -22 -17 -40 -39 -40s-39 18 -39 40c0 21 17 39 39 39z" />
    <glyph glyph-name="ring" unicode="&#x2da;" horiz-adv-x="223" 
d="M128 703c55 0 99 -45 99 -100s-44 -99 -99 -99s-100 44 -100 99s45 100 100 100zM128 649c-25 0 -46 -21 -46 -46s21 -45 46 -45s45 20 45 45s-20 46 -45 46z" />
    <glyph glyph-name="hungarumlaut" unicode="&#x2dd;" horiz-adv-x="328" 
d="M201 648c0 -15 -15 -26 -23 -30l-138 -59l-5 7l93 87c17 15 28 24 45 24c19 0 28 -17 28 -29zM318 648c0 -15 -15 -26 -24 -30l-137 -59l-5 7l93 87c17 15 28 24 44 24c19 0 29 -17 29 -29z" />
    <glyph glyph-name="ogonek" unicode="&#x2db;" horiz-adv-x="222" 
d="M206 -78c-7 -47 -48 -76 -98 -76c-52 0 -90 40 -90 91c0 62 70 115 134 95l11 -2l-8 -17h-9c-33 0 -67 -25 -67 -54c0 -30 18 -58 54 -58c22 0 44 7 53 29l10 20l8 -25z" />
    <glyph glyph-name="caron" unicode="&#x2c7;" horiz-adv-x="340" 
d="M284 691l-143 -155l-144 155l16 14l128 -83l128 83z" />
    <glyph glyph-name="Lslash" unicode="&#x141;" horiz-adv-x="633" 
d="M258 333v-171c0 -100 13 -117 96 -117h115c92 0 103 23 116 76l5 20h29l-8 -141h-573v29c83 0 95 17 95 117v102l-64 -43l-25 37l89 60v152c0 100 -12 117 -95 117v29h316v-29c-83 0 -96 -17 -96 -117v-68l62 42l26 -37z" />
    <glyph glyph-name="dotlessi" unicode="&#x131;" horiz-adv-x="323" 
d="M306 0h-271v29c67 0 79 17 79 117v33c0 100 -12 117 -79 117v29l192 25v-204c0 -100 12 -117 79 -117v-29z" />
    <glyph glyph-name="lslash" unicode="&#x142;" horiz-adv-x="296" 
d="M204 327v-181c0 -100 13 -117 79 -117v-29h-270v29c66 0 79 17 79 117v106l-69 -47l-26 37l95 63v141c0 100 -13 117 -79 117v29l191 25v-236l69 47l26 -37z" />
    <glyph glyph-name="minus" unicode="&#x2212;" 
d="M375 183h-292v77h292v-77z" />
    <glyph glyph-name="Zcaron" unicode="&#x17d;" horiz-adv-x="592" 
d="M353 563h-157c-92 0 -103 -23 -116 -75l-5 -20h-21l9 132h443v-22l-313 -541h193c92 0 102 23 116 76l5 20h21l-9 -133h-476v24zM428 829l-144 -155l-143 155l15 14l128 -83l129 83z" />
    <glyph glyph-name="zcaron" unicode="&#x17e;" horiz-adv-x="375" 
d="M326 333v-16l-149 -277h19c92 0 105 20 115 59l5 20h21l-8 -119h-290v17l149 276h-5c-92 0 -105 -20 -115 -59l-5 -20h-21l7 119h277zM326 563l-143 -155l-144 155l15 14l129 -84l128 84z" />
    <glyph glyph-name="NUL" horiz-adv-x="0" 
 />
    <glyph glyph-name="HT" horiz-adv-x="0" 
 />
    <glyph glyph-name="LF" horiz-adv-x="0" 
 />
    <glyph glyph-name="CR" horiz-adv-x="0" 
 />
    <glyph glyph-name="DLE" horiz-adv-x="500" 
d="M111 318l-55 54l41 41s55 -55 54 -55c27 20 61 31 97 31c35 0 69 -11 95 -30l55 55l42 -41l-55 -55c18 -28 30 -61 30 -96c0 -36 -12 -69 -30 -96l55 -56l-42 -41l-55 56c-26 -19 -60 -30 -95 -30c-36 0 -70 11 -96 30l-55 -56l-41 42l55 55c-19 26 -30 60 -30 96
c0 35 11 68 30 96zM248 315c-51 0 -93 -43 -93 -93c0 -51 42 -93 93 -93s93 42 93 93c0 50 -42 93 -93 93z" />
    <glyph glyph-name="RS" horiz-adv-x="0" 
 />
    <glyph glyph-name="US" horiz-adv-x="0" 
 />
    <glyph glyph-name="DEL" horiz-adv-x="0" 
 />
    <glyph glyph-name="notequal" unicode="&#x2260;" 
d="M277 250l-42 -64h140v-78h-191l-55 -84l-46 27l38 57h-38v78h89l41 64h-130v78h181l65 100l46 -28l-47 -72h47v-78h-98z" />
    <glyph glyph-name="infinity" unicode="&#x221e;" horiz-adv-x="713" 
d="M641 219c0 -71 -53 -130 -134 -130c-49 0 -115 45 -158 86c-44 -41 -111 -86 -159 -86c-82 0 -135 59 -135 130c0 72 53 130 135 130c48 0 115 -45 159 -86c43 41 109 86 158 86c81 0 134 -58 134 -130zM571 219c0 35 -26 64 -62 64c-29 0 -90 -44 -116 -64
c26 -20 87 -64 116 -64c36 0 62 30 62 64zM290 219c-21 20 -72 64 -103 64c-36 0 -62 -29 -62 -64c0 -34 26 -64 62 -64c31 0 82 44 103 64z" />
    <glyph glyph-name="lessequal" unicode="&#x2264;" 
d="M408 61v-61h-358v61h358zM395 140l-16 -23l-329 151l329 150l16 -22l-167 -128z" />
    <glyph glyph-name="greaterequal" unicode="&#x2265;" 
d="M408 268l-329 -151l-16 23l167 128l-167 128l16 22zM408 0h-358v61h358v-61z" />
    <glyph glyph-name="partialdiff" unicode="&#x2202;" horiz-adv-x="533" 
d="M470 266c0 -233 -135 -283 -211 -283c-111 0 -201 85 -201 188s99 187 210 187c28 0 61 -6 85 -26c-4 123 -30 247 -122 247c-86 0 -91 -91 -133 -65c-45 29 30 106 134 106c154 0 238 -184 238 -354zM353 278c-15 23 -53 32 -85 32c-53 0 -86 -42 -86 -138
c0 -79 18 -140 77 -140c39 0 94 34 94 246z" />
    <glyph glyph-name="summation" unicode="&#x2211;" horiz-adv-x="598" 
d="M49 -170v17l219 417l-217 319v17h482l9 -141h-29l-5 20c-14 53 -25 76 -116 76h-244l228 -336l-181 -344h222c91 0 102 23 116 76l5 20h29l-9 -141h-509z" />
    <glyph glyph-name="product" unicode="&#x220f;" horiz-adv-x="733" 
d="M250 548v-402c0 -100 13 -117 96 -117v-29h-308v29c83 0 95 17 95 117v308c0 100 -12 117 -95 117v29h658v-29c-83 0 -96 -17 -96 -117v-308c0 -100 13 -117 96 -117v-29h-308v29c83 0 95 17 95 117v402h-233z" />
    <glyph glyph-name="pi" unicode="&#x3c0;" horiz-adv-x="505" 
d="M358 236v-168c0 -23 5 -41 19 -41c11 0 30 15 36 22l4 -31c-16 -21 -49 -35 -68 -35c-60 0 -88 35 -88 83v170h-63l-19 -183c-6 -53 -30 -70 -53 -70c-18 0 -35 14 -47 35l6 31c6 -7 22 -30 33 -30c14 0 20 14 23 42l19 175h-49c-44 0 -48 -29 -41 -54l-17 -4
c-30 64 -20 155 61 155h290c44 0 48 30 41 55l18 4c29 -64 42 -156 -62 -156h-43z" />
    <glyph glyph-name="integral" unicode="&#x222b;" horiz-adv-x="287" 
d="M198 -78c0 -133 -56 -189 -164 -189c-94 0 -144 57 -145 94c-1 20 11 35 33 35c55 0 25 -88 96 -88c40 0 67 30 67 156v484c0 136 51 203 169 203c80 0 126 -50 126 -88c0 -21 -13 -41 -38 -41c-60 0 -36 88 -90 88c-42 0 -54 -32 -54 -119v-535z" />
    <glyph glyph-name="Omega" unicode="&#x3a9;" horiz-adv-x="575" 
d="M328 204c65 24 80 111 80 177c0 78 -20 183 -120 183c-101 0 -122 -105 -122 -183c0 -66 16 -153 80 -177v-204h-173l-6 191h32l4 -20c10 -53 18 -76 87 -76h9v76c-86 35 -141 118 -141 207c0 116 94 225 230 225c135 0 229 -109 229 -225c0 -88 -56 -172 -141 -206v-77
h9c69 0 78 23 88 76l3 20h32l-6 -191h-174v204z" />
    <glyph glyph-name="Omega" unicode="&#x2126;" horiz-adv-x="575" 
d="M328 204c65 24 80 111 80 177c0 78 -20 183 -120 183c-101 0 -122 -105 -122 -183c0 -66 16 -153 80 -177v-204h-173l-6 191h32l4 -20c10 -53 18 -76 87 -76h9v76c-86 35 -141 118 -141 207c0 116 94 225 230 225c135 0 229 -109 229 -225c0 -88 -56 -172 -141 -206v-77
h9c69 0 78 23 88 76l3 20h32l-6 -191h-174v204z" />
    <glyph glyph-name="radical" unicode="&#x221a;" horiz-adv-x="549" 
d="M118 288l89 40l76 -189l224 602h49l-284 -763h-24z" />
    <glyph glyph-name="approxequal" unicode="&#x2248;" 
d="M95 311c0 0 28 33 67 33c40 0 92 -33 133 -33c38 0 67 33 67 33v-83s-28 -33 -67 -33c-40 0 -92 33 -133 33c-38 0 -67 -33 -67 -33v83zM95 178c0 0 28 33 67 33c40 0 92 -33 133 -33c38 0 67 33 67 33v-83s-28 -34 -67 -34c-40 0 -92 34 -133 34c-38 0 -67 -34 -67 -34
v84z" />
    <glyph glyph-name="Delta" unicode="&#x394;" horiz-adv-x="565" 
d="M118 52h270l-131 375zM45 0l228 617h30l217 -617h-475z" />
    <glyph glyph-name="Delta" unicode="&#x2206;" horiz-adv-x="565" 
d="M118 52h270l-131 375zM45 0l228 617h30l217 -617h-475z" />
    <glyph glyph-name="nbspace" horiz-adv-x="233" 
 />
    <glyph glyph-name="lozenge" unicode="&#x25ca;" horiz-adv-x="494" 
d="M250 626l192 -331l-192 -341l-192 341zM250 58l130 238l-130 227l-131 -227z" />
    <glyph glyph-name="apple" horiz-adv-x="0" 
 />
    <glyph glyph-name="s_s" unicode="&#xf008;" horiz-adv-x="595" 
d="M575 96c0 -80 -71 -113 -136 -113c-83 0 -123 71 -123 0h-29v146h29c0 -45 56 -104 122 -104c32 0 52 16 52 39c0 24 -22 39 -64 59l-56 25c-52 24 -75 65 -75 102c0 75 67 100 118 100c75 0 108 -41 108 0h29v-116h-29c0 42 -50 76 -92 76c-27 0 -49 -13 -49 -34
c0 -23 20 -33 69 -55l49 -23c50 -23 77 -63 77 -102zM85 414c0 136 51 203 169 203c80 0 126 -50 126 -88c0 -21 -13 -41 -38 -41c-60 0 -36 88 -90 88c-42 0 -54 -32 -54 -119v-531c0 -139 -74 -193 -168 -193c-71 0 -110 50 -109 85c-1 19 10 34 33 34c52 0 17 -84 81 -84
c36 0 50 41 50 158v488z" />
    <glyph glyph-name="T_H_E" unicode="&#xf293;" horiz-adv-x="1198" 
d="M690 296h-307v-150c0 -100 13 -117 96 -117v-29h-316v29c83 0 95 17 95 117v409h-100c-91 0 -102 -23 -115 -76l-5 -20h-30l9 141h462v-29c-83 0 -96 -17 -96 -117v-113h307v113c0 100 -12 117 -96 117v29h515l9 -141h-30l-5 20c-13 53 -24 76 -115 76h-153v-215h54
c100 0 117 13 117 96h29v-237h-29c0 84 -17 96 -117 96h-54v-133c0 -100 13 -117 96 -117h90c92 0 102 23 116 76l5 20h29l-8 -141h-549v29c84 0 96 17 96 117v150z" />
    <glyph glyph-name="c_k_y" unicode="&#xf270;" horiz-adv-x="1228" 
d="M903 254c-13 30 -27 49 -55 49c-30 0 -50 -11 -81 -35l-76 -58l117 -141c28 -33 52 -40 76 -40v-29h-141l-134 159v-21c0 -88 13 -109 63 -109v-29h-254v29c66 0 79 17 79 117v292c0 100 -13 116 -79 116c-126 0 -176 -118 -132 -213c50 -13 72 -43 72 -73
c0 -18 -15 -47 -49 -47s-57 31 -71 70c-2 7 -4 12 -5 19c-52 -2 -69 -62 -69 -152c0 -80 38 -126 102 -126c27 0 65 15 101 46l17 -29c-38 -41 -90 -66 -149 -66c-111 0 -193 75 -193 175c0 117 84 190 182 192c-23 149 81 227 194 242l191 25v-419l129 92
c40 28 88 65 141 65c78 0 113 -31 144 -101l58 -130l54 130c15 36 8 50 -29 50v29h148v-29c-35 0 -56 -14 -71 -50l-107 -261c-47 -112 -108 -256 -257 -256c-56 0 -95 37 -95 65c0 27 14 46 44 46c35 0 12 -51 70 -51c87 0 141 72 185 189z" />
    <glyph glyph-name="f_f_y" unicode="&#xf272;" horiz-adv-x="1032" 
d="M884 124l54 130c15 36 9 50 -29 50v29h149v-29c-35 0 -57 -14 -71 -50l-108 -261c-46 -112 -108 -256 -256 -256c-56 0 -95 37 -95 65c0 27 13 46 43 46c35 0 12 -51 71 -51c86 0 141 72 185 189l-114 253c-15 36 -35 50 -66 50h-88v-143c0 -100 13 -117 79 -117v-29
h-270v29c66 0 79 17 79 117v143h-224v-143c0 -100 12 -117 79 -117v-29h-271v29c67 0 79 17 79 117v143h-82v44h82v48c0 136 57 194 163 194c72 0 114 -45 114 -78c0 -20 -13 -38 -35 -38c-54 0 -33 79 -81 79c-38 0 -48 -28 -48 -107v-98h224v81c0 136 51 203 169 203
c80 0 126 -50 126 -88c0 -21 -14 -41 -39 -41c-60 0 -35 88 -90 88c-41 0 -54 -32 -54 -119v-124h300v-29c-42 0 -50 -13 -33 -50z" />
    <glyph glyph-name="A_V" unicode="&#xf284;" horiz-adv-x="787" 
d="M349 245l-80 183l-79 -183h159zM517 170l141 325c23 54 8 76 -75 76v29h241v-29c-68 0 -91 -17 -122 -88l-217 -500h-22l-95 217h-198l-41 -95c-23 -54 -8 -76 75 -76v-29h-242v29c69 0 92 17 123 88l217 500h21z" />
    <glyph glyph-name="A_A" unicode="&#xf283;" horiz-adv-x="1033" 
d="M757 245l-80 183l-79 -183h159zM349 245l-80 183l-79 -183h159zM483 -17h-21l-94 217h-198l-41 -95c-23 -54 -8 -76 75 -76v-29h-242v29c69 0 92 17 123 88l217 500h21l194 -444l192 444h22l217 -500c29 -64 43 -88 123 -88v-29h-328v29c88 0 98 23 75 76l-42 95h-198z
" />
    <glyph glyph-name="M_B" unicode="&#xf28a;" horiz-adv-x="1120" 
d="M813 45c85 1 125 57 125 125s-41 125 -128 125h-88v-139c0 -93 11 -110 91 -111zM722 555v-215h56c75 0 110 48 110 107c0 58 -35 108 -110 108h-56zM501 0v29c83 0 96 17 96 117v289l-196 -452h-22l-201 451v-288c0 -100 13 -117 96 -117v-29h-236v29c83 0 95 17 95 117
v308c0 100 -12 117 -95 117v29h200l193 -433l187 433h223c111 0 181 -67 181 -150c0 -52 -28 -97 -74 -124c77 -24 124 -86 124 -158c0 -93 -79 -168 -203 -168h-368z" />
    <glyph glyph-name="O_C" unicode="&#xf290;" horiz-adv-x="975" 
d="M469 53c-70 58 -115 147 -115 247c0 99 45 188 115 247c-25 14 -55 22 -90 22c-148 0 -208 -148 -208 -269s60 -269 208 -269c35 0 65 8 90 22zM529 493c-34 -52 -48 -125 -48 -193c0 -67 14 -141 48 -193c41 53 59 127 59 193s-18 140 -59 193zM585 548
c78 -57 128 -147 128 -248s-50 -190 -128 -248c23 -14 49 -21 80 -21c99 0 180 72 208 200h29v-220h-29c-5 24 -13 48 -25 57c-52 -53 -117 -85 -187 -85c-48 0 -94 12 -135 33c-44 -21 -94 -33 -147 -33c-183 0 -333 143 -333 317s150 317 333 317c53 0 103 -12 147 -33
c41 21 87 33 135 33c70 0 135 -31 187 -85c12 10 20 32 25 57h29v-220h-29c-28 130 -109 200 -208 200c-31 0 -57 -7 -80 -21z" />
    <glyph glyph-name="M_D" unicode="&#xf28b;" horiz-adv-x="1210" 
d="M722 555v-397c0 -97 12 -113 96 -113h10c161 0 195 142 195 255s-34 255 -195 255h-106zM501 0v29c83 0 96 17 96 117v289l-196 -452h-22l-201 451v-288c0 -100 13 -117 96 -117v-29h-236v29c83 0 95 17 95 117v308c0 100 -12 117 -95 117v29h200l193 -433l187 433h213
c232 0 333 -135 333 -300s-101 -300 -333 -300h-330z" />
    <glyph glyph-name="M_E" unicode="&#xf28c;" horiz-adv-x="1104" 
d="M1016 600l8 -141h-29l-5 20c-13 53 -24 76 -116 76h-152v-215h54c100 0 117 13 117 96h29v-237h-29c0 84 -17 96 -117 96h-54v-133c0 -100 12 -117 96 -117h90c91 0 102 23 115 76l5 20h30l-9 -141h-548v29c83 0 96 17 96 117v289l-196 -452h-22l-201 451v-288
c0 -100 13 -117 96 -117v-29h-236v29c83 0 95 17 95 117v308c0 100 -12 117 -95 117v29h200l193 -433l187 433h398z" />
    <glyph glyph-name="F_F" unicode="&#xf285;" horiz-adv-x="1138" 
d="M1113 600l9 -141h-29l-5 20c-14 53 -25 76 -116 76h-169v-215h54c100 0 116 13 116 96h30v-237h-30c0 84 -16 96 -116 96h-54v-149c0 -100 12 -117 95 -117v-29h-316v29c83 0 96 17 96 117v292c0 100 -13 117 -96 117h-324v-215h55c100 0 116 13 116 96h29v-237h-29
c0 84 -16 96 -116 96h-55v-149c0 -100 13 -117 96 -117v-29h-316v29c83 0 95 17 95 117v308c0 100 -12 117 -95 117v29h1075z" />
    <glyph glyph-name="O_G" unicode="&#xf291;" horiz-adv-x="1008" 
d="M469 53c-70 58 -115 147 -115 247c0 99 45 188 115 247c-25 14 -55 22 -90 22c-148 0 -208 -148 -208 -269s60 -269 208 -269c35 0 65 8 90 22zM529 493c-34 -52 -48 -125 -48 -193c0 -67 14 -141 48 -193c41 53 59 127 59 193s-18 140 -59 193zM585 548
c78 -57 128 -147 128 -248s-50 -190 -128 -248c23 -14 49 -21 80 -21c78 0 150 32 150 124c0 43 -16 64 -61 64v29h263v-29c-84 0 -96 -16 -96 -116v-68c-118 0 -159 -52 -260 -52c-48 0 -94 12 -135 33c-44 -21 -94 -33 -147 -33c-183 0 -333 143 -333 317s150 317 333 317
c53 0 103 -12 147 -33c41 21 87 33 135 33c70 0 135 -31 187 -85c12 10 20 32 25 57h29v-220h-29c-28 130 -109 200 -208 200c-31 0 -57 -7 -80 -21z" />
    <glyph glyph-name="H_E" unicode="&#xf288;" horiz-adv-x="1073" 
d="M565 296h-307v-150c0 -100 13 -117 96 -117v-29h-316v29c83 0 95 17 95 117v308c0 100 -12 117 -95 117v29h316v-29c-83 0 -96 -17 -96 -117v-113h307v113c0 100 -12 117 -96 117v29h515l9 -141h-30l-5 20c-13 53 -24 76 -115 76h-153v-215h54c100 0 117 13 117 96h29
v-237h-29c0 84 -17 96 -117 96h-54v-133c0 -100 13 -117 96 -117h90c92 0 102 23 116 76l5 20h29l-8 -141h-549v29c84 0 96 17 96 117v150z" />
    <glyph glyph-name="F_I" unicode="&#xf286;" horiz-adv-x="944" 
d="M907 600v-29c-84 0 -96 -17 -96 -117v-308c0 -100 12 -117 96 -117v-29h-317v29c83 0 96 17 96 117v292c0 100 -13 117 -96 117h-332v-215h55c100 0 116 13 116 96h29v-237h-29c0 84 -16 96 -116 96h-55v-149c0 -100 13 -117 96 -117v-29h-316v29c83 0 95 17 95 117v308
c0 100 -12 117 -95 117v29h869z" />
    <glyph glyph-name="U_B" unicode="&#xf29a;" horiz-adv-x="1078" 
d="M770 45c85 1 125 57 125 125s-41 125 -127 125h-89v-139c0 -93 12 -110 91 -111zM679 555v-215h56c75 0 110 48 110 107c0 58 -35 108 -110 108h-56zM554 0v63c-44 -53 -112 -80 -187 -80c-133 0 -240 83 -240 240v231c0 100 -13 117 -96 117v29h317v-29
c-84 0 -96 -17 -96 -117v-220c0 -129 69 -189 155 -189s147 60 147 189v220c0 100 -12 117 -96 117v29h340c111 0 181 -67 181 -150c0 -52 -27 -97 -74 -124c78 -24 124 -86 124 -158c0 -93 -78 -168 -202 -168h-273z" />
    <glyph glyph-name="N_K" unicode="&#xf28e;" horiz-adv-x="1152" 
d="M622 -17h-30l-414 494v-331c0 -100 13 -117 96 -117v-29h-236v29c83 0 95 17 95 117v308c0 100 -12 117 -95 117v29h200l275 -329v183c0 100 -12 117 -95 117v29h300v-29c-84 0 -96 -17 -96 -117v-134l209 169c26 21 87 82 4 82v29h241v-29c-83 0 -118 -30 -183 -82
l-143 -114l278 -287c34 -35 101 -59 129 -59v-29h-333v29c53 0 76 18 38 59l-198 214l-42 -35v-284z" />
    <glyph glyph-name="F_L" unicode="&#xf287;" horiz-adv-x="1186" 
d="M907 600v-29c-84 0 -96 -17 -96 -117v-292c0 -100 12 -117 96 -117h115c91 0 102 23 116 76l5 20h29l-9 -141h-573v29c83 0 96 17 96 117v292c0 100 -13 117 -96 117h-332v-215h55c100 0 116 13 116 96h29v-237h-29c0 84 -16 96 -116 96h-55v-149c0 -100 13 -117 96 -117
v-29h-316v29c83 0 95 17 95 117v308c0 100 -12 117 -95 117v29h869z" />
    <glyph glyph-name="L_A" unicode="&#xf289;" horiz-adv-x="1117" 
d="M841 245l-80 183l-79 -183h159zM38 0v29c83 0 95 17 95 117v308c0 100 -12 117 -95 117v29h316v-29c-83 0 -96 -17 -96 -117v-292c0 -100 13 -117 96 -117h73h34c68 0 92 17 122 88l210 484h22l218 -500c28 -64 42 -88 122 -88v-29h-328v29c88 0 98 23 75 76l-42 95h-198
l-41 -95c-23 -54 -8 -76 75 -76v-29h-658z" />
    <glyph glyph-name="N_T" unicode="&#xf28f;" horiz-adv-x="1308" 
d="M1291 600l8 -141h-29l-5 20c-13 53 -24 76 -116 76h-100v-409c0 -100 13 -117 96 -117v-29h-317v29c84 0 96 17 96 117v409h-211c-84 0 -96 -17 -96 -117v-455h-25l-414 494v-331c0 -100 13 -117 96 -117v-29h-236v29c83 0 95 17 95 117v308c0 100 -12 117 -95 117v29
h200l334 -398v252c0 100 -13 117 -96 117v29h815z" />
    <glyph glyph-name="O_O" unicode="&#xf292;" horiz-adv-x="1067" 
d="M533 488c-37 -53 -54 -124 -54 -188c0 -63 17 -135 54 -188c38 53 55 124 55 188c0 63 -17 135 -55 188zM533 581c46 22 99 36 155 36c183 0 333 -143 333 -317s-150 -317 -333 -317c-56 0 -108 14 -155 36c-45 -22 -98 -36 -154 -36c-183 0 -333 143 -333 317
s150 317 333 317c56 0 108 -14 154 -36zM475 57c-73 58 -121 146 -121 243c0 98 47 186 121 243c-27 17 -58 26 -96 26c-148 0 -208 -148 -208 -269s60 -269 208 -269c38 0 69 9 96 26zM592 543c73 -58 121 -145 121 -243c0 -97 -47 -186 -121 -243c26 -17 58 -26 96 -26
c148 0 208 148 208 269s-60 269 -208 269c-38 0 -70 -9 -96 -26z" />
    <glyph glyph-name="M_P" unicode="&#xf28d;" horiz-adv-x="1062" 
d="M777 308c86 0 127 55 127 123s-41 124 -127 124h-55v-247h55zM501 0v29c83 0 96 17 96 117v289l-196 -452h-22l-201 451v-288c0 -100 13 -117 96 -117v-29h-236v29c83 0 95 17 95 117v308c0 100 -12 117 -95 117v29h200l193 -433l187 433h218c124 0 202 -76 202 -169
s-78 -168 -202 -168h-114v-117c0 -100 12 -117 96 -117v-29h-317z" />
    <glyph glyph-name="T_E" unicode="&#xf295;" horiz-adv-x="766" 
d="M678 600l8 -141h-29l-5 20c-14 53 -24 76 -116 76h-153v-215h55c100 0 116 13 116 96h29v-237h-29c0 84 -16 96 -116 96h-55v-133c0 -100 13 -117 96 -117h90c92 0 103 23 116 76l5 20h29l-8 -141h-548v29c83 0 95 17 95 117v409h-100c-91 0 -102 -23 -115 -76l-5 -20
h-30l9 141h661z" />
    <glyph glyph-name="T_R" unicode="&#xf296;" horiz-adv-x="803" 
d="M438 308c87 0 128 55 128 123s-41 124 -128 124h-55v-247h55zM163 0v29c83 0 95 17 95 117v409h-100c-91 0 -102 -23 -115 -76l-5 -20h-30l9 141h481c124 0 202 -76 202 -169c0 -87 -68 -158 -177 -168l97 -106c88 -97 126 -120 187 -128v-29h-217l-178 263h-29v-117
c0 -100 13 -117 96 -117v-29h-316z" />
    <glyph glyph-name="U_D" unicode="&#xf29b;" horiz-adv-x="1168" 
d="M679 555v-397c0 -97 13 -113 96 -113h10c162 0 195 142 195 255s-33 255 -195 255h-106zM554 0v63c-44 -53 -112 -80 -187 -80c-133 0 -240 83 -240 240v231c0 100 -13 117 -96 117v29h317v-29c-84 0 -96 -17 -96 -117v-220c0 -129 69 -189 155 -189s147 60 147 189v220
c0 100 -12 117 -96 117v29h330c233 0 334 -135 334 -300s-101 -300 -334 -300h-234z" />
    <glyph glyph-name="T_T" unicode="&#xf297;" horiz-adv-x="1183" 
d="M1167 600l8 -141h-29l-5 20c-13 53 -24 76 -116 76h-100v-409c0 -100 13 -117 96 -117v-29h-317v29c84 0 96 17 96 117v409h-417v-409c0 -100 13 -117 96 -117v-29h-316v29c83 0 95 17 95 117v409h-100c-91 0 -102 -23 -115 -76l-5 -20h-30l9 141h1150z" />
    <glyph glyph-name="U_P" unicode="&#xf29d;" horiz-adv-x="1019" 
d="M734 308c87 0 128 55 128 123s-41 124 -128 124h-55v-247h55zM554 0v63c-44 -53 -112 -80 -187 -80c-133 0 -240 83 -240 240v231c0 100 -13 117 -96 117v29h317v-29c-84 0 -96 -17 -96 -117v-220c0 -129 69 -189 155 -189s147 60 147 189v220c0 100 -12 117 -96 117v29
h335c125 0 203 -76 203 -169s-78 -168 -203 -168h-114v-117c0 -100 13 -117 96 -117v-29h-221z" />
    <glyph glyph-name="V_A" unicode="&#xf29f;" horiz-adv-x="872" 
d="M910 0h-328v29c88 0 98 23 75 76l-42 95h-198l-94 -217h-21l-218 500c-28 65 -42 88 -122 88v29h328v-29c-88 0 -98 -23 -75 -76l140 -325l193 447h22l218 -500c28 -64 42 -88 122 -88v-29zM596 245l-80 183l-79 -183h159z" />
    <glyph glyph-name="T_W" unicode="&#xf298;" horiz-adv-x="1353" 
d="M865 600v-29c-83 0 -97 -18 -78 -76l91 -281l122 386h23l125 -387l92 282c18 54 2 76 -70 76v29h233v-29c-83 0 -97 -20 -119 -88l-161 -500h-22l-126 387l-123 -387h-22l-157 485c-21 68 -35 87 -119 87h-23h-148v-409c0 -100 13 -117 96 -117v-29h-316v29
c83 0 95 17 95 117v409h-100c-91 0 -102 -23 -115 -76l-5 -20h-30l9 141h848z" />
    <glyph glyph-name="U_L" unicode="&#xf29c;" horiz-adv-x="1054" 
d="M775 600v-29c-83 0 -96 -17 -96 -117v-292c0 -100 13 -117 96 -117h115c92 0 103 23 116 76l5 20h29l-8 -141h-478v63c-44 -53 -112 -80 -187 -80c-133 0 -240 83 -240 240v231c0 100 -13 117 -96 117v29h317v-29c-84 0 -96 -17 -96 -117v-220c0 -129 69 -189 155 -189
s147 60 147 189v220c0 100 -12 117 -96 117v29h317z" />
    <glyph glyph-name="T_Y" unicode="&#xf299;" horiz-adv-x="1200" 
d="M873 600v-29c-70 0 -90 -23 -54 -76l113 -169l111 169c36 54 25 76 -53 76v29h242v-29c-84 0 -102 -23 -144 -88l-144 -216v-121c0 -100 13 -117 96 -117v-29h-312v29c83 0 95 17 95 117v118l-134 204c-46 70 -74 87 -144 87h-57h-105v-409c0 -100 13 -117 96 -117v-29
h-316v29c83 0 95 17 95 117v409h-100c-91 0 -102 -23 -115 -76l-5 -20h-30l9 141h856z" />
    <glyph glyph-name="U_R" unicode="&#xf29e;" horiz-adv-x="1099" 
d="M734 308c87 0 128 55 128 123s-41 124 -128 124h-55v-247h55zM554 0v63c-44 -53 -112 -80 -187 -80c-133 0 -240 83 -240 240v231c0 100 -13 117 -96 117v29h317v-29c-84 0 -96 -17 -96 -117v-220c0 -129 69 -189 155 -189s147 60 147 189v220c0 100 -12 117 -96 117v29
h335c125 0 203 -76 203 -169c0 -87 -68 -158 -178 -168l98 -106c88 -97 126 -120 187 -128v-29h-217l-178 263h-29v-117c0 -100 13 -117 96 -117v-29h-221z" />
    <glyph glyph-name="T_h" unicode="&#xf294;" horiz-adv-x="1108" 
d="M383 555v-409c0 -100 13 -117 96 -117v-29h-316v29c83 0 95 17 95 117v409h-100c-91 0 -102 -23 -115 -76l-5 -20h-30l9 141h557c92 0 199 17 199 17v-321c27 32 65 54 119 54c90 0 144 -64 144 -149v-55c0 -100 12 -117 79 -117v-29h-231v29c25 0 39 17 39 117v42
c0 65 -11 106 -61 106c-40 0 -89 -32 -89 -99v-49c0 -100 13 -117 80 -117v-29h-271v29c66 0 79 17 79 117v292c0 100 -13 117 -79 117h-199z" />
    <glyph glyph-name="a_e" unicode="&#xf26e;" horiz-adv-x="883" 
d="M626 229h133c4 41 -18 73 -61 73c-37 0 -61 -25 -72 -73zM261 88v85c-77 -20 -123 -40 -123 -90c0 -30 20 -40 40 -40c16 0 49 15 83 45zM366 223c42 3 92 6 144 6c27 73 99 121 183 121c109 0 165 -96 144 -165h-218c-7 -102 45 -149 99 -149c45 0 87 15 118 42l17 -29
c-35 -37 -95 -66 -152 -66c-120 0 -202 83 -202 184c0 6 0 12 1 18c-42 -1 -92 -2 -134 -5v-101c0 -25 8 -38 22 -38c11 0 21 7 29 12l14 -27c-29 -22 -70 -37 -93 -37c-45 0 -70 22 -77 58c-56 -44 -81 -60 -126 -60c-48 0 -96 31 -96 84c0 85 91 122 222 142v1
c0 74 -23 95 -65 95c-23 0 -54 -13 -54 -39c0 -27 -18 -43 -40 -43s-39 16 -39 43c0 50 72 80 145 80c108 0 155 -38 158 -127z" />
    <glyph glyph-name="c_t" unicode="&#xf26f;" horiz-adv-x="716" 
d="M233 310c-52 -2 -69 -62 -69 -152c0 -80 38 -126 102 -126c27 0 65 15 101 46l17 -29c-38 -41 -90 -66 -149 -66c-111 0 -193 75 -193 175c0 117 84 190 182 192c-22 146 80 230 186 230c110 0 184 -64 184 -170v-77h87v-44h-87v-174c0 -47 14 -72 45 -72
c19 0 40 9 68 29l14 -29c-33 -30 -88 -57 -123 -57c-72 0 -116 45 -116 122v181h-53v33c19 4 22 6 22 6c67 18 96 72 96 112c0 53 -45 114 -139 114c-82 0 -177 -82 -122 -213c50 -13 72 -43 72 -73c0 -18 -15 -47 -49 -47s-57 31 -71 70c-2 7 -4 12 -5 19z" />
    <glyph glyph-name="f_y" unicode="&#xf273;" horiz-adv-x="695" 
d="M548 124l54 130c15 36 8 50 -29 50v29h148v-29c-35 0 -57 -14 -71 -50l-107 -261c-47 -112 -109 -256 -257 -256c-56 0 -95 37 -95 65c0 27 13 46 43 46c35 0 13 -51 71 -51c87 0 141 72 185 189l-113 253c-16 36 -36 50 -67 50h-87v-143c0 -100 12 -117 79 -117v-29
h-271v29c67 0 79 17 79 117v143h-82v44h82v81c0 136 51 203 169 203c80 0 126 -50 126 -88c0 -21 -13 -41 -38 -41c-60 0 -36 88 -90 88c-42 0 -54 -32 -54 -119v-124h300v-29c-43 0 -50 -13 -34 -50z" />
    <glyph glyph-name="e_e" unicode="&#xf271;" horiz-adv-x="858" 
d="M302 229c3 41 -19 73 -62 73c-37 0 -61 -25 -72 -73h134zM735 229c3 41 -18 73 -62 73c-36 0 -60 -25 -71 -73h133zM476 185h-314c-8 -102 45 -149 98 -149c45 0 88 15 118 42l18 -29c-35 -37 -96 -66 -153 -66c-120 0 -201 83 -201 184c0 106 88 183 193 183
c88 0 141 -61 148 -121h103c27 73 99 121 182 121c110 0 166 -96 145 -165h-218c-7 -102 45 -149 98 -149c45 0 88 15 119 42l17 -29c-35 -37 -96 -66 -152 -66c-120 0 -202 83 -202 184c0 6 0 12 1 18z" />
    <glyph glyph-name="g_i" unicode="&#xf276;" horiz-adv-x="699" 
d="M250 206c0 53 -17 95 -56 95c-38 0 -56 -42 -56 -95s18 -95 56 -95c39 0 56 42 56 95zM278 318c-38 172 90 302 247 255c18 -5 66 -30 66 -71c0 -27 -22 -49 -48 -49c-25 0 -39 19 -51 46c-43 92 -239 26 -174 -218c16 -21 25 -47 25 -75c0 -68 -56 -129 -138 -136
c-49 -4 -92 -6 -92 -33c0 -20 35 -21 106 -29c126 -13 170 -83 170 -141c0 -87 -86 -142 -191 -142c-182 0 -241 120 -116 182l19 -11c-85 -91 21 -129 87 -129c70 0 119 28 119 69c0 34 -24 54 -149 67c-85 9 -125 40 -125 100c0 37 35 71 87 88c-43 18 -75 63 -75 115
c0 75 68 136 149 136c30 0 59 -9 84 -24zM678 -8h-270v29c66 0 79 17 79 117v33c0 100 -13 117 -79 117v29l191 25v-204c0 -100 13 -117 79 -117v-29z" />
    <glyph glyph-name="i_t" unicode="&#xf279;" horiz-adv-x="633" 
d="M310 0h-271v29c67 0 79 17 79 117v33c0 100 -12 117 -79 117v29l192 25v-204c0 -100 12 -117 79 -117v-29zM219 477c-8 -14 -29 -25 -46 -25c-30 0 -55 26 -55 58c0 67 116 70 218 70c110 0 184 -64 184 -170v-77h87v-44h-87v-174c0 -47 13 -72 45 -72c18 0 40 9 68 29
l14 -29c-33 -30 -89 -57 -123 -57c-72 0 -116 45 -116 122v181h-53v33c18 4 22 6 22 6c67 18 96 72 96 112c0 53 -45 114 -140 114c-59 0 -84 -25 -114 -77z" />
    <glyph glyph-name="k_y" unicode="&#xf27a;" horiz-adv-x="823" 
d="M676 124l54 130c15 36 8 50 -29 50v29h148v-29c-35 0 -56 -14 -71 -50l-107 -261c-47 -112 -108 -256 -257 -256c-56 0 -95 37 -95 65c0 27 14 46 44 46c35 0 12 -51 70 -51c87 0 141 72 185 189l-120 268c-13 30 -27 49 -55 49c-30 0 -50 -11 -81 -35l-76 -58l117 -141
c28 -33 52 -40 76 -40v-29h-141l-134 159v-21c0 -88 13 -109 63 -109v-29h-254v29c66 0 79 17 79 117v300c0 100 -13 117 -79 117v29l191 25v-419l129 92c39 28 88 65 141 65c78 0 113 -31 144 -101z" />
    <glyph glyph-name="g_g" unicode="&#xf275;" horiz-adv-x="820" 
d="M250 214c0 54 -17 95 -56 95c-38 0 -56 -41 -56 -95c0 -53 18 -95 56 -95c39 0 56 42 56 95zM426 389c-38 9 -18 54 -57 54c-54 0 -67 -66 -50 -156c19 -23 24 -43 24 -73c0 -68 -56 -129 -138 -136c-49 -4 -92 -5 -92 -33c0 -20 35 -21 106 -28
c126 -14 170 -84 170 -141c0 -88 -86 -143 -191 -143c-182 0 -241 120 -116 182l19 -11c-85 -91 21 -128 87 -128c70 0 119 27 119 68c0 34 -24 54 -149 68c-85 9 -125 40 -125 100c0 36 35 71 87 87c-43 19 -75 64 -75 115c0 75 68 136 149 136c40 0 69 -14 94 -32
c-25 113 35 172 109 172c96 0 87 -115 29 -101zM660 214c0 54 -17 95 -56 95c-38 0 -56 -41 -56 -95c0 -53 18 -95 56 -95c39 0 56 42 56 95zM669 343c42 0 91 9 91 57c0 39 -44 19 -53 57c-14 58 101 66 101 -29c0 -57 -35 -106 -104 -114c30 -25 49 -60 49 -100
c0 -68 -56 -129 -138 -136c-49 -4 -92 -5 -92 -33c0 -20 35 -21 106 -28c126 -14 170 -84 170 -141c0 -88 -86 -143 -191 -143c-182 0 -240 120 -116 182l19 -11c-85 -91 21 -128 87 -128c70 0 119 27 119 68c0 34 -24 54 -149 68c-85 9 -125 40 -125 100c0 36 35 71 87 87
c-43 19 -75 64 -75 115c0 75 68 136 149 136c21 0 47 -7 65 -7z" />
    <glyph glyph-name="g_y" unicode="&#xf277;" horiz-adv-x="768" 
d="M522 -233c-9 -20 -22 -37 -38 -37c-14 0 -40 7 -40 37c0 38 45 35 76 113l43 106l-120 268c-15 36 -35 50 -66 50v29h219v-29c-43 0 -50 -13 -33 -50l58 -130l54 130c15 36 8 50 -29 50v29h148v-29c-35 0 -56 -14 -71 -50zM250 214c0 54 -17 95 -56 95
c-38 0 -56 -41 -56 -95c0 -53 18 -95 56 -95c39 0 56 42 56 95zM113 45c0 -20 35 -21 106 -28c126 -14 170 -84 170 -141c0 -88 -86 -143 -191 -143c-182 0 -241 120 -116 182l19 -11c-85 -91 21 -128 87 -128c70 0 119 27 119 68c0 34 -24 54 -149 68
c-85 9 -125 40 -125 100c0 36 35 71 87 87c-43 19 -75 64 -75 115c0 75 68 136 149 136c40 0 69 -14 94 -32c-25 113 35 172 109 172c96 0 87 -115 29 -101c-38 9 -18 54 -57 54c-54 0 -67 -66 -50 -156c19 -23 24 -43 24 -73c0 -68 -56 -129 -138 -136
c-49 -4 -92 -5 -92 -33z" />
    <glyph glyph-name="o_e" unicode="&#xf27b;" horiz-adv-x="928" 
d="M672 229h133c3 41 -18 73 -62 73c-36 0 -60 -25 -71 -73zM323 167c0 75 -25 136 -80 136c-54 0 -79 -61 -79 -136s25 -137 79 -137c55 0 80 62 80 137zM433 229h123c27 73 99 121 182 121c110 0 166 -96 145 -165h-218c-7 -102 45 -149 98 -149c45 0 88 15 119 42l17 -29
c-35 -37 -96 -66 -152 -66c-120 0 -202 83 -202 184c0 6 0 12 1 18h-102c1 -6 1 -12 1 -18c0 -101 -91 -184 -202 -184c-110 0 -201 83 -201 184s91 183 201 183c87 0 161 -51 190 -121z" />
    <glyph glyph-name="s_p" unicode="&#xf27d;" horiz-adv-x="860" 
d="M688 167c0 76 -24 136 -75 136c-35 0 -67 -36 -67 -88v-97c0 -51 32 -88 67 -88c51 0 75 61 75 137zM393 331c70 10 98 69 98 109c0 53 -36 114 -130 114c-82 0 -168 -87 -113 -218c25 -13 52 -28 52 -61c0 -14 -12 -37 -39 -37c-28 0 -46 25 -57 55c-1 2 -2 8 -5 15
c-5 2 -10 2 -15 2c-27 0 -49 -13 -49 -34c0 -23 20 -33 69 -55l49 -23c50 -23 77 -63 77 -102c0 -80 -71 -113 -136 -113c-83 0 -123 71 -123 0h-29v146h29c0 -45 56 -104 122 -104c32 0 52 16 52 39c0 24 -22 39 -64 59l-56 25c-52 24 -75 65 -75 102c0 75 67 100 118 100
c8 0 15 0 22 -1c-2 13 -3 26 -3 40c0 122 81 191 176 191c110 0 175 -64 175 -170v-96c23 22 54 36 90 36c113 0 182 -82 182 -183s-69 -184 -182 -184c-32 0 -61 12 -82 30v-117c0 -100 12 -117 79 -117v-29h-271v29c67 0 79 17 79 117v283c0 100 -12 117 -79 117v29z" />
    <glyph glyph-name="g_g_y" unicode="&#xf274;" horiz-adv-x="1178" 
d="M401 249c-38 9 -18 54 -51 54c-7 0 -20 -5 -31 -16c19 -23 24 -43 24 -73c0 -68 -56 -129 -138 -136c-49 -4 -92 -5 -92 -33c0 -20 35 -21 106 -28c126 -14 170 -84 170 -141c0 -88 -86 -143 -191 -143c-182 0 -241 120 -116 182l19 -11c-85 -91 21 -128 87 -128
c70 0 119 27 119 68c0 34 -24 54 -149 68c-85 9 -125 40 -125 100c0 36 35 71 87 87c-43 19 -75 64 -75 115c0 75 68 136 149 136c40 0 76 -14 104 -38c17 22 53 38 74 38c96 0 87 -115 29 -101zM250 214c0 54 -17 95 -56 95c-38 0 -56 -41 -56 -95c0 -53 18 -95 56 -95
c39 0 56 42 56 95zM932 -233c-9 -20 -22 -37 -38 -37c-14 0 -40 7 -40 37c0 38 45 35 76 113l43 106l-120 268c-15 36 -35 50 -66 50v29h219v-29c-43 0 -50 -13 -33 -50l58 -130l54 130c15 36 8 50 -29 50v29h148v-29c-35 0 -56 -14 -71 -50zM660 214c0 54 -17 95 -56 95
c-38 0 -56 -41 -56 -95c0 -53 18 -95 56 -95c39 0 56 42 56 95zM523 45c0 -20 35 -21 106 -28c126 -14 170 -84 170 -141c0 -88 -86 -143 -191 -143c-182 0 -240 120 -116 182l19 -11c-85 -91 21 -128 87 -128c70 0 119 27 119 68c0 34 -24 54 -149 68
c-85 9 -125 40 -125 100c0 36 35 71 87 87c-43 19 -75 64 -75 115c0 75 68 136 149 136c40 0 69 -14 94 -32c-25 113 35 172 109 172c96 0 87 -115 29 -101c-38 9 -18 54 -57 54c-54 0 -67 -66 -50 -156c19 -23 24 -43 24 -73c0 -68 -56 -129 -138 -136
c-49 -4 -92 -5 -92 -33z" />
    <glyph glyph-name="s_t" unicode="&#xf27e;" horiz-adv-x="661" 
d="M190 349c-2 13 -3 26 -3 40c0 122 81 191 176 191c110 0 176 -64 176 -170v-77h87v-44h-87v-174c0 -47 14 -72 45 -72c19 0 40 9 68 29l14 -29c-33 -30 -88 -57 -123 -57c-72 0 -116 45 -116 122v181h-53v33c19 4 22 6 22 6c67 18 96 72 96 112c0 53 -37 114 -131 114
c-82 0 -168 -87 -113 -218c25 -13 52 -28 52 -61c0 -14 -12 -37 -39 -37c-28 0 -46 25 -57 55c-1 2 -2 8 -5 15c-5 2 -10 2 -15 2c-27 0 -49 -13 -49 -34c0 -23 20 -33 69 -55l49 -23c50 -23 77 -63 77 -102c0 -80 -71 -113 -136 -113c-83 0 -123 71 -123 0h-29v146h29
c0 -45 56 -104 122 -104c32 0 52 16 52 39c0 24 -22 39 -64 59l-56 25c-52 24 -75 65 -75 102c0 75 67 100 118 100c8 0 15 0 22 -1z" />
    <glyph glyph-name="i_p" unicode="&#xf278;" horiz-adv-x="841" 
d="M668 167c0 76 -23 136 -75 136c-34 0 -66 -36 -66 -88v-97c0 -51 32 -88 66 -88c52 0 75 61 75 137zM472 440c0 53 -45 114 -139 114c-54 0 -85 -22 -114 -76c-7 -14 -30 -26 -46 -26c-31 0 -56 26 -56 58c0 67 116 70 218 70c110 0 184 -64 184 -170v-96
c23 22 54 36 90 36c113 0 182 -82 182 -183s-69 -184 -182 -184c-32 0 -61 12 -82 30v-117c0 -100 12 -117 79 -117v-29h-271v29c67 0 79 17 79 117v283c0 100 -12 117 -79 117v29l39 6c73 11 98 73 98 109zM310 0h-271v29c67 0 79 17 79 117v33c0 100 -12 117 -79 117v29
l192 25v-204c0 -100 12 -117 79 -117v-29z" />
    <glyph glyph-name="p_y" unicode="&#xf27c;" horiz-adv-x="868" 
d="M338 167c0 76 -24 136 -75 136c-35 0 -67 -36 -67 -88v-97c0 -51 32 -88 67 -88c51 0 75 61 75 137zM460 167c0 -101 -69 -184 -182 -184c-32 0 -61 12 -82 30v-117c0 -100 12 -117 79 -117v-29h-271v29c67 0 79 17 79 117v283c0 100 -12 117 -79 117v29l175 25
c3 -5 6 -21 9 -36c23 22 54 36 90 36c113 0 182 -82 182 -183zM716 -7c-47 -112 -108 -256 -257 -256c-56 0 -95 37 -95 65c0 27 14 46 44 46c35 0 12 -51 70 -51c87 0 141 72 185 189l-120 268c-15 36 -35 50 -66 50v29h219v-29c-43 0 -50 -13 -33 -50l58 -130l54 130
c15 36 8 50 -29 50v29h148v-29c-35 0 -56 -14 -71 -50z" />
    <glyph glyph-name="t_w" unicode="&#xf282;" horiz-adv-x="808" 
d="M484 333v-29c-42 0 -49 -11 -33 -50l41 -99l69 178h32l74 -178l38 99c14 38 8 50 -29 50v29h148v-29c-35 0 -55 -9 -71 -50l-105 -272h-20l-80 193l-75 -193h-20l-107 257c-17 39 -32 50 -67 50h-90v-174c0 -47 14 -72 45 -72c19 0 40 9 68 29l14 -29
c-33 -30 -88 -57 -123 -57c-72 0 -116 45 -116 122v181h-53v33c60 13 124 72 131 137h34v-126h295z" />
    <glyph glyph-name="t_t" unicode="&#xf280;" horiz-adv-x="605" 
d="M315 333c88 0 136 72 143 137h34v-137h86v-44h-86v-174c0 -47 13 -72 45 -72c18 0 40 9 67 29l14 -29c-32 -30 -88 -57 -122 -57c-73 0 -117 45 -117 122v181h-190v-174c0 -47 14 -72 45 -72c19 0 40 9 68 29l14 -29c-33 -30 -88 -57 -123 -57c-72 0 -116 45 -116 122
v181h-53v33c60 13 126 73 131 148h34v-137h126z" />
    <glyph glyph-name="t_y" unicode="&#xf281;" horiz-adv-x="661" 
d="M343 239c-16 36 -36 50 -67 50h-87v-174c0 -47 14 -72 45 -72c19 0 40 9 68 29l14 -29c-33 -30 -88 -57 -123 -57c-72 0 -116 45 -116 122v181h-53v33c60 13 126 73 131 148h34v-137h299v-29c-42 0 -50 -13 -33 -50l58 -130l55 130c15 36 8 50 -30 50v29h149v-29
c-35 0 -57 -14 -71 -50l-108 -261c-46 -112 -108 -256 -256 -256c-56 0 -95 37 -95 65c0 27 13 46 43 46c35 0 13 -51 71 -51c87 0 141 72 185 189z" />
    <glyph glyph-name="t_t_y" unicode="&#xf27f;" horiz-adv-x="963" 
d="M645 239c-16 36 -36 50 -67 50h-86v-174c0 -47 13 -72 45 -72c18 0 40 9 67 29l14 -29c-32 -30 -88 -57 -122 -57c-73 0 -117 45 -117 122v181h-190v-174c0 -47 14 -72 45 -72c19 0 40 9 68 29l14 -29c-33 -30 -88 -57 -123 -57c-72 0 -116 45 -116 122v181h-53v33
c60 13 126 73 131 148h34v-137h126c88 0 136 72 143 137h34v-137h299v-29c-43 0 -50 -13 -33 -50l58 -130l54 130c15 36 8 50 -29 50v29h148v-29c-35 0 -56 -14 -71 -50l-107 -261c-47 -112 -108 -256 -257 -256c-56 0 -95 37 -95 65c0 27 14 46 44 46c35 0 12 -51 70 -51
c87 0 141 72 185 189z" />
    <glyph glyph-name="quoteleft.alt" unicode="&#xf007;" horiz-adv-x="251" 
d="M192 553c0 -35 -28 -65 -63 -65h-5c6 -36 29 -73 65 -110l-20 -20c-75 47 -112 122 -112 180c0 52 37 79 72 79s63 -29 63 -64z" />
    <glyph glyph-name="quotedblleft.alt" unicode="&#xf006;" horiz-adv-x="434" 
d="M375 553c0 -35 -27 -65 -62 -65h-5c5 -36 29 -73 65 -110l-20 -20c-75 47 -113 122 -113 180c0 52 38 79 73 79s62 -29 62 -64zM192 553c0 -35 -28 -65 -63 -65h-5c6 -36 29 -73 65 -110l-20 -20c-75 47 -112 122 -112 180c0 52 37 79 72 79s63 -29 63 -64z" />
    <glyph glyph-name="zero.lprp" unicode="&#xf144;" horiz-adv-x="575" 
d="M513 300c0 -174 -103 -317 -225 -317c-123 0 -225 143 -225 317s102 317 225 317c122 0 225 -143 225 -317zM288 568c-74 0 -99 -144 -99 -268s25 -268 99 -268c73 0 98 144 98 268s-25 268 -98 268z" />
    <glyph glyph-name="one.lprp" unicode="&#xf145;" horiz-adv-x="408" 
d="M339 0h-271v29c67 0 80 17 80 117v300c0 100 -34 108 -100 108v29l212 34v-471c0 -100 13 -117 79 -117v-29z" />
    <glyph glyph-name="two.lprp" unicode="&#xf146;" horiz-adv-x="508" 
d="M54 0v24l159 199c76 97 92 184 92 232c0 63 -25 110 -85 110c-59 0 -102 -60 -59 -132l-48 -40c-126 73 -78 224 106 224c119 0 206 -81 206 -166c0 -80 -62 -142 -142 -233l-110 -126h132c88 0 102 16 118 76h22l-30 -168h-361z" />
    <glyph glyph-name="three.lprp" unicode="&#xf147;" horiz-adv-x="525" 
d="M258 285c-25 -19 -43 -61 -69 -40c-20 16 1 36 19 54l55 58c36 36 52 83 52 112c0 62 -32 97 -82 97c-60 0 -108 -58 -63 -138l-47 -31c-120 72 -58 220 116 220c114 0 208 -46 208 -131c0 -72 -64 -122 -106 -147l-49 -28c100 -14 172 -84 172 -161
c0 -106 -102 -167 -215 -167c-161 0 -226 132 -159 145c53 10 51 -99 151 -99c57 0 85 54 85 121c0 62 -18 106 -68 135z" />
    <glyph glyph-name="four.lprp" unicode="&#xf148;" horiz-adv-x="565" 
d="M358 625v-405h3c92 0 102 23 116 76l5 20h29l-8 -141h-145v-29c0 -100 13 -117 96 -117v-29h-304v29c83 0 96 17 96 117v29h-210v28l296 422h26zM246 220v203l-143 -203h143z" />
    <glyph glyph-name="five.lprp" unicode="&#xf149;" horiz-adv-x="513" 
d="M133 330c17 28 67 53 108 53c124 0 210 -85 210 -200c0 -114 -88 -200 -218 -200c-104 0 -168 73 -168 115c0 18 8 30 28 30c57 0 28 -99 131 -99c62 0 102 60 102 154c0 95 -40 150 -102 150c-43 0 -75 -14 -100 -90h-45l31 357h318l-14 -112h-266z" />
    <glyph glyph-name="six.lprp" unicode="&#xf14a;" horiz-adv-x="533" 
d="M179 278c0 -212 56 -246 94 -246c60 0 78 61 78 140c0 96 -33 138 -86 138c-32 0 -71 -9 -86 -32zM179 332c24 20 58 26 86 26c111 0 210 -84 210 -187s-91 -188 -202 -188c-75 0 -210 50 -210 283c0 170 84 354 238 354c104 0 179 -77 134 -106c-42 -26 -47 57 -133 57
c-92 0 -119 -116 -123 -239z" />
    <glyph glyph-name="seven.lprp" unicode="&#xf14b;" horiz-adv-x="479" 
d="M435 600v-27l-221 -555c-12 -31 -28 -41 -47 -41c-29 0 -53 33 -30 78l216 433h-150c-92 0 -103 -22 -116 -76l-5 -20h-21l30 208h344z" />
    <glyph glyph-name="eight.lprp" unicode="&#xf14c;" horiz-adv-x="545" 
d="M299 378c30 30 48 70 48 118c0 47 -37 74 -74 74c-40 0 -66 -33 -66 -64c0 -46 43 -88 92 -128zM239 293c-41 -34 -71 -79 -71 -147c0 -57 36 -116 105 -116c60 0 95 47 95 99c0 60 -64 114 -129 164zM336 349c72 -56 147 -111 147 -191c0 -100 -100 -175 -210 -175
c-111 0 -210 74 -210 171c0 89 70 127 141 166c-60 48 -111 94 -111 153c0 83 84 144 175 144c92 0 176 -60 176 -128c0 -67 -51 -106 -108 -140z" />
    <glyph glyph-name="nine.lprp" unicode="&#xf14d;" horiz-adv-x="533" 
d="M471 334c0 -170 -84 -354 -238 -354c-105 0 -180 78 -135 106c43 27 48 -57 134 -57c91 0 118 116 122 239c-24 -20 -57 -26 -86 -26c-110 0 -210 84 -210 187c0 104 91 188 202 188c76 0 211 -50 211 -283zM354 323c0 211 -56 245 -94 245c-59 0 -77 -61 -77 -140
c0 -95 33 -138 85 -138c33 0 71 9 86 33z" />
    <glyph glyph-name="zero.ltab" unicode="&#xf235;" horiz-adv-x="550" 
d="M488 300c0 -174 -96 -317 -213 -317s-212 143 -212 317s95 317 212 317s213 -143 213 -317zM275 568c-65 0 -86 -144 -86 -268s21 -268 86 -268s86 144 86 268s-21 268 -86 268z" />
    <glyph glyph-name="one.ltab" unicode="&#xf236;" horiz-adv-x="550" 
d="M411 0h-271v29c67 0 79 17 79 117v300c0 100 -33 108 -100 108v29l213 34v-471c0 -100 12 -117 79 -117v-29z" />
    <glyph glyph-name="two.ltab" unicode="&#xf237;" horiz-adv-x="550" 
d="M75 0v24l158 199c77 97 93 184 93 232c0 63 -25 110 -85 110c-59 0 -103 -60 -59 -132l-48 -40c-126 73 -78 224 106 224c119 0 206 -81 206 -166c0 -80 -63 -142 -143 -233l-110 -126h133c87 0 102 16 117 76h23l-30 -168h-361z" />
    <glyph glyph-name="three.ltab" unicode="&#xf238;" horiz-adv-x="550" 
d="M270 285c-24 -19 -42 -61 -68 -40c-20 16 1 36 18 54l56 58c36 37 52 83 52 112c0 62 -33 97 -83 97c-59 0 -107 -58 -62 -138l-48 -31c-119 72 -57 220 117 220c114 0 207 -46 207 -131c0 -72 -63 -122 -106 -147l-49 -28c100 -14 173 -84 173 -161
c0 -106 -103 -167 -215 -167c-162 0 -227 132 -159 145c52 10 50 -99 150 -99c58 0 85 54 85 121c0 62 -17 106 -68 135z" />
    <glyph glyph-name="four.ltab" unicode="&#xf239;" horiz-adv-x="550" 
d="M358 625v-405h2c71 0 88 18 103 76l5 20h29l-9 -141h-130v-29c0 -100 12 -117 95 -117v-29h-304v29c84 0 96 17 96 117v29h-210v28l296 422h27zM245 220v203l-142 -203h142z" />
    <glyph glyph-name="five.ltab" unicode="&#xf23a;" horiz-adv-x="550" 
d="M151 330c17 28 67 53 108 53c124 0 210 -85 210 -200c0 -114 -87 -200 -218 -200c-103 0 -168 73 -168 115c0 18 8 30 28 30c57 0 28 -99 132 -99c61 0 101 60 101 154c0 95 -40 150 -101 150c-44 0 -75 -14 -100 -90h-45l30 357h319l-14 -112h-266z" />
    <glyph glyph-name="six.ltab" unicode="&#xf23b;" horiz-adv-x="550" 
d="M188 278c0 -212 55 -246 94 -246c59 0 77 61 77 140c0 96 -33 138 -86 138c-32 0 -70 -9 -85 -32zM188 332c24 20 57 26 85 26c111 0 210 -84 210 -187s-90 -188 -201 -188c-76 0 -211 50 -211 283c0 170 84 354 238 354c104 0 179 -77 134 -106c-42 -26 -47 57 -133 57
c-92 0 -118 -116 -122 -239z" />
    <glyph glyph-name="seven.ltab" unicode="&#xf23c;" horiz-adv-x="550" 
d="M471 600v-27l-229 -555c-12 -30 -29 -41 -48 -41c-28 0 -53 33 -30 78l225 433h-171c-92 0 -103 -24 -116 -76l-5 -20h-21l30 208h365z" />
    <glyph glyph-name="eight.ltab" unicode="&#xf23d;" horiz-adv-x="550" 
d="M302 378c30 30 47 70 47 118c0 47 -36 74 -74 74c-40 0 -66 -33 -66 -64c0 -46 44 -88 93 -128zM242 293c-42 -34 -71 -79 -71 -147c0 -57 36 -116 104 -116c60 0 96 47 96 99c0 60 -64 114 -129 164zM338 349c73 -56 147 -111 147 -191c0 -100 -99 -175 -210 -175
s-210 74 -210 171c0 89 70 127 142 166c-60 48 -112 94 -112 153c0 83 84 144 176 144s176 -60 176 -128c0 -67 -52 -106 -109 -140z" />
    <glyph glyph-name="nine.ltab" unicode="&#xf23e;" horiz-adv-x="550" 
d="M479 334c0 -170 -84 -354 -238 -354c-104 0 -179 78 -134 106c42 27 47 -57 133 -57c92 0 118 116 123 239c-25 -20 -58 -26 -86 -26c-111 0 -210 84 -210 187c0 104 91 188 201 188c76 0 211 -50 211 -283zM363 323c0 211 -56 245 -95 245c-59 0 -77 -61 -77 -140
c0 -95 33 -138 86 -138c32 0 71 9 86 33z" />
    <glyph glyph-name="zero.otab" unicode="&#xf244;" horiz-adv-x="550" 
d="M488 217c0 -129 -96 -234 -213 -234s-212 105 -212 234s95 233 212 233s213 -104 213 -233zM275 403c-65 0 -86 -100 -86 -186c0 -87 21 -186 86 -186s86 99 86 186c0 86 -21 186 -86 186z" />
    <glyph glyph-name="one.otab" unicode="&#xf245;" horiz-adv-x="550" 
d="M428 0h-305v29c84 0 96 17 96 117v142c0 100 -12 116 -96 116v29h305v-29c-84 0 -96 -16 -96 -116v-142c0 -100 12 -117 96 -117v-29z" />
    <glyph glyph-name="two.otab" unicode="&#xf246;" horiz-adv-x="550" 
d="M348 163l-117 -71h237l-25 -171h-21c0 66 -17 79 -117 79h-231v24l188 154c43 36 68 71 68 125c0 53 -31 96 -92 96c-67 0 -114 -57 -68 -141l-47 -31c-120 72 -50 223 125 223c134 0 215 -61 215 -134c0 -75 -63 -121 -115 -153z" />
    <glyph glyph-name="three.otab" unicode="&#xf247;" horiz-adv-x="550" 
d="M270 115c-24 -19 -42 -61 -68 -40c-20 16 1 36 18 54l56 58c36 36 52 83 52 112c0 62 -33 100 -83 100c-59 0 -107 -61 -62 -141l-48 -31c-119 72 -57 223 117 223c114 0 207 -49 207 -134c0 -72 -63 -122 -106 -147l-49 -28c100 -14 173 -84 173 -161
c0 -106 -103 -167 -215 -167c-162 0 -227 132 -159 144c52 10 50 -98 150 -98c58 0 85 54 85 121c0 62 -17 106 -68 135z" />
    <glyph glyph-name="four.otab" unicode="&#xf248;" horiz-adv-x="550" 
d="M358 492v-405h2c71 0 88 18 103 76l5 20h29l-9 -141h-130v-66c0 -100 12 -117 95 -117v-29h-304v29c84 0 96 17 96 117v66h-210v27l296 423h27zM245 87v203l-142 -203h142z" />
    <glyph glyph-name="five.otab" unicode="&#xf249;" horiz-adv-x="550" 
d="M318 433c92 0 103 22 116 76h23l-24 -188h-266l-16 -158c17 29 67 54 108 54c124 0 210 -85 210 -200s-87 -200 -218 -200c-103 0 -168 72 -168 115c0 17 8 29 28 29c57 0 28 -99 132 -99c61 0 101 60 101 155s-40 150 -101 150c-44 0 -75 -14 -100 -90h-45l30 356h190z
" />
    <glyph glyph-name="six.otab" unicode="&#xf24a;" horiz-adv-x="550" 
d="M188 278c0 -212 55 -246 94 -246c59 0 77 61 77 140c0 96 -33 138 -86 138c-32 0 -70 -9 -85 -32zM188 332c24 20 57 26 85 26c111 0 210 -84 210 -187s-90 -188 -201 -188c-76 0 -211 50 -211 283c0 170 84 354 238 354c104 0 179 -77 134 -106c-42 -26 -47 57 -133 57
c-92 0 -118 -116 -122 -239z" />
    <glyph glyph-name="seven.otab" unicode="&#xf24b;" horiz-adv-x="550" 
d="M471 442v-28l-233 -562c-13 -30 -29 -40 -48 -40c-28 0 -52 33 -30 78l229 439h-171c-91 0 -102 -21 -115 -76l-5 -20h-21l41 288h21c0 -67 17 -79 117 -79h215z" />
    <glyph glyph-name="eight.otab" unicode="&#xf24c;" horiz-adv-x="550" 
d="M302 378c30 30 47 70 47 118c0 47 -36 74 -74 74c-40 0 -66 -33 -66 -64c0 -46 44 -88 93 -128zM242 293c-42 -34 -71 -79 -71 -147c0 -57 36 -116 104 -116c60 0 96 47 96 99c0 60 -64 114 -129 164zM338 349c73 -56 147 -111 147 -191c0 -100 -99 -175 -210 -175
s-210 74 -210 171c0 89 70 127 142 166c-60 48 -112 94 -112 153c0 83 84 144 176 144s176 -60 176 -128c0 -67 -52 -106 -109 -140z" />
    <glyph glyph-name="nine.otab" unicode="&#xf24d;" horiz-adv-x="550" 
d="M479 168c0 -171 -84 -355 -238 -355c-104 0 -179 78 -134 106c42 27 47 -57 133 -57c92 0 118 116 123 240c-25 -20 -58 -27 -86 -27c-111 0 -210 84 -210 188c0 103 91 187 201 187c76 0 211 -50 211 -282zM363 156c0 212 -56 246 -95 246c-59 0 -77 -62 -77 -140
c0 -96 33 -139 86 -139c32 0 71 10 86 33z" />
    <glyph glyph-name="c_k_yacute" unicode="&#xf2aa;" horiz-adv-x="1228" 
d="M903 254c-13 30 -27 49 -55 49c-30 0 -50 -11 -81 -35l-76 -58l117 -141c28 -33 52 -40 76 -40v-29h-141l-134 159v-21c0 -88 13 -109 63 -109v-29h-254v29c66 0 79 17 79 117v292c0 100 -13 116 -79 116c-126 0 -176 -118 -132 -213c50 -13 72 -43 72 -73
c0 -18 -15 -47 -49 -47s-57 31 -71 70c-2 7 -4 12 -5 19c-52 -2 -69 -62 -69 -152c0 -80 38 -126 102 -126c27 0 65 15 101 46l17 -29c-38 -41 -90 -66 -149 -66c-111 0 -193 75 -193 175c0 117 84 190 182 192c-23 149 81 227 194 242l191 25v-419l129 92
c40 28 88 65 141 65c78 0 113 -31 144 -101l58 -130l54 130c15 36 8 50 -29 50v29h148v-29c-35 0 -56 -14 -71 -50l-107 -261c-47 -112 -108 -256 -257 -256c-56 0 -95 37 -95 65c0 27 14 46 44 46c35 0 12 -51 70 -51c87 0 141 72 185 189zM1230 522c0 -20 -19 -34 -30 -39
l-179 -76l-6 9l121 113c22 19 36 30 57 30c25 0 37 -21 37 -37z" />
    <glyph glyph-name="c_k_ydieresis" unicode="&#xf2ab;" horiz-adv-x="1228" 
d="M903 254c-13 30 -27 49 -55 49c-30 0 -50 -11 -81 -35l-76 -58l117 -141c28 -33 52 -40 76 -40v-29h-141l-134 159v-21c0 -88 13 -109 63 -109v-29h-254v29c66 0 79 17 79 117v292c0 100 -13 116 -79 116c-126 0 -176 -118 -132 -213c50 -13 72 -43 72 -73
c0 -18 -15 -47 -49 -47s-57 31 -71 70c-2 7 -4 12 -5 19c-52 -2 -69 -62 -69 -152c0 -80 38 -126 102 -126c27 0 65 15 101 46l17 -29c-38 -41 -90 -66 -149 -66c-111 0 -193 75 -193 175c0 117 84 190 182 192c-23 149 81 227 194 242l191 25v-419l129 92
c40 28 88 65 141 65c78 0 113 -31 144 -101l58 -130l54 130c15 36 8 50 -29 50v29h148v-29c-35 0 -56 -14 -71 -50l-107 -261c-47 -112 -108 -256 -257 -256c-56 0 -95 37 -95 65c0 27 14 46 44 46c35 0 12 -51 70 -51c87 0 141 72 185 189zM1156 510c28 0 51 -22 51 -51
c0 -28 -23 -51 -51 -51s-51 23 -51 51c0 29 23 51 51 51zM957 510c28 0 51 -22 51 -51c0 -28 -23 -51 -51 -51s-51 23 -51 51c0 29 23 51 51 51z" />
    <glyph glyph-name="Agrave_V" unicode="&#xf2c7;" horiz-adv-x="787" 
d="M349 245l-80 183l-79 -183h159zM517 170l141 325c23 54 8 76 -75 76v29h241v-29c-68 0 -91 -17 -122 -88l-217 -500h-22l-95 217h-198l-41 -95c-23 -54 -8 -76 75 -76v-29h-242v29c69 0 92 17 123 88l217 500h21zM381 682l-7 -9l-179 75c-11 6 -30 20 -30 40
c0 15 12 37 37 37c21 0 36 -11 57 -30z" />
    <glyph glyph-name="Atilde_V" unicode="&#xf2c8;" horiz-adv-x="787" 
d="M349 245l-80 183l-79 -183h159zM517 170l141 325c23 54 8 76 -75 76v29h241v-29c-68 0 -91 -17 -122 -88l-217 -500h-22l-95 217h-198l-41 -95c-23 -54 -8 -76 75 -76v-29h-242v29c69 0 92 17 123 88l217 500h21zM389 731c27 0 44 21 52 57h19c0 -75 -32 -120 -82 -120
c-43 0 -113 66 -148 66c-22 0 -42 -25 -51 -55h-18c0 69 35 118 77 118c48 0 108 -66 151 -66z" />
    <glyph glyph-name="Acircumflex_V" unicode="&#xf2c9;" horiz-adv-x="787" 
d="M349 245l-80 183l-79 -183h159zM517 170l141 325c23 54 8 76 -75 76v29h241v-29c-68 0 -91 -17 -122 -88l-217 -500h-22l-95 217h-198l-41 -95c-23 -54 -8 -76 75 -76v-29h-242v29c69 0 92 17 123 88l217 500h21zM454 689l-15 -14l-128 83l-128 -83l-15 14l143 155z" />
    <glyph glyph-name="Aacute_V" unicode="&#xf2c6;" horiz-adv-x="787" 
d="M349 245l-80 183l-79 -183h159zM517 170l141 325c23 54 8 76 -75 76v29h241v-29c-68 0 -91 -17 -122 -88l-217 -500h-22l-95 217h-198l-41 -95c-23 -54 -8 -76 75 -76v-29h-242v29c69 0 92 17 123 88l217 500h21zM447 788c0 -20 -19 -34 -30 -40l-179 -75l-6 9l121 113
c21 19 35 30 57 30c25 0 37 -22 37 -37z" />
    <glyph glyph-name="Adieresis_V" unicode="&#xf2ca;" horiz-adv-x="787" 
d="M349 245l-80 183l-79 -183h159zM517 170l141 325c23 54 8 76 -75 76v29h241v-29c-68 0 -91 -17 -122 -88l-217 -500h-22l-95 217h-198l-41 -95c-23 -54 -8 -76 75 -76v-29h-242v29c69 0 92 17 123 88l217 500h21zM409 776c29 0 51 -23 51 -51s-22 -51 -51 -51
c-28 0 -51 23 -51 51s23 51 51 51zM210 776c28 0 51 -23 51 -51s-23 -51 -51 -51c-27 0 -51 23 -51 51s24 51 51 51z" />
    <glyph glyph-name="Aring_V" unicode="&#xf2cb;" horiz-adv-x="787" 
d="M349 245l-80 183l-79 -183h159zM517 170l141 325c23 54 8 76 -75 76v29h241v-29c-68 0 -91 -17 -122 -88l-217 -500h-22l-95 217h-198l-41 -95c-23 -54 -8 -76 75 -76v-29h-242v29c69 0 92 17 123 88l217 500h21zM308 873c55 0 100 -44 100 -99s-45 -99 -100 -99
s-99 44 -99 99s44 99 99 99zM308 820c-25 0 -45 -21 -45 -46s20 -46 45 -46s46 21 46 46s-21 46 -46 46z" />
    <glyph glyph-name="Agrave_A" unicode="&#xf2cc;" horiz-adv-x="1033" 
d="M757 245l-80 183l-79 -183h159zM349 245l-80 183l-79 -183h159zM483 -17h-21l-94 217h-198l-41 -95c-23 -54 -8 -76 75 -76v-29h-242v29c69 0 92 17 123 88l217 500h21l194 -444l192 444h22l217 -500c29 -64 43 -88 123 -88v-29h-328v29c88 0 98 23 75 76l-42 95h-198z
M381 682l-7 -9l-179 75c-11 6 -30 20 -30 40c0 15 12 37 37 37c21 0 36 -11 57 -30z" />
    <glyph glyph-name="Atilde_A" unicode="&#xf2cd;" horiz-adv-x="1033" 
d="M757 245l-80 183l-79 -183h159zM349 245l-80 183l-79 -183h159zM483 -17h-21l-94 217h-198l-41 -95c-23 -54 -8 -76 75 -76v-29h-242v29c69 0 92 17 123 88l217 500h21l194 -444l192 444h22l217 -500c29 -64 43 -88 123 -88v-29h-328v29c88 0 98 23 75 76l-42 95h-198z
M389 731c27 0 44 21 52 57h19c0 -75 -32 -120 -82 -120c-43 0 -113 66 -148 66c-22 0 -42 -25 -51 -55h-18c0 69 35 118 77 118c48 0 108 -66 151 -66z" />
    <glyph glyph-name="Acircumflex_A" unicode="&#xf2ce;" horiz-adv-x="1033" 
d="M757 245l-80 183l-79 -183h159zM349 245l-80 183l-79 -183h159zM483 -17h-21l-94 217h-198l-41 -95c-23 -54 -8 -76 75 -76v-29h-242v29c69 0 92 17 123 88l217 500h21l194 -444l192 444h22l217 -500c29 -64 43 -88 123 -88v-29h-328v29c88 0 98 23 75 76l-42 95h-198z
M454 689l-15 -14l-128 83l-128 -83l-15 14l143 155z" />
    <glyph glyph-name="Aacute_A" unicode="&#xf2cf;" horiz-adv-x="1033" 
d="M757 245l-80 183l-79 -183h159zM349 245l-80 183l-79 -183h159zM483 -17h-21l-94 217h-198l-41 -95c-23 -54 -8 -76 75 -76v-29h-242v29c69 0 92 17 123 88l217 500h21l194 -444l192 444h22l217 -500c29 -64 43 -88 123 -88v-29h-328v29c88 0 98 23 75 76l-42 95h-198z
M447 788c0 -20 -19 -34 -30 -40l-179 -75l-6 9l121 113c21 19 35 30 57 30c25 0 37 -22 37 -37z" />
    <glyph glyph-name="Adieresis_A" unicode="&#xf2d0;" horiz-adv-x="1033" 
d="M757 245l-80 183l-79 -183h159zM349 245l-80 183l-79 -183h159zM483 -17h-21l-94 217h-198l-41 -95c-23 -54 -8 -76 75 -76v-29h-242v29c69 0 92 17 123 88l217 500h21l194 -444l192 444h22l217 -500c29 -64 43 -88 123 -88v-29h-328v29c88 0 98 23 75 76l-42 95h-198z
M409 776c29 0 51 -23 51 -51s-22 -51 -51 -51c-28 0 -51 23 -51 51s23 51 51 51zM210 776c28 0 51 -23 51 -51s-23 -51 -51 -51c-27 0 -51 23 -51 51s24 51 51 51z" />
    <glyph glyph-name="Aring_A" unicode="&#xf2d1;" horiz-adv-x="1033" 
d="M757 245l-80 183l-79 -183h159zM349 245l-80 183l-79 -183h159zM483 -17h-21l-94 217h-198l-41 -95c-23 -54 -8 -76 75 -76v-29h-242v29c69 0 92 17 123 88l217 500h21l194 -444l192 444h22l217 -500c29 -64 43 -88 123 -88v-29h-328v29c88 0 98 23 75 76l-42 95h-198z
M308 873c55 0 100 -44 100 -99s-45 -99 -100 -99s-99 44 -99 99s44 99 99 99zM308 820c-25 0 -45 -21 -45 -46s20 -46 45 -46s46 21 46 46s-21 46 -46 46z" />
    <glyph glyph-name="A_Agrave" unicode="&#xf2d2;" horiz-adv-x="1033" 
d="M757 245l-80 183l-79 -183h159zM349 245l-80 183l-79 -183h159zM483 -17h-21l-94 217h-198l-41 -95c-23 -54 -8 -76 75 -76v-29h-242v29c69 0 92 17 123 88l217 500h21l194 -444l192 444h22l217 -500c29 -64 43 -88 123 -88v-29h-328v29c88 0 98 23 75 76l-42 95h-198z
M789 682l-6 -9l-180 75c-11 5 -30 20 -30 40c0 15 12 37 37 37c22 0 36 -10 58 -30z" />
    <glyph glyph-name="A_Atilde" unicode="&#xf2d3;" horiz-adv-x="1033" 
d="M757 245l-80 183l-79 -183h159zM349 245l-80 183l-79 -183h159zM483 -17h-21l-94 217h-198l-41 -95c-23 -54 -8 -76 75 -76v-29h-242v29c69 0 92 17 123 88l217 500h21l194 -444l192 444h22l217 -500c29 -64 43 -88 123 -88v-29h-328v29c88 0 98 23 75 76l-42 95h-198z
M798 731c26 0 43 21 51 57h19c0 -75 -32 -120 -82 -120c-43 0 -113 66 -148 66c-21 0 -42 -25 -50 -55h-19c0 69 35 118 78 118c47 0 107 -66 151 -66z" />
    <glyph glyph-name="A_Acircumflex" unicode="&#xf2d4;" horiz-adv-x="1033" 
d="M757 245l-80 183l-79 -183h159zM349 245l-80 183l-79 -183h159zM483 -17h-21l-94 217h-198l-41 -95c-23 -54 -8 -76 75 -76v-29h-242v29c69 0 92 17 123 88l217 500h21l194 -444l192 444h22l217 -500c29 -64 43 -88 123 -88v-29h-328v29c88 0 98 23 75 76l-42 95h-198z
M863 689l-15 -14l-129 83l-128 -83l-15 14l143 155z" />
    <glyph glyph-name="A_Aacute" unicode="&#xf2d5;" horiz-adv-x="1033" 
d="M757 245l-80 183l-79 -183h159zM349 245l-80 183l-79 -183h159zM483 -17h-21l-94 217h-198l-41 -95c-23 -54 -8 -76 75 -76v-29h-242v29c69 0 92 17 123 88l217 500h21l194 -444l192 444h22l217 -500c29 -64 43 -88 123 -88v-29h-328v29c88 0 98 23 75 76l-42 95h-198z
M855 788c0 -20 -18 -35 -30 -40l-179 -75l-6 9l121 113c22 20 36 30 57 30c25 0 37 -22 37 -37z" />
    <glyph glyph-name="A_Adieresis" unicode="&#xf2d6;" horiz-adv-x="1033" 
d="M757 245l-80 183l-79 -183h159zM349 245l-80 183l-79 -183h159zM483 -17h-21l-94 217h-198l-41 -95c-23 -54 -8 -76 75 -76v-29h-242v29c69 0 92 17 123 88l217 500h21l194 -444l192 444h22l217 -500c29 -64 43 -88 123 -88v-29h-328v29c88 0 98 23 75 76l-42 95h-198z
M818 776c28 0 50 -23 50 -51s-22 -51 -50 -51c-29 0 -51 23 -51 51s22 51 51 51zM618 776c29 0 51 -23 51 -51s-22 -51 -51 -51c-27 0 -50 23 -50 51s23 51 50 51z" />
    <glyph glyph-name="A_Aring" unicode="&#xf2d7;" horiz-adv-x="1033" 
d="M757 245l-80 183l-79 -183h159zM349 245l-80 183l-79 -183h159zM483 -17h-21l-94 217h-198l-41 -95c-23 -54 -8 -76 75 -76v-29h-242v29c69 0 92 17 123 88l217 500h21l194 -444l192 444h22l217 -500c29 -64 43 -88 123 -88v-29h-328v29c88 0 98 23 75 76l-42 95h-198z
M717 873c55 0 99 -44 99 -99s-44 -99 -99 -99s-99 44 -99 99s44 99 99 99zM717 820c-25 0 -46 -21 -46 -46s21 -46 46 -46s46 21 46 46s-21 46 -46 46z" />
    <glyph glyph-name="Oacute_C" unicode="&#xf2d8;" horiz-adv-x="975" 
d="M469 53c-70 58 -115 147 -115 247c0 99 45 188 115 247c-25 14 -55 22 -90 22c-148 0 -208 -148 -208 -269s60 -269 208 -269c35 0 65 8 90 22zM529 493c-34 -52 -48 -125 -48 -193c0 -67 14 -141 48 -193c41 53 59 127 59 193s-18 140 -59 193zM585 548
c78 -57 128 -147 128 -248s-50 -190 -128 -248c23 -14 49 -21 80 -21c99 0 180 72 208 200h29v-220h-29c-5 24 -13 48 -25 57c-52 -53 -117 -85 -187 -85c-48 0 -94 12 -135 33c-44 -21 -94 -33 -147 -33c-183 0 -333 143 -333 317s150 317 333 317c53 0 103 -12 147 -33
c41 21 87 33 135 33c70 0 135 -31 187 -85c12 10 20 32 25 57h29v-220h-29c-28 130 -109 200 -208 200c-31 0 -57 -7 -80 -21zM517 788c0 -20 -19 -35 -30 -40l-179 -75l-6 9l121 113c21 20 35 30 57 30c25 0 37 -22 37 -37z" />
    <glyph glyph-name="Ocircumflex_C" unicode="&#xf2d9;" horiz-adv-x="975" 
d="M469 53c-70 58 -115 147 -115 247c0 99 45 188 115 247c-25 14 -55 22 -90 22c-148 0 -208 -148 -208 -269s60 -269 208 -269c35 0 65 8 90 22zM529 493c-34 -52 -48 -125 -48 -193c0 -67 14 -141 48 -193c41 53 59 127 59 193s-18 140 -59 193zM585 548
c78 -57 128 -147 128 -248s-50 -190 -128 -248c23 -14 49 -21 80 -21c99 0 180 72 208 200h29v-220h-29c-5 24 -13 48 -25 57c-52 -53 -117 -85 -187 -85c-48 0 -94 12 -135 33c-44 -21 -94 -33 -147 -33c-183 0 -333 143 -333 317s150 317 333 317c53 0 103 -12 147 -33
c41 21 87 33 135 33c70 0 135 -31 187 -85c12 10 20 32 25 57h29v-220h-29c-28 130 -109 200 -208 200c-31 0 -57 -7 -80 -21zM523 687l-15 -14l-128 83l-128 -83l-15 14l143 155z" />
    <glyph glyph-name="Ograve_C" unicode="&#xf2da;" horiz-adv-x="975" 
d="M469 53c-70 58 -115 147 -115 247c0 99 45 188 115 247c-25 14 -55 22 -90 22c-148 0 -208 -148 -208 -269s60 -269 208 -269c35 0 65 8 90 22zM529 493c-34 -52 -48 -125 -48 -193c0 -67 14 -141 48 -193c41 53 59 127 59 193s-18 140 -59 193zM585 548
c78 -57 128 -147 128 -248s-50 -190 -128 -248c23 -14 49 -21 80 -21c99 0 180 72 208 200h29v-220h-29c-5 24 -13 48 -25 57c-52 -53 -117 -85 -187 -85c-48 0 -94 12 -135 33c-44 -21 -94 -33 -147 -33c-183 0 -333 143 -333 317s150 317 333 317c53 0 103 -12 147 -33
c41 21 87 33 135 33c70 0 135 -31 187 -85c12 10 20 32 25 57h29v-220h-29c-28 130 -109 200 -208 200c-31 0 -57 -7 -80 -21zM451 682l-7 -9l-179 75c-12 5 -30 20 -30 40c0 15 12 37 37 37c21 0 36 -10 57 -30z" />
    <glyph glyph-name="Otilde_C" unicode="&#xf2db;" horiz-adv-x="975" 
d="M469 53c-70 58 -115 147 -115 247c0 99 45 188 115 247c-25 14 -55 22 -90 22c-148 0 -208 -148 -208 -269s60 -269 208 -269c35 0 65 8 90 22zM529 493c-34 -52 -48 -125 -48 -193c0 -67 14 -141 48 -193c41 53 59 127 59 193s-18 140 -59 193zM585 548
c78 -57 128 -147 128 -248s-50 -190 -128 -248c23 -14 49 -21 80 -21c99 0 180 72 208 200h29v-220h-29c-5 24 -13 48 -25 57c-52 -53 -117 -85 -187 -85c-48 0 -94 12 -135 33c-44 -21 -94 -33 -147 -33c-183 0 -333 143 -333 317s150 317 333 317c53 0 103 -12 147 -33
c41 21 87 33 135 33c70 0 135 -31 187 -85c12 10 20 32 25 57h29v-220h-29c-28 130 -109 200 -208 200c-31 0 -57 -7 -80 -21zM459 731c27 0 44 21 52 57h19c0 -75 -32 -120 -82 -120c-43 0 -113 66 -148 66c-22 0 -42 -25 -51 -55h-18c0 69 35 118 77 118
c48 0 108 -66 151 -66z" />
    <glyph glyph-name="Odieresis_C" unicode="&#xf2dc;" horiz-adv-x="975" 
d="M469 53c-70 58 -115 147 -115 247c0 99 45 188 115 247c-25 14 -55 22 -90 22c-148 0 -208 -148 -208 -269s60 -269 208 -269c35 0 65 8 90 22zM529 493c-34 -52 -48 -125 -48 -193c0 -67 14 -141 48 -193c41 53 59 127 59 193s-18 140 -59 193zM585 548
c78 -57 128 -147 128 -248s-50 -190 -128 -248c23 -14 49 -21 80 -21c99 0 180 72 208 200h29v-220h-29c-5 24 -13 48 -25 57c-52 -53 -117 -85 -187 -85c-48 0 -94 12 -135 33c-44 -21 -94 -33 -147 -33c-183 0 -333 143 -333 317s150 317 333 317c53 0 103 -12 147 -33
c41 21 87 33 135 33c70 0 135 -31 187 -85c12 10 20 32 25 57h29v-220h-29c-28 130 -109 200 -208 200c-31 0 -57 -7 -80 -21zM481 776c28 0 51 -23 51 -51s-23 -51 -51 -51s-51 23 -51 51s23 51 51 51zM282 776c28 0 51 -23 51 -51s-23 -51 -51 -51s-51 23 -51 51
s23 51 51 51z" />
    <glyph glyph-name="O_Ccedilla" unicode="&#xf2dd;" horiz-adv-x="975" 
d="M529 493c-34 -52 -48 -125 -48 -193c0 -67 14 -141 48 -193c41 53 59 127 59 193s-18 140 -59 193zM469 53c-70 58 -115 147 -115 247c0 99 45 188 115 247c-25 14 -55 22 -90 22c-148 0 -208 -148 -208 -269s60 -269 208 -269c35 0 65 8 90 22zM663 -17l-49 -49
c46 -2 109 -31 109 -102c0 -95 -149 -127 -190 -133v36c33 10 111 35 111 97c0 44 -67 64 -131 43v18l95 95c-29 5 -56 15 -82 28c-44 -21 -94 -33 -147 -33c-183 0 -333 143 -333 317s150 317 333 317c53 0 103 -12 147 -33c41 21 87 33 135 33c70 0 135 -31 187 -85
c12 10 20 32 25 57h29v-220h-29c-28 130 -109 200 -208 200c-31 0 -57 -7 -80 -21c78 -57 128 -147 128 -248s-50 -190 -128 -248c23 -14 49 -21 80 -21c99 0 180 72 208 200h29v-220h-29c-5 24 -13 48 -25 57c-51 -52 -116 -84 -185 -85z" />
    <glyph glyph-name="M_Ecircumflex" unicode="&#xf2de;" horiz-adv-x="1104" 
d="M1016 600l8 -141h-29l-5 20c-13 53 -24 76 -116 76h-152v-215h54c100 0 117 13 117 96h29v-237h-29c0 84 -17 96 -117 96h-54v-133c0 -100 12 -117 96 -117h90c91 0 102 23 115 76l5 20h30l-9 -141h-548v29c83 0 96 17 96 117v289l-196 -452h-22l-201 451v-288
c0 -100 13 -117 96 -117v-29h-236v29c83 0 95 17 95 117v308c0 100 -12 117 -95 117v29h200l193 -433l187 433h398zM938 689l-15 -14l-129 83l-128 -83l-15 14l143 155z" />
    <glyph glyph-name="M_Edieresis" unicode="&#xf2df;" horiz-adv-x="1104" 
d="M1016 600l8 -141h-29l-5 20c-13 53 -24 76 -116 76h-152v-215h54c100 0 117 13 117 96h29v-237h-29c0 84 -17 96 -117 96h-54v-133c0 -100 12 -117 96 -117h90c91 0 102 23 115 76l5 20h30l-9 -141h-548v29c83 0 96 17 96 117v289l-196 -452h-22l-201 451v-288
c0 -100 13 -117 96 -117v-29h-236v29c83 0 95 17 95 117v308c0 100 -12 117 -95 117v29h200l193 -433l187 433h398zM905 776c28 0 51 -23 51 -51s-23 -51 -51 -51s-51 23 -51 51s23 51 51 51zM706 776c28 0 51 -23 51 -51s-23 -51 -51 -51s-51 23 -51 51s23 51 51 51z" />
    <glyph glyph-name="M_Egrave" unicode="&#xf2e0;" horiz-adv-x="1104" 
d="M1016 600l8 -141h-29l-5 20c-13 53 -24 76 -116 76h-152v-215h54c100 0 117 13 117 96h29v-237h-29c0 84 -17 96 -117 96h-54v-133c0 -100 12 -117 96 -117h90c91 0 102 23 115 76l5 20h30l-9 -141h-548v29c83 0 96 17 96 117v289l-196 -452h-22l-201 451v-288
c0 -100 13 -117 96 -117v-29h-236v29c83 0 95 17 95 117v308c0 100 -12 117 -95 117v29h200l193 -433l187 433h398zM876 682l-7 -9l-179 75c-12 5 -30 20 -30 40c0 15 12 37 37 37c21 0 36 -10 57 -30z" />
    <glyph glyph-name="M_Eacute" unicode="&#xf2e1;" horiz-adv-x="1104" 
d="M1016 600l8 -141h-29l-5 20c-13 53 -24 76 -116 76h-152v-215h54c100 0 117 13 117 96h29v-237h-29c0 84 -17 96 -117 96h-54v-133c0 -100 12 -117 96 -117h90c91 0 102 23 115 76l5 20h30l-9 -141h-548v29c83 0 96 17 96 117v289l-196 -452h-22l-201 451v-288
c0 -100 13 -117 96 -117v-29h-236v29c83 0 95 17 95 117v308c0 100 -12 117 -95 117v29h200l193 -433l187 433h398zM961 788c0 -20 -18 -34 -30 -39l-179 -76l-6 10l121 113c21 20 36 30 57 30c25 0 37 -22 37 -38z" />
    <glyph glyph-name="Oacute_G" unicode="&#xf2e2;" horiz-adv-x="1008" 
d="M469 53c-70 58 -115 147 -115 247c0 99 45 188 115 247c-25 14 -55 22 -90 22c-148 0 -208 -148 -208 -269s60 -269 208 -269c35 0 65 8 90 22zM529 493c-34 -52 -48 -125 -48 -193c0 -67 14 -141 48 -193c41 53 59 127 59 193s-18 140 -59 193zM585 548
c78 -57 128 -147 128 -248s-50 -190 -128 -248c23 -14 49 -21 80 -21c78 0 150 32 150 124c0 43 -16 64 -61 64v29h263v-29c-84 0 -96 -16 -96 -116v-68c-118 0 -159 -52 -260 -52c-48 0 -94 12 -135 33c-44 -21 -94 -33 -147 -33c-183 0 -333 143 -333 317s150 317 333 317
c53 0 103 -12 147 -33c41 21 87 33 135 33c70 0 135 -31 187 -85c12 10 20 32 25 57h29v-220h-29c-28 130 -109 200 -208 200c-31 0 -57 -7 -80 -21zM517 788c0 -20 -19 -35 -30 -40l-179 -75l-6 9l121 113c21 20 35 30 57 30c25 0 37 -22 37 -37z" />
    <glyph glyph-name="Ocircumflex_G" unicode="&#xf2e3;" horiz-adv-x="1008" 
d="M469 53c-70 58 -115 147 -115 247c0 99 45 188 115 247c-25 14 -55 22 -90 22c-148 0 -208 -148 -208 -269s60 -269 208 -269c35 0 65 8 90 22zM529 493c-34 -52 -48 -125 -48 -193c0 -67 14 -141 48 -193c41 53 59 127 59 193s-18 140 -59 193zM585 548
c78 -57 128 -147 128 -248s-50 -190 -128 -248c23 -14 49 -21 80 -21c78 0 150 32 150 124c0 43 -16 64 -61 64v29h263v-29c-84 0 -96 -16 -96 -116v-68c-118 0 -159 -52 -260 -52c-48 0 -94 12 -135 33c-44 -21 -94 -33 -147 -33c-183 0 -333 143 -333 317s150 317 333 317
c53 0 103 -12 147 -33c41 21 87 33 135 33c70 0 135 -31 187 -85c12 10 20 32 25 57h29v-220h-29c-28 130 -109 200 -208 200c-31 0 -57 -7 -80 -21zM523 687l-15 -14l-128 83l-128 -83l-15 14l143 155z" />
    <glyph glyph-name="Ograve_G" unicode="&#xf2e4;" horiz-adv-x="1008" 
d="M469 53c-70 58 -115 147 -115 247c0 99 45 188 115 247c-25 14 -55 22 -90 22c-148 0 -208 -148 -208 -269s60 -269 208 -269c35 0 65 8 90 22zM529 493c-34 -52 -48 -125 -48 -193c0 -67 14 -141 48 -193c41 53 59 127 59 193s-18 140 -59 193zM585 548
c78 -57 128 -147 128 -248s-50 -190 -128 -248c23 -14 49 -21 80 -21c78 0 150 32 150 124c0 43 -16 64 -61 64v29h263v-29c-84 0 -96 -16 -96 -116v-68c-118 0 -159 -52 -260 -52c-48 0 -94 12 -135 33c-44 -21 -94 -33 -147 -33c-183 0 -333 143 -333 317s150 317 333 317
c53 0 103 -12 147 -33c41 21 87 33 135 33c70 0 135 -31 187 -85c12 10 20 32 25 57h29v-220h-29c-28 130 -109 200 -208 200c-31 0 -57 -7 -80 -21zM451 682l-7 -9l-179 75c-12 5 -30 20 -30 40c0 15 12 37 37 37c21 0 36 -10 57 -30z" />
    <glyph glyph-name="Otilde_G" unicode="&#xf2e5;" horiz-adv-x="1008" 
d="M469 53c-70 58 -115 147 -115 247c0 99 45 188 115 247c-25 14 -55 22 -90 22c-148 0 -208 -148 -208 -269s60 -269 208 -269c35 0 65 8 90 22zM529 493c-34 -52 -48 -125 -48 -193c0 -67 14 -141 48 -193c41 53 59 127 59 193s-18 140 -59 193zM585 548
c78 -57 128 -147 128 -248s-50 -190 -128 -248c23 -14 49 -21 80 -21c78 0 150 32 150 124c0 43 -16 64 -61 64v29h263v-29c-84 0 -96 -16 -96 -116v-68c-118 0 -159 -52 -260 -52c-48 0 -94 12 -135 33c-44 -21 -94 -33 -147 -33c-183 0 -333 143 -333 317s150 317 333 317
c53 0 103 -12 147 -33c41 21 87 33 135 33c70 0 135 -31 187 -85c12 10 20 32 25 57h29v-220h-29c-28 130 -109 200 -208 200c-31 0 -57 -7 -80 -21zM459 731c27 0 44 21 52 57h19c0 -75 -32 -120 -82 -120c-43 0 -113 66 -148 66c-22 0 -42 -25 -51 -55h-18
c0 69 35 118 77 118c48 0 108 -66 151 -66z" />
    <glyph glyph-name="Odieresis_G" unicode="&#xf2e6;" horiz-adv-x="1008" 
d="M469 53c-70 58 -115 147 -115 247c0 99 45 188 115 247c-25 14 -55 22 -90 22c-148 0 -208 -148 -208 -269s60 -269 208 -269c35 0 65 8 90 22zM529 493c-34 -52 -48 -125 -48 -193c0 -67 14 -141 48 -193c41 53 59 127 59 193s-18 140 -59 193zM585 548
c78 -57 128 -147 128 -248s-50 -190 -128 -248c23 -14 49 -21 80 -21c78 0 150 32 150 124c0 43 -16 64 -61 64v29h263v-29c-84 0 -96 -16 -96 -116v-68c-118 0 -159 -52 -260 -52c-48 0 -94 12 -135 33c-44 -21 -94 -33 -147 -33c-183 0 -333 143 -333 317s150 317 333 317
c53 0 103 -12 147 -33c41 21 87 33 135 33c70 0 135 -31 187 -85c12 10 20 32 25 57h29v-220h-29c-28 130 -109 200 -208 200c-31 0 -57 -7 -80 -21zM481 776c28 0 51 -23 51 -51s-23 -51 -51 -51s-51 23 -51 51s23 51 51 51zM282 776c28 0 51 -23 51 -51s-23 -51 -51 -51
s-51 23 -51 51s23 51 51 51z" />
    <glyph glyph-name="H_Ecircumflex" unicode="&#xf2e7;" horiz-adv-x="1073" 
d="M565 296h-307v-150c0 -100 13 -117 96 -117v-29h-316v29c83 0 95 17 95 117v308c0 100 -12 117 -95 117v29h316v-29c-83 0 -96 -17 -96 -117v-113h307v113c0 100 -12 117 -96 117v29h515l9 -141h-30l-5 20c-13 53 -24 76 -115 76h-153v-215h54c100 0 117 13 117 96h29
v-237h-29c0 84 -17 96 -117 96h-54v-133c0 -100 13 -117 96 -117h90c92 0 102 23 116 76l5 20h29l-8 -141h-549v29c84 0 96 17 96 117v150zM906 689l-15 -14l-128 83l-129 -83l-15 14l144 155z" />
    <glyph glyph-name="H_Edieresis" unicode="&#xf2e8;" horiz-adv-x="1073" 
d="M565 296h-307v-150c0 -100 13 -117 96 -117v-29h-316v29c83 0 95 17 95 117v308c0 100 -12 117 -95 117v29h316v-29c-83 0 -96 -17 -96 -117v-113h307v113c0 100 -12 117 -96 117v29h515l9 -141h-30l-5 20c-13 53 -24 76 -115 76h-153v-215h54c100 0 117 13 117 96h29
v-237h-29c0 84 -17 96 -117 96h-54v-133c0 -100 13 -117 96 -117h90c92 0 102 23 116 76l5 20h29l-8 -141h-549v29c84 0 96 17 96 117v150zM873 776c29 0 51 -23 51 -51s-22 -51 -51 -51c-28 0 -50 23 -50 51s22 51 50 51zM674 776c29 0 51 -23 51 -51s-22 -51 -51 -51
c-27 0 -51 23 -51 51s24 51 51 51z" />
    <glyph glyph-name="H_Egrave" unicode="&#xf2e9;" horiz-adv-x="1073" 
d="M565 296h-307v-150c0 -100 13 -117 96 -117v-29h-316v29c83 0 95 17 95 117v308c0 100 -12 117 -95 117v29h316v-29c-83 0 -96 -17 -96 -117v-113h307v113c0 100 -12 117 -96 117v29h515l9 -141h-30l-5 20c-13 53 -24 76 -115 76h-153v-215h54c100 0 117 13 117 96h29
v-237h-29c0 84 -17 96 -117 96h-54v-133c0 -100 13 -117 96 -117h90c92 0 102 23 116 76l5 20h29l-8 -141h-549v29c84 0 96 17 96 117v150zM844 682l-6 -9l-180 75c-11 5 -30 20 -30 40c0 15 12 37 37 37c22 0 36 -10 58 -30z" />
    <glyph glyph-name="H_Eacute" unicode="&#xf2ea;" horiz-adv-x="1073" 
d="M565 296h-307v-150c0 -100 13 -117 96 -117v-29h-316v29c83 0 95 17 95 117v308c0 100 -12 117 -95 117v29h316v-29c-83 0 -96 -17 -96 -117v-113h307v113c0 100 -12 117 -96 117v29h515l9 -141h-30l-5 20c-13 53 -24 76 -115 76h-153v-215h54c100 0 117 13 117 96h29
v-237h-29c0 84 -17 96 -117 96h-54v-133c0 -100 13 -117 96 -117h90c92 0 102 23 116 76l5 20h29l-8 -141h-549v29c84 0 96 17 96 117v150zM929 788c0 -20 -18 -34 -30 -39l-179 -76l-6 10l121 113c22 20 36 30 58 30c25 0 36 -22 36 -38z" />
    <glyph glyph-name="F_Iacute" unicode="&#xf2eb;" horiz-adv-x="944" 
d="M907 600v-29c-84 0 -96 -17 -96 -117v-308c0 -100 12 -117 96 -117v-29h-317v29c83 0 96 17 96 117v292c0 100 -13 117 -96 117h-332v-215h55c100 0 116 13 116 96h29v-237h-29c0 84 -16 96 -116 96h-55v-149c0 -100 13 -117 96 -117v-29h-316v29c83 0 95 17 95 117v308
c0 100 -12 117 -95 117v29h869zM903 788c0 -20 -19 -35 -30 -40l-180 -75l-5 9l120 113c22 20 36 30 58 30c25 0 37 -22 37 -37z" />
    <glyph glyph-name="F_Icircumflex" unicode="&#xf2ec;" horiz-adv-x="944" 
d="M907 600v-29c-84 0 -96 -17 -96 -117v-308c0 -100 12 -117 96 -117v-29h-317v29c83 0 96 17 96 117v292c0 100 -13 117 -96 117h-332v-215h55c100 0 116 13 116 96h29v-237h-29c0 84 -16 96 -116 96h-55v-149c0 -100 13 -117 96 -117v-29h-316v29c83 0 95 17 95 117v308
c0 100 -12 117 -95 117v29h869zM895 689l-15 -14l-128 83l-129 -83l-15 14l144 155z" />
    <glyph glyph-name="F_Idieresis" unicode="&#xf2ed;" horiz-adv-x="944" 
d="M907 600v-29c-84 0 -96 -17 -96 -117v-308c0 -100 12 -117 96 -117v-29h-317v29c83 0 96 17 96 117v292c0 100 -13 117 -96 117h-332v-215h55c100 0 116 13 116 96h29v-237h-29c0 84 -16 96 -116 96h-55v-149c0 -100 13 -117 96 -117v-29h-316v29c83 0 95 17 95 117v308
c0 100 -12 117 -95 117v29h869zM850 776c28 0 51 -23 51 -51s-23 -51 -51 -51s-51 23 -51 51s23 51 51 51zM651 776c28 0 51 -23 51 -51s-23 -51 -51 -51s-51 23 -51 51s23 51 51 51z" />
    <glyph glyph-name="F_Igrave" unicode="&#xf2ee;" horiz-adv-x="944" 
d="M907 600v-29c-84 0 -96 -17 -96 -117v-308c0 -100 12 -117 96 -117v-29h-317v29c83 0 96 17 96 117v292c0 100 -13 117 -96 117h-332v-215h55c100 0 116 13 116 96h29v-237h-29c0 84 -16 96 -116 96h-55v-149c0 -100 13 -117 96 -117v-29h-316v29c83 0 95 17 95 117v308
c0 100 -12 117 -95 117v29h869zM806 682l-7 -9l-179 75c-12 5 -30 20 -30 40c0 15 12 37 37 37c21 0 36 -10 57 -30z" />
    <glyph glyph-name="Udieresis_B" unicode="&#xf2ef;" horiz-adv-x="1078" 
d="M770 45c85 1 125 57 125 125s-41 125 -127 125h-89v-139c0 -93 12 -110 91 -111zM679 555v-215h56c75 0 110 48 110 107c0 58 -35 108 -110 108h-56zM554 0v63c-44 -53 -112 -80 -187 -80c-133 0 -240 83 -240 240v231c0 100 -13 117 -96 117v29h317v-29
c-84 0 -96 -17 -96 -117v-220c0 -129 69 -189 155 -189s147 60 147 189v220c0 100 -12 117 -96 117v29h340c111 0 181 -67 181 -150c0 -52 -27 -97 -74 -124c78 -24 124 -86 124 -158c0 -93 -78 -168 -202 -168h-273zM489 777c29 0 51 -23 51 -51s-22 -51 -51 -51
c-28 0 -51 23 -51 51s23 51 51 51zM290 777c28 0 51 -23 51 -51s-23 -51 -51 -51c-27 0 -51 23 -51 51s24 51 51 51z" />
    <glyph glyph-name="Uacute_B" unicode="&#xf2f0;" horiz-adv-x="1078" 
d="M770 45c85 1 125 57 125 125s-41 125 -127 125h-89v-139c0 -93 12 -110 91 -111zM679 555v-215h56c75 0 110 48 110 107c0 58 -35 108 -110 108h-56zM554 0v63c-44 -53 -112 -80 -187 -80c-133 0 -240 83 -240 240v231c0 100 -13 117 -96 117v29h317v-29
c-84 0 -96 -17 -96 -117v-220c0 -129 69 -189 155 -189s147 60 147 189v220c0 100 -12 117 -96 117v29h340c111 0 181 -67 181 -150c0 -52 -27 -97 -74 -124c78 -24 124 -86 124 -158c0 -93 -78 -168 -202 -168h-273zM555 788c0 -20 -19 -34 -30 -40l-179 -75l-6 9l121 113
c22 19 36 30 57 30c25 0 37 -22 37 -37z" />
    <glyph glyph-name="Ucircumflex_B" unicode="&#xf2f1;" horiz-adv-x="1078" 
d="M770 45c85 1 125 57 125 125s-41 125 -127 125h-89v-139c0 -93 12 -110 91 -111zM679 555v-215h56c75 0 110 48 110 107c0 58 -35 108 -110 108h-56zM554 0v63c-44 -53 -112 -80 -187 -80c-133 0 -240 83 -240 240v231c0 100 -13 117 -96 117v29h317v-29
c-84 0 -96 -17 -96 -117v-220c0 -129 69 -189 155 -189s147 60 147 189v220c0 100 -12 117 -96 117v29h340c111 0 181 -67 181 -150c0 -52 -27 -97 -74 -124c78 -24 124 -86 124 -158c0 -93 -78 -168 -202 -168h-273zM534 689l-15 -14l-128 83l-128 -83l-15 14l143 155z" />
    <glyph glyph-name="Ugrave_B" unicode="&#xf2f2;" horiz-adv-x="1078" 
d="M770 45c85 1 125 57 125 125s-41 125 -127 125h-89v-139c0 -93 12 -110 91 -111zM679 555v-215h56c75 0 110 48 110 107c0 58 -35 108 -110 108h-56zM554 0v63c-44 -53 -112 -80 -187 -80c-133 0 -240 83 -240 240v231c0 100 -13 117 -96 117v29h317v-29
c-84 0 -96 -17 -96 -117v-220c0 -129 69 -189 155 -189s147 60 147 189v220c0 100 -12 117 -96 117v29h340c111 0 181 -67 181 -150c0 -52 -27 -97 -74 -124c78 -24 124 -86 124 -158c0 -93 -78 -168 -202 -168h-273zM429 682l-6 -9l-180 75c-10 6 -30 20 -30 40
c0 15 12 37 37 37c22 0 36 -11 58 -30z" />
    <glyph glyph-name="Ntilde_K" unicode="&#xf2f3;" horiz-adv-x="1152" 
d="M622 -17h-30l-414 494v-331c0 -100 13 -117 96 -117v-29h-236v29c83 0 95 17 95 117v308c0 100 -12 117 -95 117v29h200l275 -329v183c0 100 -12 117 -95 117v29h300v-29c-84 0 -96 -17 -96 -117v-134l209 169c26 21 87 82 4 82v29h241v-29c-83 0 -118 -30 -183 -82
l-143 -114l278 -287c34 -35 101 -59 129 -59v-29h-333v29c53 0 76 18 38 59l-198 214l-42 -35v-284zM458 726c27 0 44 21 52 57h19c0 -75 -32 -120 -82 -120c-43 0 -113 66 -148 66c-21 0 -42 -25 -51 -55h-18c0 69 35 118 78 118c47 0 107 -66 150 -66z" />
    <glyph glyph-name="L_Agrave" unicode="&#xf2f4;" horiz-adv-x="1117" 
d="M841 245l-80 183l-79 -183h159zM38 0v29c83 0 95 17 95 117v308c0 100 -12 117 -95 117v29h316v-29c-83 0 -96 -17 -96 -117v-292c0 -100 13 -117 96 -117h73h34c68 0 92 17 122 88l210 484h22l218 -500c28 -64 42 -88 122 -88v-29h-328v29c88 0 98 23 75 76l-42 95h-198
l-41 -95c-23 -54 -8 -76 75 -76v-29h-658zM873 682l-7 -9l-179 75c-12 5 -30 20 -30 40c0 15 11 37 36 37c22 0 36 -10 58 -30z" />
    <glyph glyph-name="L_Atilde" unicode="&#xf2f5;" horiz-adv-x="1117" 
d="M841 245l-80 183l-79 -183h159zM38 0v29c83 0 95 17 95 117v308c0 100 -12 117 -95 117v29h316v-29c-83 0 -96 -17 -96 -117v-292c0 -100 13 -117 96 -117h73h34c68 0 92 17 122 88l210 484h22l218 -500c28 -64 42 -88 122 -88v-29h-328v29c88 0 98 23 75 76l-42 95h-198
l-41 -95c-23 -54 -8 -76 75 -76v-29h-658zM881 731c27 0 43 21 52 57h19c0 -75 -33 -120 -83 -120c-42 0 -112 66 -147 66c-22 0 -43 -25 -51 -55h-18c0 69 35 118 77 118c48 0 108 -66 151 -66z" />
    <glyph glyph-name="L_Acircumflex" unicode="&#xf2f6;" horiz-adv-x="1117" 
d="M841 245l-80 183l-79 -183h159zM38 0v29c83 0 95 17 95 117v308c0 100 -12 117 -95 117v29h316v-29c-83 0 -96 -17 -96 -117v-292c0 -100 13 -117 96 -117h73h34c68 0 92 17 122 88l210 484h22l218 -500c28 -64 42 -88 122 -88v-29h-328v29c88 0 98 23 75 76l-42 95h-198
l-41 -95c-23 -54 -8 -76 75 -76v-29h-658zM946 689l-15 -14l-128 83l-129 -83l-15 14l144 155z" />
    <glyph glyph-name="L_Aacute" unicode="&#xf2f7;" horiz-adv-x="1117" 
d="M841 245l-80 183l-79 -183h159zM38 0v29c83 0 95 17 95 117v308c0 100 -12 117 -95 117v29h316v-29c-83 0 -96 -17 -96 -117v-292c0 -100 13 -117 96 -117h73h34c68 0 92 17 122 88l210 484h22l218 -500c28 -64 42 -88 122 -88v-29h-328v29c88 0 98 23 75 76l-42 95h-198
l-41 -95c-23 -54 -8 -76 75 -76v-29h-658zM938 788c0 -20 -18 -35 -30 -40l-179 -75l-6 9l121 113c22 20 36 30 58 30c25 0 36 -22 36 -37z" />
    <glyph glyph-name="L_Adieresis" unicode="&#xf2f8;" horiz-adv-x="1117" 
d="M841 245l-80 183l-79 -183h159zM38 0v29c83 0 95 17 95 117v308c0 100 -12 117 -95 117v29h316v-29c-83 0 -96 -17 -96 -117v-292c0 -100 13 -117 96 -117h73h34c68 0 92 17 122 88l210 484h22l218 -500c28 -64 42 -88 122 -88v-29h-328v29c88 0 98 23 75 76l-42 95h-198
l-41 -95c-23 -54 -8 -76 75 -76v-29h-658zM901 776c28 0 51 -23 51 -51s-23 -51 -51 -51s-51 23 -51 51s23 51 51 51zM702 776c28 0 51 -23 51 -51s-23 -51 -51 -51s-51 23 -51 51s23 51 51 51z" />
    <glyph glyph-name="L_Aring" unicode="&#xf2f9;" horiz-adv-x="1117" 
d="M841 245l-80 183l-79 -183h159zM38 0v29c83 0 95 17 95 117v308c0 100 -12 117 -95 117v29h316v-29c-83 0 -96 -17 -96 -117v-292c0 -100 13 -117 96 -117h73h34c68 0 92 17 122 88l210 484h22l218 -500c28 -64 42 -88 122 -88v-29h-328v29c88 0 98 23 75 76l-42 95h-198
l-41 -95c-23 -54 -8 -76 75 -76v-29h-658zM800 873c55 0 99 -44 99 -99s-44 -99 -99 -99s-99 44 -99 99s44 99 99 99zM800 820c-25 0 -46 -21 -46 -46s21 -46 46 -46s46 21 46 46s-21 46 -46 46z" />
    <glyph glyph-name="Ntilde_T" unicode="&#xf2fa;" horiz-adv-x="1308" 
d="M1291 600l8 -141h-29l-5 20c-13 53 -24 76 -116 76h-100v-409c0 -100 13 -117 96 -117v-29h-317v29c84 0 96 17 96 117v409h-211c-84 0 -96 -17 -96 -117v-455h-25l-414 494v-331c0 -100 13 -117 96 -117v-29h-236v29c83 0 95 17 95 117v308c0 100 -12 117 -95 117v29
h200l334 -398v252c0 100 -13 117 -96 117v29h815zM458 726c27 0 44 21 52 57h19c0 -75 -32 -120 -82 -120c-43 0 -113 66 -148 66c-21 0 -42 -25 -51 -55h-18c0 69 35 118 78 118c47 0 107 -66 150 -66z" />
    <glyph glyph-name="Oacute_O" unicode="&#xf2fb;" horiz-adv-x="1067" 
d="M533 488c-37 -53 -54 -124 -54 -188c0 -63 17 -135 54 -188c38 53 55 124 55 188c0 63 -17 135 -55 188zM533 581c46 22 99 36 155 36c183 0 333 -143 333 -317s-150 -317 -333 -317c-56 0 -108 14 -155 36c-45 -22 -98 -36 -154 -36c-183 0 -333 143 -333 317
s150 317 333 317c56 0 108 -14 154 -36zM475 57c-73 58 -121 146 -121 243c0 98 47 186 121 243c-27 17 -58 26 -96 26c-148 0 -208 -148 -208 -269s60 -269 208 -269c38 0 69 9 96 26zM592 543c73 -58 121 -145 121 -243c0 -97 -47 -186 -121 -243c26 -17 58 -26 96 -26
c148 0 208 148 208 269s-60 269 -208 269c-38 0 -70 -9 -96 -26zM517 788c0 -20 -19 -35 -30 -40l-179 -75l-6 9l121 113c21 20 35 30 57 30c25 0 37 -22 37 -37z" />
    <glyph glyph-name="Ocircumflex_O" unicode="&#xf2fc;" horiz-adv-x="1067" 
d="M533 488c-37 -53 -54 -124 -54 -188c0 -63 17 -135 54 -188c38 53 55 124 55 188c0 63 -17 135 -55 188zM533 581c46 22 99 36 155 36c183 0 333 -143 333 -317s-150 -317 -333 -317c-56 0 -108 14 -155 36c-45 -22 -98 -36 -154 -36c-183 0 -333 143 -333 317
s150 317 333 317c56 0 108 -14 154 -36zM475 57c-73 58 -121 146 -121 243c0 98 47 186 121 243c-27 17 -58 26 -96 26c-148 0 -208 -148 -208 -269s60 -269 208 -269c38 0 69 9 96 26zM592 543c73 -58 121 -145 121 -243c0 -97 -47 -186 -121 -243c26 -17 58 -26 96 -26
c148 0 208 148 208 269s-60 269 -208 269c-38 0 -70 -9 -96 -26zM523 687l-15 -14l-128 83l-128 -83l-15 14l143 155z" />
    <glyph glyph-name="Ograve_O" unicode="&#xf2fd;" horiz-adv-x="1067" 
d="M533 488c-37 -53 -54 -124 -54 -188c0 -63 17 -135 54 -188c38 53 55 124 55 188c0 63 -17 135 -55 188zM533 581c46 22 99 36 155 36c183 0 333 -143 333 -317s-150 -317 -333 -317c-56 0 -108 14 -155 36c-45 -22 -98 -36 -154 -36c-183 0 -333 143 -333 317
s150 317 333 317c56 0 108 -14 154 -36zM475 57c-73 58 -121 146 -121 243c0 98 47 186 121 243c-27 17 -58 26 -96 26c-148 0 -208 -148 -208 -269s60 -269 208 -269c38 0 69 9 96 26zM592 543c73 -58 121 -145 121 -243c0 -97 -47 -186 -121 -243c26 -17 58 -26 96 -26
c148 0 208 148 208 269s-60 269 -208 269c-38 0 -70 -9 -96 -26zM451 682l-7 -9l-179 75c-12 5 -30 20 -30 40c0 15 12 37 37 37c21 0 36 -10 57 -30z" />
    <glyph glyph-name="Otilde_O" unicode="&#xf2fe;" horiz-adv-x="1067" 
d="M533 488c-37 -53 -54 -124 -54 -188c0 -63 17 -135 54 -188c38 53 55 124 55 188c0 63 -17 135 -55 188zM533 581c46 22 99 36 155 36c183 0 333 -143 333 -317s-150 -317 -333 -317c-56 0 -108 14 -155 36c-45 -22 -98 -36 -154 -36c-183 0 -333 143 -333 317
s150 317 333 317c56 0 108 -14 154 -36zM475 57c-73 58 -121 146 -121 243c0 98 47 186 121 243c-27 17 -58 26 -96 26c-148 0 -208 -148 -208 -269s60 -269 208 -269c38 0 69 9 96 26zM592 543c73 -58 121 -145 121 -243c0 -97 -47 -186 -121 -243c26 -17 58 -26 96 -26
c148 0 208 148 208 269s-60 269 -208 269c-38 0 -70 -9 -96 -26zM459 731c27 0 44 21 52 57h19c0 -75 -32 -120 -82 -120c-43 0 -113 66 -148 66c-22 0 -42 -25 -51 -55h-18c0 69 35 118 77 118c48 0 108 -66 151 -66z" />
    <glyph glyph-name="Odieresis_O" unicode="&#xf2ff;" horiz-adv-x="1067" 
d="M533 488c-37 -53 -54 -124 -54 -188c0 -63 17 -135 54 -188c38 53 55 124 55 188c0 63 -17 135 -55 188zM533 581c46 22 99 36 155 36c183 0 333 -143 333 -317s-150 -317 -333 -317c-56 0 -108 14 -155 36c-45 -22 -98 -36 -154 -36c-183 0 -333 143 -333 317
s150 317 333 317c56 0 108 -14 154 -36zM475 57c-73 58 -121 146 -121 243c0 98 47 186 121 243c-27 17 -58 26 -96 26c-148 0 -208 -148 -208 -269s60 -269 208 -269c38 0 69 9 96 26zM592 543c73 -58 121 -145 121 -243c0 -97 -47 -186 -121 -243c26 -17 58 -26 96 -26
c148 0 208 148 208 269s-60 269 -208 269c-38 0 -70 -9 -96 -26zM481 776c28 0 51 -23 51 -51s-23 -51 -51 -51s-51 23 -51 51s23 51 51 51zM282 776c28 0 51 -23 51 -51s-23 -51 -51 -51s-51 23 -51 51s23 51 51 51z" />
    <glyph glyph-name="O_Oacute" unicode="&#xf300;" horiz-adv-x="1067" 
d="M533 488c-37 -53 -54 -124 -54 -188c0 -63 17 -135 54 -188c38 53 55 124 55 188c0 63 -17 135 -55 188zM533 581c46 22 99 36 155 36c183 0 333 -143 333 -317s-150 -317 -333 -317c-56 0 -108 14 -155 36c-45 -22 -98 -36 -154 -36c-183 0 -333 143 -333 317
s150 317 333 317c56 0 108 -14 154 -36zM475 57c-73 58 -121 146 -121 243c0 98 47 186 121 243c-27 17 -58 26 -96 26c-148 0 -208 -148 -208 -269s60 -269 208 -269c38 0 69 9 96 26zM592 543c73 -58 121 -145 121 -243c0 -97 -47 -186 -121 -243c26 -17 58 -26 96 -26
c148 0 208 148 208 269s-60 269 -208 269c-38 0 -70 -9 -96 -26zM825 788c0 -20 -18 -35 -30 -40l-179 -75l-6 9l121 113c22 20 36 30 57 30c25 0 37 -22 37 -37z" />
    <glyph glyph-name="O_Ocircumflex" unicode="&#xf301;" horiz-adv-x="1067" 
d="M533 488c-37 -53 -54 -124 -54 -188c0 -63 17 -135 54 -188c38 53 55 124 55 188c0 63 -17 135 -55 188zM533 581c46 22 99 36 155 36c183 0 333 -143 333 -317s-150 -317 -333 -317c-56 0 -108 14 -155 36c-45 -22 -98 -36 -154 -36c-183 0 -333 143 -333 317
s150 317 333 317c56 0 108 -14 154 -36zM475 57c-73 58 -121 146 -121 243c0 98 47 186 121 243c-27 17 -58 26 -96 26c-148 0 -208 -148 -208 -269s60 -269 208 -269c38 0 69 9 96 26zM592 543c73 -58 121 -145 121 -243c0 -97 -47 -186 -121 -243c26 -17 58 -26 96 -26
c148 0 208 148 208 269s-60 269 -208 269c-38 0 -70 -9 -96 -26zM832 687l-15 -14l-129 83l-128 -83l-15 14l143 155z" />
    <glyph glyph-name="O_Ograve" unicode="&#xf302;" horiz-adv-x="1067" 
d="M533 488c-37 -53 -54 -124 -54 -188c0 -63 17 -135 54 -188c38 53 55 124 55 188c0 63 -17 135 -55 188zM533 581c46 22 99 36 155 36c183 0 333 -143 333 -317s-150 -317 -333 -317c-56 0 -108 14 -155 36c-45 -22 -98 -36 -154 -36c-183 0 -333 143 -333 317
s150 317 333 317c56 0 108 -14 154 -36zM475 57c-73 58 -121 146 -121 243c0 98 47 186 121 243c-27 17 -58 26 -96 26c-148 0 -208 -148 -208 -269s60 -269 208 -269c38 0 69 9 96 26zM592 543c73 -58 121 -145 121 -243c0 -97 -47 -186 -121 -243c26 -17 58 -26 96 -26
c148 0 208 148 208 269s-60 269 -208 269c-38 0 -70 -9 -96 -26zM759 682l-6 -9l-180 75c-11 5 -30 20 -30 40c0 15 12 37 37 37c22 0 36 -10 58 -30z" />
    <glyph glyph-name="O_Otilde" unicode="&#xf303;" horiz-adv-x="1067" 
d="M533 488c-37 -53 -54 -124 -54 -188c0 -63 17 -135 54 -188c38 53 55 124 55 188c0 63 -17 135 -55 188zM533 581c46 22 99 36 155 36c183 0 333 -143 333 -317s-150 -317 -333 -317c-56 0 -108 14 -155 36c-45 -22 -98 -36 -154 -36c-183 0 -333 143 -333 317
s150 317 333 317c56 0 108 -14 154 -36zM475 57c-73 58 -121 146 -121 243c0 98 47 186 121 243c-27 17 -58 26 -96 26c-148 0 -208 -148 -208 -269s60 -269 208 -269c38 0 69 9 96 26zM592 543c73 -58 121 -145 121 -243c0 -97 -47 -186 -121 -243c26 -17 58 -26 96 -26
c148 0 208 148 208 269s-60 269 -208 269c-38 0 -70 -9 -96 -26zM768 731c26 0 43 21 51 57h19c0 -75 -32 -120 -82 -120c-43 0 -113 66 -148 66c-21 0 -42 -25 -50 -55h-19c0 69 35 118 78 118c47 0 107 -66 151 -66z" />
    <glyph glyph-name="O_Odieresis" unicode="&#xf304;" horiz-adv-x="1067" 
d="M533 488c-37 -53 -54 -124 -54 -188c0 -63 17 -135 54 -188c38 53 55 124 55 188c0 63 -17 135 -55 188zM533 581c46 22 99 36 155 36c183 0 333 -143 333 -317s-150 -317 -333 -317c-56 0 -108 14 -155 36c-45 -22 -98 -36 -154 -36c-183 0 -333 143 -333 317
s150 317 333 317c56 0 108 -14 154 -36zM475 57c-73 58 -121 146 -121 243c0 98 47 186 121 243c-27 17 -58 26 -96 26c-148 0 -208 -148 -208 -269s60 -269 208 -269c38 0 69 9 96 26zM592 543c73 -58 121 -145 121 -243c0 -97 -47 -186 -121 -243c26 -17 58 -26 96 -26
c148 0 208 148 208 269s-60 269 -208 269c-38 0 -70 -9 -96 -26zM789 776c29 0 51 -23 51 -51s-22 -51 -51 -51c-28 0 -51 23 -51 51s23 51 51 51zM590 776c28 0 51 -23 51 -51s-23 -51 -51 -51c-27 0 -51 23 -51 51s24 51 51 51z" />
    <glyph glyph-name="T_Ecircumflex" unicode="&#xf305;" horiz-adv-x="766" 
d="M678 600l8 -141h-29l-5 20c-14 53 -24 76 -116 76h-153v-215h55c100 0 116 13 116 96h29v-237h-29c0 84 -16 96 -116 96h-55v-133c0 -100 13 -117 96 -117h90c92 0 103 23 116 76l5 20h29l-8 -141h-548v29c83 0 95 17 95 117v409h-100c-91 0 -102 -23 -115 -76l-5 -20
h-30l9 141h661zM599 689l-15 -14l-128 83l-128 -83l-15 14l143 155z" />
    <glyph glyph-name="T_Edieresis" unicode="&#xf306;" horiz-adv-x="766" 
d="M678 600l8 -141h-29l-5 20c-14 53 -24 76 -116 76h-153v-215h55c100 0 116 13 116 96h29v-237h-29c0 84 -16 96 -116 96h-55v-133c0 -100 13 -117 96 -117h90c92 0 103 23 116 76l5 20h29l-8 -141h-548v29c83 0 95 17 95 117v409h-100c-91 0 -102 -23 -115 -76l-5 -20
h-30l9 141h661zM567 776c28 0 51 -23 51 -51s-23 -51 -51 -51c-29 0 -51 23 -51 51s22 51 51 51zM368 776c28 0 50 -23 50 -51s-22 -51 -50 -51s-51 23 -51 51s23 51 51 51z" />
    <glyph glyph-name="T_Egrave" unicode="&#xf307;" horiz-adv-x="766" 
d="M678 600l8 -141h-29l-5 20c-14 53 -24 76 -116 76h-153v-215h55c100 0 116 13 116 96h29v-237h-29c0 84 -16 96 -116 96h-55v-133c0 -100 13 -117 96 -117h90c92 0 103 23 116 76l5 20h29l-8 -141h-548v29c83 0 95 17 95 117v409h-100c-91 0 -102 -23 -115 -76l-5 -20
h-30l9 141h661zM538 682l-7 -9l-179 75c-12 5 -30 20 -30 40c0 15 11 37 36 37c22 0 36 -10 58 -30z" />
    <glyph glyph-name="T_Eacute" unicode="&#xf308;" horiz-adv-x="766" 
d="M678 600l8 -141h-29l-5 20c-14 53 -24 76 -116 76h-153v-215h55c100 0 116 13 116 96h29v-237h-29c0 84 -16 96 -116 96h-55v-133c0 -100 13 -117 96 -117h90c92 0 103 23 116 76l5 20h29l-8 -141h-548v29c83 0 95 17 95 117v409h-100c-91 0 -102 -23 -115 -76l-5 -20
h-30l9 141h661zM623 788c0 -20 -19 -34 -30 -39l-180 -76l-5 10l120 113c22 20 36 30 58 30c25 0 37 -22 37 -38z" />
    <glyph glyph-name="Udieresis_D" unicode="&#xf309;" horiz-adv-x="1168" 
d="M679 555v-397c0 -97 13 -113 96 -113h10c162 0 195 142 195 255s-33 255 -195 255h-106zM554 0v63c-44 -53 -112 -80 -187 -80c-133 0 -240 83 -240 240v231c0 100 -13 117 -96 117v29h317v-29c-84 0 -96 -17 -96 -117v-220c0 -129 69 -189 155 -189s147 60 147 189v220
c0 100 -12 117 -96 117v29h330c233 0 334 -135 334 -300s-101 -300 -334 -300h-234zM489 777c29 0 51 -23 51 -51s-22 -51 -51 -51c-28 0 -51 23 -51 51s23 51 51 51zM290 777c28 0 51 -23 51 -51s-23 -51 -51 -51c-27 0 -51 23 -51 51s24 51 51 51z" />
    <glyph glyph-name="Uacute_D" unicode="&#xf30a;" horiz-adv-x="1168" 
d="M679 555v-397c0 -97 13 -113 96 -113h10c162 0 195 142 195 255s-33 255 -195 255h-106zM554 0v63c-44 -53 -112 -80 -187 -80c-133 0 -240 83 -240 240v231c0 100 -13 117 -96 117v29h317v-29c-84 0 -96 -17 -96 -117v-220c0 -129 69 -189 155 -189s147 60 147 189v220
c0 100 -12 117 -96 117v29h330c233 0 334 -135 334 -300s-101 -300 -334 -300h-234zM555 788c0 -20 -19 -34 -30 -40l-179 -75l-6 9l121 113c22 19 36 30 57 30c25 0 37 -22 37 -37z" />
    <glyph glyph-name="Ucircumflex_D" unicode="&#xf30b;" horiz-adv-x="1168" 
d="M679 555v-397c0 -97 13 -113 96 -113h10c162 0 195 142 195 255s-33 255 -195 255h-106zM554 0v63c-44 -53 -112 -80 -187 -80c-133 0 -240 83 -240 240v231c0 100 -13 117 -96 117v29h317v-29c-84 0 -96 -17 -96 -117v-220c0 -129 69 -189 155 -189s147 60 147 189v220
c0 100 -12 117 -96 117v29h330c233 0 334 -135 334 -300s-101 -300 -334 -300h-234zM534 689l-15 -14l-128 83l-128 -83l-15 14l143 155z" />
    <glyph glyph-name="Ugrave_D" unicode="&#xf30c;" horiz-adv-x="1168" 
d="M679 555v-397c0 -97 13 -113 96 -113h10c162 0 195 142 195 255s-33 255 -195 255h-106zM554 0v63c-44 -53 -112 -80 -187 -80c-133 0 -240 83 -240 240v231c0 100 -13 117 -96 117v29h317v-29c-84 0 -96 -17 -96 -117v-220c0 -129 69 -189 155 -189s147 60 147 189v220
c0 100 -12 117 -96 117v29h330c233 0 334 -135 334 -300s-101 -300 -334 -300h-234zM429 682l-6 -9l-180 75c-10 6 -30 20 -30 40c0 15 12 37 37 37c22 0 36 -11 58 -30z" />
    <glyph glyph-name="Udieresis_P" unicode="&#xf30d;" horiz-adv-x="1019" 
d="M734 308c87 0 128 55 128 123s-41 124 -128 124h-55v-247h55zM554 0v63c-44 -53 -112 -80 -187 -80c-133 0 -240 83 -240 240v231c0 100 -13 117 -96 117v29h317v-29c-84 0 -96 -17 -96 -117v-220c0 -129 69 -189 155 -189s147 60 147 189v220c0 100 -12 117 -96 117v29
h335c125 0 203 -76 203 -169s-78 -168 -203 -168h-114v-117c0 -100 13 -117 96 -117v-29h-221zM489 777c29 0 51 -23 51 -51s-22 -51 -51 -51c-28 0 -51 23 -51 51s23 51 51 51zM290 777c28 0 51 -23 51 -51s-23 -51 -51 -51c-27 0 -51 23 -51 51s24 51 51 51z" />
    <glyph glyph-name="Uacute_P" unicode="&#xf30e;" horiz-adv-x="1019" 
d="M734 308c87 0 128 55 128 123s-41 124 -128 124h-55v-247h55zM554 0v63c-44 -53 -112 -80 -187 -80c-133 0 -240 83 -240 240v231c0 100 -13 117 -96 117v29h317v-29c-84 0 -96 -17 -96 -117v-220c0 -129 69 -189 155 -189s147 60 147 189v220c0 100 -12 117 -96 117v29
h335c125 0 203 -76 203 -169s-78 -168 -203 -168h-114v-117c0 -100 13 -117 96 -117v-29h-221zM555 788c0 -20 -19 -34 -30 -40l-179 -75l-6 9l121 113c22 19 36 30 57 30c25 0 37 -22 37 -37z" />
    <glyph glyph-name="Ucircumflex_P" unicode="&#xf30f;" horiz-adv-x="1019" 
d="M734 308c87 0 128 55 128 123s-41 124 -128 124h-55v-247h55zM554 0v63c-44 -53 -112 -80 -187 -80c-133 0 -240 83 -240 240v231c0 100 -13 117 -96 117v29h317v-29c-84 0 -96 -17 -96 -117v-220c0 -129 69 -189 155 -189s147 60 147 189v220c0 100 -12 117 -96 117v29
h335c125 0 203 -76 203 -169s-78 -168 -203 -168h-114v-117c0 -100 13 -117 96 -117v-29h-221zM534 689l-15 -14l-128 83l-128 -83l-15 14l143 155z" />
    <glyph glyph-name="Ugrave_P" unicode="&#xf310;" horiz-adv-x="1019" 
d="M734 308c87 0 128 55 128 123s-41 124 -128 124h-55v-247h55zM554 0v63c-44 -53 -112 -80 -187 -80c-133 0 -240 83 -240 240v231c0 100 -13 117 -96 117v29h317v-29c-84 0 -96 -17 -96 -117v-220c0 -129 69 -189 155 -189s147 60 147 189v220c0 100 -12 117 -96 117v29
h335c125 0 203 -76 203 -169s-78 -168 -203 -168h-114v-117c0 -100 13 -117 96 -117v-29h-221zM429 682l-6 -9l-180 75c-10 6 -30 20 -30 40c0 15 12 37 37 37c22 0 36 -11 58 -30z" />
    <glyph glyph-name="V_Agrave" unicode="&#xf311;" horiz-adv-x="872" 
d="M910 0h-328v29c88 0 98 23 75 76l-42 95h-198l-94 -217h-21l-218 500c-28 65 -42 88 -122 88v29h328v-29c-88 0 -98 -23 -75 -76l140 -325l193 447h22l218 -500c28 -64 42 -88 122 -88v-29zM596 245l-80 183l-79 -183h159zM627 682l-7 -9l-179 75c-12 5 -30 20 -30 40
c0 15 12 37 37 37c21 0 35 -10 57 -30z" />
    <glyph glyph-name="V_Atilde" unicode="&#xf312;" horiz-adv-x="872" 
d="M910 0h-328v29c88 0 98 23 75 76l-42 95h-198l-94 -217h-21l-218 500c-28 65 -42 88 -122 88v29h328v-29c-88 0 -98 -23 -75 -76l140 -325l193 447h22l218 -500c28 -64 42 -88 122 -88v-29zM596 245l-80 183l-79 -183h159zM635 731c27 0 43 21 52 57h19
c0 -75 -33 -120 -83 -120c-42 0 -112 66 -147 66c-22 0 -43 -25 -51 -55h-18c0 69 35 118 77 118c48 0 108 -66 151 -66z" />
    <glyph glyph-name="V_Acircumflex" unicode="&#xf313;" horiz-adv-x="872" 
d="M910 0h-328v29c88 0 98 23 75 76l-42 95h-198l-94 -217h-21l-218 500c-28 65 -42 88 -122 88v29h328v-29c-88 0 -98 -23 -75 -76l140 -325l193 447h22l218 -500c28 -64 42 -88 122 -88v-29zM596 245l-80 183l-79 -183h159zM700 689l-15 -14l-128 83l-129 -83l-15 14
l144 155z" />
    <glyph glyph-name="V_Aacute" unicode="&#xf314;" horiz-adv-x="872" 
d="M910 0h-328v29c88 0 98 23 75 76l-42 95h-198l-94 -217h-21l-218 500c-28 65 -42 88 -122 88v29h328v-29c-88 0 -98 -23 -75 -76l140 -325l193 447h22l218 -500c28 -64 42 -88 122 -88v-29zM596 245l-80 183l-79 -183h159zM693 788c0 -20 -19 -35 -30 -40l-180 -75l-5 9
l120 113c22 20 36 30 58 30c25 0 37 -22 37 -37z" />
    <glyph glyph-name="V_Adieresis" unicode="&#xf315;" horiz-adv-x="872" 
d="M910 0h-328v29c88 0 98 23 75 76l-42 95h-198l-94 -217h-21l-218 500c-28 65 -42 88 -122 88v29h328v-29c-88 0 -98 -23 -75 -76l140 -325l193 447h22l218 -500c28 -64 42 -88 122 -88v-29zM596 245l-80 183l-79 -183h159zM655 776c28 0 51 -23 51 -51s-23 -51 -51 -51
s-51 23 -51 51s23 51 51 51zM456 776c28 0 51 -23 51 -51s-23 -51 -51 -51s-51 23 -51 51s23 51 51 51z" />
    <glyph glyph-name="V_Aring" unicode="&#xf316;" horiz-adv-x="872" 
d="M910 0h-328v29c88 0 98 23 75 76l-42 95h-198l-94 -217h-21l-218 500c-28 65 -42 88 -122 88v29h328v-29c-88 0 -98 -23 -75 -76l140 -325l193 447h22l218 -500c28 -64 42 -88 122 -88v-29zM596 245l-80 183l-79 -183h159zM554 873c55 0 99 -44 99 -99s-44 -99 -99 -99
s-99 44 -99 99s44 99 99 99zM554 820c-25 0 -46 -21 -46 -46s21 -46 46 -46s46 21 46 46s-21 46 -46 46z" />
    <glyph glyph-name="Udieresis_L" unicode="&#xf317;" horiz-adv-x="1054" 
d="M775 600v-29c-83 0 -96 -17 -96 -117v-292c0 -100 13 -117 96 -117h115c92 0 103 23 116 76l5 20h29l-8 -141h-478v63c-44 -53 -112 -80 -187 -80c-133 0 -240 83 -240 240v231c0 100 -13 117 -96 117v29h317v-29c-84 0 -96 -17 -96 -117v-220c0 -129 69 -189 155 -189
s147 60 147 189v220c0 100 -12 117 -96 117v29h317zM489 777c29 0 51 -23 51 -51s-22 -51 -51 -51c-28 0 -51 23 -51 51s23 51 51 51zM290 777c28 0 51 -23 51 -51s-23 -51 -51 -51c-27 0 -51 23 -51 51s24 51 51 51z" />
    <glyph glyph-name="Uacute_L" unicode="&#xf318;" horiz-adv-x="1054" 
d="M775 600v-29c-83 0 -96 -17 -96 -117v-292c0 -100 13 -117 96 -117h115c92 0 103 23 116 76l5 20h29l-8 -141h-478v63c-44 -53 -112 -80 -187 -80c-133 0 -240 83 -240 240v231c0 100 -13 117 -96 117v29h317v-29c-84 0 -96 -17 -96 -117v-220c0 -129 69 -189 155 -189
s147 60 147 189v220c0 100 -12 117 -96 117v29h317zM555 788c0 -20 -19 -34 -30 -40l-179 -75l-6 9l121 113c22 19 36 30 57 30c25 0 37 -22 37 -37z" />
    <glyph glyph-name="Ucircumflex_L" unicode="&#xf319;" horiz-adv-x="1054" 
d="M775 600v-29c-83 0 -96 -17 -96 -117v-292c0 -100 13 -117 96 -117h115c92 0 103 23 116 76l5 20h29l-8 -141h-478v63c-44 -53 -112 -80 -187 -80c-133 0 -240 83 -240 240v231c0 100 -13 117 -96 117v29h317v-29c-84 0 -96 -17 -96 -117v-220c0 -129 69 -189 155 -189
s147 60 147 189v220c0 100 -12 117 -96 117v29h317zM534 689l-15 -14l-128 83l-128 -83l-15 14l143 155z" />
    <glyph glyph-name="Ugrave_L" unicode="&#xf31a;" horiz-adv-x="1054" 
d="M775 600v-29c-83 0 -96 -17 -96 -117v-292c0 -100 13 -117 96 -117h115c92 0 103 23 116 76l5 20h29l-8 -141h-478v63c-44 -53 -112 -80 -187 -80c-133 0 -240 83 -240 240v231c0 100 -13 117 -96 117v29h317v-29c-84 0 -96 -17 -96 -117v-220c0 -129 69 -189 155 -189
s147 60 147 189v220c0 100 -12 117 -96 117v29h317zM429 682l-6 -9l-180 75c-10 6 -30 20 -30 40c0 15 12 37 37 37c22 0 36 -11 58 -30z" />
    <glyph glyph-name="T_Ydieresis" unicode="&#xf31b;" horiz-adv-x="1200" 
d="M873 600v-29c-70 0 -90 -23 -54 -76l113 -169l111 169c36 54 25 76 -53 76v29h242v-29c-84 0 -102 -23 -144 -88l-144 -216v-121c0 -100 13 -117 96 -117v-29h-312v29c83 0 95 17 95 117v118l-134 204c-46 70 -74 87 -144 87h-57h-105v-409c0 -100 13 -117 96 -117v-29
h-316v29c83 0 95 17 95 117v409h-100c-91 0 -102 -23 -115 -76l-5 -20h-30l9 141h856zM1000 776c28 0 51 -23 51 -51s-23 -51 -51 -51s-51 23 -51 51s23 51 51 51zM801 776c28 0 51 -23 51 -51s-23 -51 -51 -51s-51 23 -51 51s23 51 51 51z" />
    <glyph glyph-name="T_Yacute" unicode="&#xf31c;" horiz-adv-x="1200" 
d="M873 600v-29c-70 0 -90 -23 -54 -76l113 -169l111 169c36 54 25 76 -53 76v29h242v-29c-84 0 -102 -23 -144 -88l-144 -216v-121c0 -100 13 -117 96 -117v-29h-312v29c83 0 95 17 95 117v118l-134 204c-46 70 -74 87 -144 87h-57h-105v-409c0 -100 13 -117 96 -117v-29
h-316v29c83 0 95 17 95 117v409h-100c-91 0 -102 -23 -115 -76l-5 -20h-30l9 141h856zM1066 788c0 -20 -18 -34 -30 -39l-179 -76l-6 10l121 113c21 20 36 30 57 30c25 0 37 -22 37 -38z" />
    <glyph glyph-name="Udieresis_R" unicode="&#xf31d;" horiz-adv-x="1099" 
d="M734 308c87 0 128 55 128 123s-41 124 -128 124h-55v-247h55zM554 0v63c-44 -53 -112 -80 -187 -80c-133 0 -240 83 -240 240v231c0 100 -13 117 -96 117v29h317v-29c-84 0 -96 -17 -96 -117v-220c0 -129 69 -189 155 -189s147 60 147 189v220c0 100 -12 117 -96 117v29
h335c125 0 203 -76 203 -169c0 -87 -68 -158 -178 -168l98 -106c88 -97 126 -120 187 -128v-29h-217l-178 263h-29v-117c0 -100 13 -117 96 -117v-29h-221zM489 777c29 0 51 -23 51 -51s-22 -51 -51 -51c-28 0 -51 23 -51 51s23 51 51 51zM290 777c28 0 51 -23 51 -51
s-23 -51 -51 -51c-27 0 -51 23 -51 51s24 51 51 51z" />
    <glyph glyph-name="Uacute_R" unicode="&#xf31e;" horiz-adv-x="1099" 
d="M734 308c87 0 128 55 128 123s-41 124 -128 124h-55v-247h55zM554 0v63c-44 -53 -112 -80 -187 -80c-133 0 -240 83 -240 240v231c0 100 -13 117 -96 117v29h317v-29c-84 0 -96 -17 -96 -117v-220c0 -129 69 -189 155 -189s147 60 147 189v220c0 100 -12 117 -96 117v29
h335c125 0 203 -76 203 -169c0 -87 -68 -158 -178 -168l98 -106c88 -97 126 -120 187 -128v-29h-217l-178 263h-29v-117c0 -100 13 -117 96 -117v-29h-221zM555 788c0 -20 -19 -34 -30 -40l-179 -75l-6 9l121 113c22 19 36 30 57 30c25 0 37 -22 37 -37z" />
    <glyph glyph-name="Ucircumflex_R" unicode="&#xf31f;" horiz-adv-x="1099" 
d="M734 308c87 0 128 55 128 123s-41 124 -128 124h-55v-247h55zM554 0v63c-44 -53 -112 -80 -187 -80c-133 0 -240 83 -240 240v231c0 100 -13 117 -96 117v29h317v-29c-84 0 -96 -17 -96 -117v-220c0 -129 69 -189 155 -189s147 60 147 189v220c0 100 -12 117 -96 117v29
h335c125 0 203 -76 203 -169c0 -87 -68 -158 -178 -168l98 -106c88 -97 126 -120 187 -128v-29h-217l-178 263h-29v-117c0 -100 13 -117 96 -117v-29h-221zM534 689l-15 -14l-128 83l-128 -83l-15 14l143 155z" />
    <glyph glyph-name="Ugrave_R" unicode="&#xf320;" horiz-adv-x="1099" 
d="M734 308c87 0 128 55 128 123s-41 124 -128 124h-55v-247h55zM554 0v63c-44 -53 -112 -80 -187 -80c-133 0 -240 83 -240 240v231c0 100 -13 117 -96 117v29h317v-29c-84 0 -96 -17 -96 -117v-220c0 -129 69 -189 155 -189s147 60 147 189v220c0 100 -12 117 -96 117v29
h335c125 0 203 -76 203 -169c0 -87 -68 -158 -178 -168l98 -106c88 -97 126 -120 187 -128v-29h-217l-178 263h-29v-117c0 -100 13 -117 96 -117v-29h-221zM429 682l-6 -9l-180 75c-10 6 -30 20 -30 40c0 15 12 37 37 37c22 0 36 -11 58 -30z" />
    <glyph glyph-name="aacute_e" unicode="&#xf2a0;" horiz-adv-x="883" 
d="M626 229h133c4 41 -18 73 -61 73c-37 0 -61 -25 -72 -73zM261 88v85c-77 -20 -123 -40 -123 -90c0 -30 20 -40 40 -40c16 0 49 15 83 45zM366 223c42 3 92 6 144 6c27 73 99 121 183 121c109 0 165 -96 144 -165h-218c-7 -102 45 -149 99 -149c45 0 87 15 118 42l17 -29
c-35 -37 -95 -66 -152 -66c-120 0 -202 83 -202 184c0 6 0 12 1 18c-42 -1 -92 -2 -134 -5v-101c0 -25 8 -38 22 -38c11 0 21 7 29 12l14 -27c-29 -22 -70 -37 -93 -37c-45 0 -70 22 -77 58c-56 -44 -81 -60 -126 -60c-48 0 -96 31 -96 84c0 85 91 122 222 142v1
c0 74 -23 95 -65 95c-23 0 -54 -13 -54 -39c0 -27 -18 -43 -40 -43s-39 16 -39 43c0 50 72 80 145 80c108 0 155 -38 158 -127zM363 522c0 -20 -18 -34 -30 -39l-179 -76l-6 9l121 113c22 20 36 30 58 30c25 0 36 -21 36 -37z" />
    <glyph glyph-name="agrave_e" unicode="&#xf2a1;" horiz-adv-x="883" 
d="M626 229h133c4 41 -18 73 -61 73c-37 0 -61 -25 -72 -73zM261 88v85c-77 -20 -123 -40 -123 -90c0 -30 20 -40 40 -40c16 0 49 15 83 45zM366 223c42 3 92 6 144 6c27 73 99 121 183 121c109 0 165 -96 144 -165h-218c-7 -102 45 -149 99 -149c45 0 87 15 118 42l17 -29
c-35 -37 -95 -66 -152 -66c-120 0 -202 83 -202 184c0 6 0 12 1 18c-42 -1 -92 -2 -134 -5v-101c0 -25 8 -38 22 -38c11 0 21 7 29 12l14 -27c-29 -22 -70 -37 -93 -37c-45 0 -70 22 -77 58c-56 -44 -81 -60 -126 -60c-48 0 -96 31 -96 84c0 85 91 122 222 142v1
c0 74 -23 95 -65 95c-23 0 -54 -13 -54 -39c0 -27 -18 -43 -40 -43s-39 16 -39 43c0 50 72 80 145 80c108 0 155 -38 158 -127zM298 416l-7 -9l-179 76c-12 5 -30 19 -30 39c0 16 11 37 36 37c22 0 36 -10 58 -30z" />
    <glyph glyph-name="acircumflex_e" unicode="&#xf2a2;" horiz-adv-x="883" 
d="M626 229h133c4 41 -18 73 -61 73c-37 0 -61 -25 -72 -73zM261 88v85c-77 -20 -123 -40 -123 -90c0 -30 20 -40 40 -40c16 0 49 15 83 45zM366 223c42 3 92 6 144 6c27 73 99 121 183 121c109 0 165 -96 144 -165h-218c-7 -102 45 -149 99 -149c45 0 87 15 118 42l17 -29
c-35 -37 -95 -66 -152 -66c-120 0 -202 83 -202 184c0 6 0 12 1 18c-42 -1 -92 -2 -134 -5v-101c0 -25 8 -38 22 -38c11 0 21 7 29 12l14 -27c-29 -22 -70 -37 -93 -37c-45 0 -70 22 -77 58c-56 -44 -81 -60 -126 -60c-48 0 -96 31 -96 84c0 85 91 122 222 142v1
c0 74 -23 95 -65 95c-23 0 -54 -13 -54 -39c0 -27 -18 -43 -40 -43s-39 16 -39 43c0 50 72 80 145 80c108 0 155 -38 158 -127zM369 423l-15 -15l-128 84l-128 -84l-15 15l143 155z" />
    <glyph glyph-name="adieresis_e" unicode="&#xf2a3;" horiz-adv-x="883" 
d="M626 229h133c4 41 -18 73 -61 73c-37 0 -61 -25 -72 -73zM261 88v85c-77 -20 -123 -40 -123 -90c0 -30 20 -40 40 -40c16 0 49 15 83 45zM366 223c42 3 92 6 144 6c27 73 99 121 183 121c109 0 165 -96 144 -165h-218c-7 -102 45 -149 99 -149c45 0 87 15 118 42l17 -29
c-35 -37 -95 -66 -152 -66c-120 0 -202 83 -202 184c0 6 0 12 1 18c-42 -1 -92 -2 -134 -5v-101c0 -25 8 -38 22 -38c11 0 21 7 29 12l14 -27c-29 -22 -70 -37 -93 -37c-45 0 -70 22 -77 58c-56 -44 -81 -60 -126 -60c-48 0 -96 31 -96 84c0 85 91 122 222 142v1
c0 74 -23 95 -65 95c-23 0 -54 -13 -54 -39c0 -27 -18 -43 -40 -43s-39 16 -39 43c0 50 72 80 145 80c108 0 155 -38 158 -127zM324 510c29 0 51 -22 51 -51c0 -28 -22 -51 -51 -51c-28 0 -51 23 -51 51c0 29 23 51 51 51zM125 510c28 0 51 -22 51 -51
c0 -28 -23 -51 -51 -51c-27 0 -51 23 -51 51c0 29 24 51 51 51z" />
    <glyph glyph-name="atilde_e" unicode="&#xf2a4;" horiz-adv-x="883" 
d="M626 229h133c4 41 -18 73 -61 73c-37 0 -61 -25 -72 -73zM261 88v85c-77 -20 -123 -40 -123 -90c0 -30 20 -40 40 -40c16 0 49 15 83 45zM366 223c42 3 92 6 144 6c27 73 99 121 183 121c109 0 165 -96 144 -165h-218c-7 -102 45 -149 99 -149c45 0 87 15 118 42l17 -29
c-35 -37 -95 -66 -152 -66c-120 0 -202 83 -202 184c0 6 0 12 1 18c-42 -1 -92 -2 -134 -5v-101c0 -25 8 -38 22 -38c11 0 21 7 29 12l14 -27c-29 -22 -70 -37 -93 -37c-45 0 -70 22 -77 58c-56 -44 -81 -60 -126 -60c-48 0 -96 31 -96 84c0 85 91 122 222 142v1
c0 74 -23 95 -65 95c-23 0 -54 -13 -54 -39c0 -27 -18 -43 -40 -43s-39 16 -39 43c0 50 72 80 145 80c108 0 155 -38 158 -127zM304 460c27 0 44 21 52 57h19c0 -75 -32 -119 -82 -119c-43 0 -113 65 -148 65c-22 0 -42 -25 -51 -55h-18c0 70 35 118 77 118
c48 0 108 -66 151 -66z" />
    <glyph glyph-name="aring_e" unicode="&#xf2a5;" horiz-adv-x="883" 
d="M626 229h133c4 41 -18 73 -61 73c-37 0 -61 -25 -72 -73zM261 88v85c-77 -20 -123 -40 -123 -90c0 -30 20 -40 40 -40c16 0 49 15 83 45zM366 223c42 3 92 6 144 6c27 73 99 121 183 121c109 0 165 -96 144 -165h-218c-7 -102 45 -149 99 -149c45 0 87 15 118 42l17 -29
c-35 -37 -95 -66 -152 -66c-120 0 -202 83 -202 184c0 6 0 12 1 18c-42 -1 -92 -2 -134 -5v-101c0 -25 8 -38 22 -38c11 0 21 7 29 12l14 -27c-29 -22 -70 -37 -93 -37c-45 0 -70 22 -77 58c-56 -44 -81 -60 -126 -60c-48 0 -96 31 -96 84c0 85 91 122 222 142v1
c0 74 -23 95 -65 95c-23 0 -54 -13 -54 -39c0 -27 -18 -43 -40 -43s-39 16 -39 43c0 50 72 80 145 80c108 0 155 -38 158 -127zM226 606c55 0 99 -44 99 -99s-44 -99 -99 -99s-99 44 -99 99s44 99 99 99zM226 553c-25 0 -46 -21 -46 -46s21 -46 46 -46s46 21 46 46
s-21 46 -46 46z" />
    <glyph glyph-name="a_eacute" unicode="&#xf2a6;" horiz-adv-x="883" 
d="M626 229h133c4 41 -18 73 -61 73c-37 0 -61 -25 -72 -73zM261 88v85c-77 -20 -123 -40 -123 -90c0 -30 20 -40 40 -40c16 0 49 15 83 45zM366 223c42 3 92 6 144 6c27 73 99 121 183 121c109 0 165 -96 144 -165h-218c-7 -102 45 -149 99 -149c45 0 87 15 118 42l17 -29
c-35 -37 -95 -66 -152 -66c-120 0 -202 83 -202 184c0 6 0 12 1 18c-42 -1 -92 -2 -134 -5v-101c0 -25 8 -38 22 -38c11 0 21 7 29 12l14 -27c-29 -22 -70 -37 -93 -37c-45 0 -70 22 -77 58c-56 -44 -81 -60 -126 -60c-48 0 -96 31 -96 84c0 85 91 122 222 142v1
c0 74 -23 95 -65 95c-23 0 -54 -13 -54 -39c0 -27 -18 -43 -40 -43s-39 16 -39 43c0 50 72 80 145 80c108 0 155 -38 158 -127zM829 522c0 -20 -18 -34 -30 -39l-179 -76l-6 9l121 113c22 20 36 30 58 30c25 0 36 -21 36 -37z" />
    <glyph glyph-name="a_egrave" unicode="&#xf2a7;" horiz-adv-x="883" 
d="M626 229h133c4 41 -18 73 -61 73c-37 0 -61 -25 -72 -73zM261 88v85c-77 -20 -123 -40 -123 -90c0 -30 20 -40 40 -40c16 0 49 15 83 45zM366 223c42 3 92 6 144 6c27 73 99 121 183 121c109 0 165 -96 144 -165h-218c-7 -102 45 -149 99 -149c45 0 87 15 118 42l17 -29
c-35 -37 -95 -66 -152 -66c-120 0 -202 83 -202 184c0 6 0 12 1 18c-42 -1 -92 -2 -134 -5v-101c0 -25 8 -38 22 -38c11 0 21 7 29 12l14 -27c-29 -22 -70 -37 -93 -37c-45 0 -70 22 -77 58c-56 -44 -81 -60 -126 -60c-48 0 -96 31 -96 84c0 85 91 122 222 142v1
c0 74 -23 95 -65 95c-23 0 -54 -13 -54 -39c0 -27 -18 -43 -40 -43s-39 16 -39 43c0 50 72 80 145 80c108 0 155 -38 158 -127zM763 416l-7 -9l-179 76c-12 5 -30 19 -30 39c0 16 11 37 36 37c22 0 36 -10 58 -30z" />
    <glyph glyph-name="a_ecircumflex" unicode="&#xf2a8;" horiz-adv-x="883" 
d="M626 229h133c4 41 -18 73 -61 73c-37 0 -61 -25 -72 -73zM261 88v85c-77 -20 -123 -40 -123 -90c0 -30 20 -40 40 -40c16 0 49 15 83 45zM366 223c42 3 92 6 144 6c27 73 99 121 183 121c109 0 165 -96 144 -165h-218c-7 -102 45 -149 99 -149c45 0 87 15 118 42l17 -29
c-35 -37 -95 -66 -152 -66c-120 0 -202 83 -202 184c0 6 0 12 1 18c-42 -1 -92 -2 -134 -5v-101c0 -25 8 -38 22 -38c11 0 21 7 29 12l14 -27c-29 -22 -70 -37 -93 -37c-45 0 -70 22 -77 58c-56 -44 -81 -60 -126 -60c-48 0 -96 31 -96 84c0 85 91 122 222 142v1
c0 74 -23 95 -65 95c-23 0 -54 -13 -54 -39c0 -27 -18 -43 -40 -43s-39 16 -39 43c0 50 72 80 145 80c108 0 155 -38 158 -127zM835 423l-15 -15l-128 84l-129 -84l-15 15l144 155z" />
    <glyph glyph-name="a_edieresis" unicode="&#xf2a9;" horiz-adv-x="883" 
d="M626 229h133c4 41 -18 73 -61 73c-37 0 -61 -25 -72 -73zM261 88v85c-77 -20 -123 -40 -123 -90c0 -30 20 -40 40 -40c16 0 49 15 83 45zM366 223c42 3 92 6 144 6c27 73 99 121 183 121c109 0 165 -96 144 -165h-218c-7 -102 45 -149 99 -149c45 0 87 15 118 42l17 -29
c-35 -37 -95 -66 -152 -66c-120 0 -202 83 -202 184c0 6 0 12 1 18c-42 -1 -92 -2 -134 -5v-101c0 -25 8 -38 22 -38c11 0 21 7 29 12l14 -27c-29 -22 -70 -37 -93 -37c-45 0 -70 22 -77 58c-56 -44 -81 -60 -126 -60c-48 0 -96 31 -96 84c0 85 91 122 222 142v1
c0 74 -23 95 -65 95c-23 0 -54 -13 -54 -39c0 -27 -18 -43 -40 -43s-39 16 -39 43c0 50 72 80 145 80c108 0 155 -38 158 -127zM790 510c28 0 51 -22 51 -51c0 -28 -23 -51 -51 -51s-51 23 -51 51c0 29 23 51 51 51zM591 510c28 0 51 -22 51 -51c0 -28 -23 -51 -51 -51
s-51 23 -51 51c0 29 23 51 51 51z" />
    <glyph glyph-name="ccedilla_t" unicode="&#xf2ac;" horiz-adv-x="716" 
d="M175 -9c-79 22 -133 86 -133 167c0 117 84 190 182 192c-22 146 80 230 186 230c110 0 184 -64 184 -170v-77h87v-44h-87v-174c0 -47 14 -72 45 -72c19 0 40 9 68 29l14 -29c-33 -30 -88 -57 -123 -57c-72 0 -116 45 -116 122v181h-53v33c19 4 22 6 22 6
c67 18 96 72 96 112c0 53 -45 114 -139 114c-82 0 -177 -82 -122 -213c50 -13 72 -43 72 -73c0 -18 -15 -47 -49 -47s-57 31 -71 70c-2 7 -4 12 -5 19c-52 -2 -69 -62 -69 -152c0 -80 38 -126 102 -126c27 0 65 15 101 46l17 -29c-38 -41 -90 -66 -149 -66h-8l-49 -49
c46 -2 110 -31 110 -102c0 -95 -150 -127 -190 -133v36c32 10 110 35 110 97c0 44 -67 64 -131 43v18z" />
    <glyph glyph-name="eacute_e" unicode="&#xf2ad;" horiz-adv-x="858" 
d="M302 229c3 41 -19 73 -62 73c-37 0 -61 -25 -72 -73h134zM735 229c3 41 -18 73 -62 73c-36 0 -60 -25 -71 -73h133zM476 185h-314c-8 -102 45 -149 98 -149c45 0 88 15 118 42l18 -29c-35 -37 -96 -66 -153 -66c-120 0 -201 83 -201 184c0 106 88 183 193 183
c88 0 141 -61 148 -121h103c27 73 99 121 182 121c110 0 166 -96 145 -165h-218c-7 -102 45 -149 98 -149c45 0 88 15 119 42l17 -29c-35 -37 -96 -66 -152 -66c-120 0 -202 83 -202 184c0 6 0 12 1 18zM372 522c0 -20 -19 -34 -30 -39l-179 -76l-6 9l121 113
c21 20 35 30 57 30c25 0 37 -21 37 -37z" />
    <glyph glyph-name="egrave_e" unicode="&#xf2ae;" horiz-adv-x="858" 
d="M302 229c3 41 -19 73 -62 73c-37 0 -61 -25 -72 -73h134zM735 229c3 41 -18 73 -62 73c-36 0 -60 -25 -71 -73h133zM476 185h-314c-8 -102 45 -149 98 -149c45 0 88 15 118 42l18 -29c-35 -37 -96 -66 -153 -66c-120 0 -201 83 -201 184c0 106 88 183 193 183
c88 0 141 -61 148 -121h103c27 73 99 121 182 121c110 0 166 -96 145 -165h-218c-7 -102 45 -149 98 -149c45 0 88 15 119 42l17 -29c-35 -37 -96 -66 -152 -66c-120 0 -202 83 -202 184c0 6 0 12 1 18zM305 416l-7 -9l-179 76c-11 5 -30 19 -30 39c0 16 12 37 37 37
c22 0 36 -10 57 -30z" />
    <glyph glyph-name="ecircumflex_e" unicode="&#xf2af;" horiz-adv-x="858" 
d="M302 229c3 41 -19 73 -62 73c-37 0 -61 -25 -72 -73h134zM735 229c3 41 -18 73 -62 73c-36 0 -60 -25 -71 -73h133zM476 185h-314c-8 -102 45 -149 98 -149c45 0 88 15 118 42l18 -29c-35 -37 -96 -66 -153 -66c-120 0 -201 83 -201 184c0 106 88 183 193 183
c88 0 141 -61 148 -121h103c27 73 99 121 182 121c110 0 166 -96 145 -165h-218c-7 -102 45 -149 98 -149c45 0 88 15 119 42l17 -29c-35 -37 -96 -66 -152 -66c-120 0 -202 83 -202 184c0 6 0 12 1 18zM378 423l-15 -15l-129 84l-128 -84l-15 15l143 155z" />
    <glyph glyph-name="edieresis_e" unicode="&#xf2b0;" horiz-adv-x="858" 
d="M302 229c3 41 -19 73 -62 73c-37 0 -61 -25 -72 -73h134zM735 229c3 41 -18 73 -62 73c-36 0 -60 -25 -71 -73h133zM476 185h-314c-8 -102 45 -149 98 -149c45 0 88 15 118 42l18 -29c-35 -37 -96 -66 -153 -66c-120 0 -201 83 -201 184c0 106 88 183 193 183
c88 0 141 -61 148 -121h103c27 73 99 121 182 121c110 0 166 -96 145 -165h-218c-7 -102 45 -149 98 -149c45 0 88 15 119 42l17 -29c-35 -37 -96 -66 -152 -66c-120 0 -202 83 -202 184c0 6 0 12 1 18zM333 510c28 0 50 -22 50 -51c0 -28 -22 -51 -50 -51
c-29 0 -51 23 -51 51c0 29 22 51 51 51zM133 510c29 0 51 -22 51 -51c0 -28 -22 -51 -51 -51c-27 0 -50 23 -50 51c0 29 23 51 50 51z" />
    <glyph glyph-name="e_eacute" unicode="&#xf2b1;" horiz-adv-x="858" 
d="M302 229c3 41 -19 73 -62 73c-37 0 -61 -25 -72 -73h134zM735 229c3 41 -18 73 -62 73c-36 0 -60 -25 -71 -73h133zM476 185h-314c-8 -102 45 -149 98 -149c45 0 88 15 118 42l18 -29c-35 -37 -96 -66 -153 -66c-120 0 -201 83 -201 184c0 106 88 183 193 183
c88 0 141 -61 148 -121h103c27 73 99 121 182 121c110 0 166 -96 145 -165h-218c-7 -102 45 -149 98 -149c45 0 88 15 119 42l17 -29c-35 -37 -96 -66 -152 -66c-120 0 -202 83 -202 184c0 6 0 12 1 18zM805 522c0 -20 -18 -34 -30 -39l-179 -76l-6 9l121 113
c22 20 36 30 57 30c25 0 37 -21 37 -37z" />
    <glyph glyph-name="e_egrave" unicode="&#xf2b2;" horiz-adv-x="858" 
d="M302 229c3 41 -19 73 -62 73c-37 0 -61 -25 -72 -73h134zM735 229c3 41 -18 73 -62 73c-36 0 -60 -25 -71 -73h133zM476 185h-314c-8 -102 45 -149 98 -149c45 0 88 15 118 42l18 -29c-35 -37 -96 -66 -153 -66c-120 0 -201 83 -201 184c0 106 88 183 193 183
c88 0 141 -61 148 -121h103c27 73 99 121 182 121c110 0 166 -96 145 -165h-218c-7 -102 45 -149 98 -149c45 0 88 15 119 42l17 -29c-35 -37 -96 -66 -152 -66c-120 0 -202 83 -202 184c0 6 0 12 1 18zM738 416l-6 -9l-179 76c-12 5 -30 19 -30 39c0 16 11 37 36 37
c22 0 36 -10 58 -30z" />
    <glyph glyph-name="e_ecircumflex" unicode="&#xf2b3;" horiz-adv-x="858" 
d="M302 229c3 41 -19 73 -62 73c-37 0 -61 -25 -72 -73h134zM735 229c3 41 -18 73 -62 73c-36 0 -60 -25 -71 -73h133zM476 185h-314c-8 -102 45 -149 98 -149c45 0 88 15 118 42l18 -29c-35 -37 -96 -66 -153 -66c-120 0 -201 83 -201 184c0 106 88 183 193 183
c88 0 141 -61 148 -121h103c27 73 99 121 182 121c110 0 166 -96 145 -165h-218c-7 -102 45 -149 98 -149c45 0 88 15 119 42l17 -29c-35 -37 -96 -66 -152 -66c-120 0 -202 83 -202 184c0 6 0 12 1 18zM811 423l-15 -15l-128 84l-129 -84l-15 15l144 155z" />
    <glyph glyph-name="e_edieresis" unicode="&#xf2b4;" horiz-adv-x="858" 
d="M302 229c3 41 -19 73 -62 73c-37 0 -61 -25 -72 -73h134zM735 229c3 41 -18 73 -62 73c-36 0 -60 -25 -71 -73h133zM476 185h-314c-8 -102 45 -149 98 -149c45 0 88 15 118 42l18 -29c-35 -37 -96 -66 -153 -66c-120 0 -201 83 -201 184c0 106 88 183 193 183
c88 0 141 -61 148 -121h103c27 73 99 121 182 121c110 0 166 -96 145 -165h-218c-7 -102 45 -149 98 -149c45 0 88 15 119 42l17 -29c-35 -37 -96 -66 -152 -66c-120 0 -202 83 -202 184c0 6 0 12 1 18zM766 510c28 0 51 -22 51 -51c0 -28 -23 -51 -51 -51s-51 23 -51 51
c0 29 23 51 51 51zM567 510c28 0 51 -22 51 -51c0 -28 -23 -51 -51 -51s-51 23 -51 51c0 29 23 51 51 51z" />
    <glyph glyph-name="k_ydieresis" unicode="&#xf2b5;" horiz-adv-x="823" 
d="M676 124l54 130c15 36 8 50 -29 50v29h148v-29c-35 0 -56 -14 -71 -50l-107 -261c-47 -112 -108 -256 -257 -256c-56 0 -95 37 -95 65c0 27 14 46 44 46c35 0 12 -51 70 -51c87 0 141 72 185 189l-120 268c-13 30 -27 49 -55 49c-30 0 -50 -11 -81 -35l-76 -58l117 -141
c28 -33 52 -40 76 -40v-29h-141l-134 159v-21c0 -88 13 -109 63 -109v-29h-254v29c66 0 79 17 79 117v300c0 100 -13 117 -79 117v29l191 25v-419l129 92c39 28 88 65 141 65c78 0 113 -31 144 -101zM751 510c28 0 51 -22 51 -51c0 -28 -23 -51 -51 -51s-51 23 -51 51
c0 29 23 51 51 51zM552 510c28 0 51 -22 51 -51c0 -28 -23 -51 -51 -51s-51 23 -51 51c0 29 23 51 51 51z" />
    <glyph glyph-name="k_yacute" unicode="&#xf2b6;" horiz-adv-x="823" 
d="M676 124l54 130c15 36 8 50 -29 50v29h148v-29c-35 0 -56 -14 -71 -50l-107 -261c-47 -112 -108 -256 -257 -256c-56 0 -95 37 -95 65c0 27 14 46 44 46c35 0 12 -51 70 -51c87 0 141 72 185 189l-120 268c-13 30 -27 49 -55 49c-30 0 -50 -11 -81 -35l-76 -58l117 -141
c28 -33 52 -40 76 -40v-29h-141l-134 159v-21c0 -88 13 -109 63 -109v-29h-254v29c66 0 79 17 79 117v300c0 100 -13 117 -79 117v29l191 25v-419l129 92c39 28 88 65 141 65c78 0 113 -31 144 -101zM825 522c0 -20 -19 -34 -30 -39l-179 -76l-6 9l121 113
c22 19 36 30 57 30c25 0 37 -21 37 -37z" />
    <glyph glyph-name="oacute_e" unicode="&#xf2b7;" horiz-adv-x="928" 
d="M672 229h133c3 41 -18 73 -62 73c-36 0 -60 -25 -71 -73zM323 167c0 75 -25 136 -80 136c-54 0 -79 -61 -79 -136s25 -137 79 -137c55 0 80 62 80 137zM433 229h123c27 73 99 121 182 121c110 0 166 -96 145 -165h-218c-7 -102 45 -149 98 -149c45 0 88 15 119 42l17 -29
c-35 -37 -96 -66 -152 -66c-120 0 -202 83 -202 184c0 6 0 12 1 18h-102c1 -6 1 -12 1 -18c0 -101 -91 -184 -202 -184c-110 0 -201 83 -201 184s91 183 201 183c87 0 161 -51 190 -121zM382 522c0 -20 -19 -34 -30 -39l-179 -76l-6 9l121 113c21 20 35 30 57 30
c25 0 37 -21 37 -37z" />
    <glyph glyph-name="ograve_e" unicode="&#xf2b8;" horiz-adv-x="928" 
d="M672 229h133c3 41 -18 73 -62 73c-36 0 -60 -25 -71 -73zM323 167c0 75 -25 136 -80 136c-54 0 -79 -61 -79 -136s25 -137 79 -137c55 0 80 62 80 137zM433 229h123c27 73 99 121 182 121c110 0 166 -96 145 -165h-218c-7 -102 45 -149 98 -149c45 0 88 15 119 42l17 -29
c-35 -37 -96 -66 -152 -66c-120 0 -202 83 -202 184c0 6 0 12 1 18h-102c1 -6 1 -12 1 -18c0 -101 -91 -184 -202 -184c-110 0 -201 83 -201 184s91 183 201 183c87 0 161 -51 190 -121zM316 416l-7 -9l-179 76c-12 5 -30 19 -30 39c0 16 12 37 37 37c21 0 36 -10 57 -30z
" />
    <glyph glyph-name="ocircumflex_e" unicode="&#xf2b9;" horiz-adv-x="928" 
d="M672 229h133c3 41 -18 73 -62 73c-36 0 -60 -25 -71 -73zM323 167c0 75 -25 136 -80 136c-54 0 -79 -61 -79 -136s25 -137 79 -137c55 0 80 62 80 137zM433 229h123c27 73 99 121 182 121c110 0 166 -96 145 -165h-218c-7 -102 45 -149 98 -149c45 0 88 15 119 42l17 -29
c-35 -37 -96 -66 -152 -66c-120 0 -202 83 -202 184c0 6 0 12 1 18h-102c1 -6 1 -12 1 -18c0 -101 -91 -184 -202 -184c-110 0 -201 83 -201 184s91 183 201 183c87 0 161 -51 190 -121zM388 423l-15 -15l-128 84l-128 -84l-15 15l143 155z" />
    <glyph glyph-name="odieresis_e" unicode="&#xf2ba;" horiz-adv-x="928" 
d="M672 229h133c3 41 -18 73 -62 73c-36 0 -60 -25 -71 -73zM323 167c0 75 -25 136 -80 136c-54 0 -79 -61 -79 -136s25 -137 79 -137c55 0 80 62 80 137zM433 229h123c27 73 99 121 182 121c110 0 166 -96 145 -165h-218c-7 -102 45 -149 98 -149c45 0 88 15 119 42l17 -29
c-35 -37 -96 -66 -152 -66c-120 0 -202 83 -202 184c0 6 0 12 1 18h-102c1 -6 1 -12 1 -18c0 -101 -91 -184 -202 -184c-110 0 -201 83 -201 184s91 183 201 183c87 0 161 -51 190 -121zM343 510c29 0 51 -22 51 -51c0 -28 -22 -51 -51 -51c-28 0 -50 23 -50 51
c0 29 22 51 50 51zM144 510c29 0 51 -22 51 -51c0 -28 -22 -51 -51 -51c-27 0 -51 23 -51 51c0 29 24 51 51 51z" />
    <glyph glyph-name="otilde_e" unicode="&#xf2bb;" horiz-adv-x="928" 
d="M672 229h133c3 41 -18 73 -62 73c-36 0 -60 -25 -71 -73zM323 167c0 75 -25 136 -80 136c-54 0 -79 -61 -79 -136s25 -137 79 -137c55 0 80 62 80 137zM433 229h123c27 73 99 121 182 121c110 0 166 -96 145 -165h-218c-7 -102 45 -149 98 -149c45 0 88 15 119 42l17 -29
c-35 -37 -96 -66 -152 -66c-120 0 -202 83 -202 184c0 6 0 12 1 18h-102c1 -6 1 -12 1 -18c0 -101 -91 -184 -202 -184c-110 0 -201 83 -201 184s91 183 201 183c87 0 161 -51 190 -121zM323 460c27 0 44 21 52 57h19c0 -75 -32 -119 -82 -119c-43 0 -113 65 -148 65
c-21 0 -42 -25 -51 -55h-18c0 70 35 118 78 118c47 0 107 -66 150 -66z" />
    <glyph glyph-name="o_eacute" unicode="&#xf2bc;" horiz-adv-x="928" 
d="M672 229h133c3 41 -18 73 -62 73c-36 0 -60 -25 -71 -73zM323 167c0 75 -25 136 -80 136c-54 0 -79 -61 -79 -136s25 -137 79 -137c55 0 80 62 80 137zM433 229h123c27 73 99 121 182 121c110 0 166 -96 145 -165h-218c-7 -102 45 -149 98 -149c45 0 88 15 119 42l17 -29
c-35 -37 -96 -66 -152 -66c-120 0 -202 83 -202 184c0 6 0 12 1 18h-102c1 -6 1 -12 1 -18c0 -101 -91 -184 -202 -184c-110 0 -201 83 -201 184s91 183 201 183c87 0 161 -51 190 -121zM876 522c0 -20 -18 -34 -30 -39l-179 -76l-6 9l121 113c21 20 36 30 57 30
c25 0 37 -21 37 -37z" />
    <glyph glyph-name="o_egrave" unicode="&#xf2bd;" horiz-adv-x="928" 
d="M672 229h133c3 41 -18 73 -62 73c-36 0 -60 -25 -71 -73zM323 167c0 75 -25 136 -80 136c-54 0 -79 -61 -79 -136s25 -137 79 -137c55 0 80 62 80 137zM433 229h123c27 73 99 121 182 121c110 0 166 -96 145 -165h-218c-7 -102 45 -149 98 -149c45 0 88 15 119 42l17 -29
c-35 -37 -96 -66 -152 -66c-120 0 -202 83 -202 184c0 6 0 12 1 18h-102c1 -6 1 -12 1 -18c0 -101 -91 -184 -202 -184c-110 0 -201 83 -201 184s91 183 201 183c87 0 161 -51 190 -121zM809 416l-6 -9l-180 76c-11 5 -30 19 -30 39c0 16 12 37 37 37c22 0 36 -10 58 -30z
" />
    <glyph glyph-name="o_ecircumflex" unicode="&#xf2be;" horiz-adv-x="928" 
d="M672 229h133c3 41 -18 73 -62 73c-36 0 -60 -25 -71 -73zM323 167c0 75 -25 136 -80 136c-54 0 -79 -61 -79 -136s25 -137 79 -137c55 0 80 62 80 137zM433 229h123c27 73 99 121 182 121c110 0 166 -96 145 -165h-218c-7 -102 45 -149 98 -149c45 0 88 15 119 42l17 -29
c-35 -37 -96 -66 -152 -66c-120 0 -202 83 -202 184c0 6 0 12 1 18h-102c1 -6 1 -12 1 -18c0 -101 -91 -184 -202 -184c-110 0 -201 83 -201 184s91 183 201 183c87 0 161 -51 190 -121zM882 423l-15 -15l-129 84l-128 -84l-15 15l143 155z" />
    <glyph glyph-name="o_edieresis" unicode="&#xf2bf;" horiz-adv-x="928" 
d="M672 229h133c3 41 -18 73 -62 73c-36 0 -60 -25 -71 -73zM323 167c0 75 -25 136 -80 136c-54 0 -79 -61 -79 -136s25 -137 79 -137c55 0 80 62 80 137zM433 229h123c27 73 99 121 182 121c110 0 166 -96 145 -165h-218c-7 -102 45 -149 98 -149c45 0 88 15 119 42l17 -29
c-35 -37 -96 -66 -152 -66c-120 0 -202 83 -202 184c0 6 0 12 1 18h-102c1 -6 1 -12 1 -18c0 -101 -91 -184 -202 -184c-110 0 -201 83 -201 184s91 183 201 183c87 0 161 -51 190 -121zM837 510c28 0 51 -22 51 -51c0 -28 -23 -51 -51 -51c-29 0 -51 23 -51 51
c0 29 22 51 51 51zM638 510c28 0 50 -22 50 -51c0 -28 -22 -51 -50 -51s-51 23 -51 51c0 29 23 51 51 51z" />
    <glyph glyph-name="p_ydieresis" unicode="&#xf2c0;" horiz-adv-x="868" 
d="M338 167c0 76 -24 136 -75 136c-35 0 -67 -36 -67 -88v-97c0 -51 32 -88 67 -88c51 0 75 61 75 137zM460 167c0 -101 -69 -184 -182 -184c-32 0 -61 12 -82 30v-117c0 -100 12 -117 79 -117v-29h-271v29c67 0 79 17 79 117v283c0 100 -12 117 -79 117v29l175 25
c3 -5 6 -21 9 -36c23 22 54 36 90 36c113 0 182 -82 182 -183zM716 -7c-47 -112 -108 -256 -257 -256c-56 0 -95 37 -95 65c0 27 14 46 44 46c35 0 12 -51 70 -51c87 0 141 72 185 189l-120 268c-15 36 -35 50 -66 50v29h219v-29c-43 0 -50 -13 -33 -50l58 -130l54 130
c15 36 8 50 -29 50v29h148v-29c-35 0 -56 -14 -71 -50zM796 510c28 0 51 -22 51 -51c0 -28 -23 -51 -51 -51s-51 23 -51 51c0 29 23 51 51 51zM597 510c28 0 51 -22 51 -51c0 -28 -23 -51 -51 -51s-51 23 -51 51c0 29 23 51 51 51z" />
    <glyph glyph-name="p_yacute" unicode="&#xf2c1;" horiz-adv-x="868" 
d="M338 167c0 76 -24 136 -75 136c-35 0 -67 -36 -67 -88v-97c0 -51 32 -88 67 -88c51 0 75 61 75 137zM460 167c0 -101 -69 -184 -182 -184c-32 0 -61 12 -82 30v-117c0 -100 12 -117 79 -117v-29h-271v29c67 0 79 17 79 117v283c0 100 -12 117 -79 117v29l175 25
c3 -5 6 -21 9 -36c23 22 54 36 90 36c113 0 182 -82 182 -183zM716 -7c-47 -112 -108 -256 -257 -256c-56 0 -95 37 -95 65c0 27 14 46 44 46c35 0 12 -51 70 -51c87 0 141 72 185 189l-120 268c-15 36 -35 50 -66 50v29h219v-29c-43 0 -50 -13 -33 -50l58 -130l54 130
c15 36 8 50 -29 50v29h148v-29c-35 0 -56 -14 -71 -50zM870 522c0 -20 -19 -34 -30 -39l-179 -76l-6 9l121 113c22 19 36 30 57 30c25 0 37 -21 37 -37z" />
    <glyph glyph-name="t_ydieresis" unicode="&#xf2c2;" horiz-adv-x="661" 
d="M343 239c-16 36 -36 50 -67 50h-87v-176c0 -48 14 -73 45 -73c19 0 40 9 68 29l14 -28c-33 -30 -88 -58 -123 -58c-72 0 -116 45 -116 123v183h-53v33c60 13 126 73 131 148h34v-137h299v-29c-42 0 -50 -13 -33 -50l58 -130l55 130c15 36 8 50 -30 50v29h149v-29
c-35 0 -57 -14 -71 -50l-108 -261c-46 -112 -108 -256 -256 -256c-56 0 -95 37 -95 65c0 27 13 46 43 46c35 0 13 -51 71 -51c87 0 141 72 185 189zM588 510c29 0 51 -22 51 -51c0 -28 -22 -51 -51 -51c-28 0 -50 23 -50 51c0 29 22 51 50 51zM389 510c29 0 51 -22 51 -51
c0 -28 -22 -51 -51 -51c-27 0 -51 23 -51 51c0 29 24 51 51 51z" />
    <glyph glyph-name="t_yacute" unicode="&#xf2c3;" horiz-adv-x="661" 
d="M343 239c-16 36 -36 50 -67 50h-87v-176c0 -48 14 -73 45 -73c19 0 40 9 68 29l14 -28c-33 -30 -88 -58 -123 -58c-72 0 -116 45 -116 123v183h-53v33c60 13 126 73 131 148h34v-137h299v-29c-42 0 -50 -13 -33 -50l58 -130l55 130c15 36 8 50 -30 50v29h149v-29
c-35 0 -57 -14 -71 -50l-108 -261c-46 -112 -108 -256 -256 -256c-56 0 -95 37 -95 65c0 27 13 46 43 46c35 0 13 -51 71 -51c87 0 141 72 185 189zM663 522c0 -20 -20 -34 -30 -39l-180 -76l-5 9l120 113c22 19 36 30 58 30c25 0 37 -21 37 -37z" />
    <glyph glyph-name="t_t_ydieresis" unicode="&#xf2c4;" horiz-adv-x="963" 
d="M645 239c-16 36 -36 50 -67 50h-86v-176c0 -48 13 -73 45 -73c18 0 40 9 67 29l14 -28c-32 -30 -88 -58 -122 -58c-73 0 -117 45 -117 123v183h-190v-176c0 -48 14 -73 45 -73c19 0 40 9 68 29l14 -28c-33 -30 -88 -58 -123 -58c-72 0 -116 45 -116 123v183h-53v33
c60 13 126 73 131 148h34v-137h126c88 0 136 72 143 137h34v-137h299v-29c-43 0 -50 -13 -33 -50l58 -130l54 130c15 36 8 50 -29 50v29h148v-29c-35 0 -56 -14 -71 -50l-107 -261c-47 -112 -108 -256 -257 -256c-56 0 -95 37 -95 65c0 27 14 46 44 46c35 0 12 -51 70 -51
c87 0 141 72 185 189zM891 510c28 0 51 -22 51 -51c0 -28 -23 -51 -51 -51s-51 23 -51 51c0 29 23 51 51 51zM692 510c28 0 51 -22 51 -51c0 -28 -23 -51 -51 -51s-51 23 -51 51c0 29 23 51 51 51z" />
    <glyph glyph-name="t_t_yacute" unicode="&#xf2c5;" horiz-adv-x="963" 
d="M645 239c-16 36 -36 50 -67 50h-86v-176c0 -48 13 -73 45 -73c18 0 40 9 67 29l14 -28c-32 -30 -88 -58 -122 -58c-73 0 -117 45 -117 123v183h-190v-176c0 -48 14 -73 45 -73c19 0 40 9 68 29l14 -28c-33 -30 -88 -58 -123 -58c-72 0 -116 45 -116 123v183h-53v33
c60 13 126 73 131 148h34v-137h126c88 0 136 72 143 137h34v-137h299v-29c-43 0 -50 -13 -33 -50l58 -130l54 130c15 36 8 50 -29 50v29h148v-29c-35 0 -56 -14 -71 -50l-107 -261c-47 -112 -108 -256 -257 -256c-56 0 -95 37 -95 65c0 27 14 46 44 46c35 0 12 -51 70 -51
c87 0 141 72 185 189zM965 522c0 -20 -19 -34 -30 -39l-179 -76l-6 9l121 113c22 19 36 30 57 30c25 0 37 -21 37 -37z" />
    <glyph glyph-name="fi.caps" unicode="&#xf21d;" horiz-adv-x="986" 
d="M258 555v-215h55c100 0 116 13 116 96h29v-237h-29c0 84 -16 96 -116 96h-55v-149c0 -100 13 -117 96 -117v-29h-316v29c83 0 95 17 95 117v308c0 100 -12 117 -95 117v29h531l9 -141h-30l-5 20c-13 53 -24 76 -115 76h-170zM948 0h-316v29c83 0 96 17 96 117v308
c0 100 -13 117 -96 117v29h316v-29c-83 0 -95 -17 -95 -117v-308c0 -100 12 -117 95 -117v-29z" />
    <glyph glyph-name="fl.caps" unicode="&#xf21e;" horiz-adv-x="1228" 
d="M258 555v-215h55c100 0 116 13 116 96h29v-237h-29c0 84 -16 96 -116 96h-55v-149c0 -100 13 -117 96 -117v-29h-316v29c83 0 95 17 95 117v308c0 100 -12 117 -95 117v29h531l9 -141h-30l-5 20c-13 53 -24 76 -115 76h-170zM728 454c0 100 -13 117 -96 117v29h316v-29
c-83 0 -95 -17 -95 -117v-292c0 -100 12 -117 95 -117h115c92 0 103 23 116 76l5 20h29l-8 -141h-573v29c83 0 96 17 96 117v308z" />
    <glyph glyph-name="at.caps" unicode="&#xf233;" horiz-adv-x="708" 
d="M674 360c0 -140 -106 -251 -192 -251c-33 0 -57 19 -69 40c-25 -25 -64 -43 -91 -43c-89 0 -132 86 -113 192c19 104 105 188 191 188c27 0 44 -5 65 -16h67l-48 -267c-6 -30 -1 -44 19 -44c46 0 120 73 120 199c0 133 -105 210 -217 210c-158 0 -279 -140 -279 -290
c0 -155 101 -263 244 -263c81 0 142 25 210 68l19 -28c-77 -58 -164 -87 -237 -87c-181 0 -325 132 -325 307c0 193 160 352 354 352c160 0 282 -106 282 -267zM444 425c-10 9 -24 17 -46 17c-53 0 -90 -75 -103 -148c-11 -68 -7 -136 43 -136c31 0 65 35 74 80z" />
    <glyph glyph-name="asciitilde.caps" unicode="&#xf22f;" horiz-adv-x="423" 
d="M298 305c30 0 48 15 58 54h21c0 -100 -33 -153 -92 -153c-47 0 -125 65 -164 65c-24 0 -48 -21 -56 -53h-21c0 93 35 150 86 150c53 0 120 -63 168 -63z" />
    <glyph glyph-name="florin.lprp" horiz-adv-x="453" 
d="M281 172c0 -133 -56 -189 -163 -189c-95 0 -145 57 -146 95c0 19 11 34 34 34c55 0 24 -88 96 -88c39 0 66 30 66 156v109h-81v44h81v81c0 136 51 203 170 203c80 0 125 -50 125 -88c0 -21 -13 -41 -38 -41c-60 0 -36 88 -90 88c-42 0 -54 -32 -54 -119v-124h101v-44
h-101v-117z" />
    <glyph glyph-name="guilsinglleft.caps" unicode="&#xf230;" horiz-adv-x="367" 
d="M333 111l-16 -21l-270 196l270 196l16 -20l-144 -176z" />
    <glyph glyph-name="bullet.caps" horiz-adv-x="303" 
d="M152 391c55 0 100 -45 100 -100s-45 -100 -100 -100s-100 45 -100 100s45 100 100 100z" />
    <glyph glyph-name="endash.caps" unicode="&#xf229;" horiz-adv-x="525" 
d="M525 249h-526v78h526v-78z" />
    <glyph glyph-name="emdash.caps" unicode="&#xf22a;" horiz-adv-x="667" 
d="M667 249h-668v78h668v-78z" />
    <glyph glyph-name="guilsinglright.caps" unicode="&#xf231;" horiz-adv-x="367" 
d="M35 111l143 175l-143 176l16 20l270 -196l-270 -196z" />
    <glyph glyph-name="exclamdown.caps" unicode="&#xf228;" horiz-adv-x="329" 
d="M243 59c0 -41 -36 -77 -78 -77s-75 36 -75 77c0 97 50 99 58 347h34c8 -248 61 -250 61 -347zM223 550c0 -32 -26 -57 -58 -57s-56 25 -56 57s24 58 56 58s58 -26 58 -58z" />
    <glyph glyph-name="cent.lprp" unicode="&#xf154;" horiz-adv-x="476" 
d="M287 483c76 -8 115 -46 115 -80c0 -16 -10 -43 -44 -43c-22 0 -40 18 -40 40c0 29 -14 41 -31 43v-277c5 -1 9 -1 14 -1c38 0 77 23 105 46l17 -28c-30 -30 -79 -59 -136 -65v-135h-46v135c-109 8 -183 80 -183 174c0 110 83 181 183 191v134h46v-134zM241 435
c-43 -19 -68 -72 -68 -143c0 -57 25 -97 68 -116v259z" />
    <glyph glyph-name="ordfeminine.caps" unicode="&#xf223;" horiz-adv-x="448" 
d="M123 325c-11 -25 -3 -33 44 -33v-25h-152v25c43 0 55 8 72 44l127 278h19l128 -278c16 -33 23 -44 72 -44v-25h-202v25c48 0 56 8 44 33l-18 40h-117zM198 491l-40 -89h82z" />
    <glyph glyph-name="guillemotleft.caps" unicode="&#xf22d;" horiz-adv-x="533" 
d="M332 111l-16 -21l-270 196l270 196l16 -20l-144 -176zM493 151l-15 -22l-220 157l220 157l15 -21l-111 -136z" />
    </font>
</defs>
</svg>
